<svg width="159" height="155" viewBox="0 0 159 155" fill="none" xmlns="http://www.w3.org/2000/svg">
<path d="M45.8926 45.15C30.6126 30.71 27.0826 5.25998 15.5526 6.81998C7.51263 7.89998 1.85258 34.29 1.50258 49.04C1.04258 68.74 10.4626 84.9 15.3926 87.32C31.7726 92.36 45.8926 45.15 45.8926 45.15Z" fill="#E66522"/>
<path d="M20.1623 73.2499C19.489 73.3499 18.7922 73.2866 18.0722 73.0599C14.3122 71.9099 11.0223 67.2299 9.46232 61.6699C5.51232 47.6499 7.97225 27.0299 12.5823 14.2999C14.6223 8.68988 18.0923 9.36989 20.0923 12.8099C23.0423 17.8599 26.2123 23.8899 28.3923 28.0299C31.4923 33.8999 33.4523 37.5599 34.9123 39.8999C35.5423 40.9099 35.7822 42.0599 35.5622 43.1299C32.9722 56.0999 27.0523 72.2499 20.1623 73.2499Z" fill="#FFE8DB"/>
<path d="M16.1726 59.7C16.1726 59.7 19.0926 49.41 16.5226 48.66C13.9526 47.91 12.5825 49 12.5825 49C12.5825 49 17.6926 41.01 15.9126 40.19C14.1326 39.37 12.5925 40.48 12.5925 40.48C12.5925 40.48 16.9826 32.47 15.5126 31.88C14.0526 31.3 13.1526 32.0901 13.1526 32.0901C13.1526 32.0901 16.7325 26.0101 16.5925 24.7801C16.4525 23.5501 14.2426 23.6501 14.2426 23.6501C14.2426 23.6501 17.9426 20.13 17.7926 17.04C18.2026 21.8 20.3626 23.9201 21.9326 23.7801C19.8726 24.1401 21.3225 28.71 24.8125 31.61C21.2325 30.76 23.3725 34.84 26.9825 37.5C21.4025 37.23 25.0626 41.7001 29.2426 45.7801C31.6726 48.1301 27.0025 61.78 22.5625 64.97C19.3225 67.3 16.1726 59.7 16.1726 59.7Z" fill="#F8D4C2"/>
<path d="M82.3325 45.15C97.6025 30.71 101.133 5.25998 112.663 6.81998C120.713 7.89998 126.363 34.29 126.713 49.04C127.173 68.74 117.753 84.9 112.823 87.32C96.4425 92.36 82.3325 45.15 82.3325 45.15Z" fill="#E66522"/>
<path d="M108.062 73.2499C108.736 73.3499 109.432 73.2866 110.152 73.0599C113.912 71.9099 117.192 67.2299 118.762 61.6699C122.702 47.6499 120.242 27.0299 115.632 14.2999C113.602 8.68988 110.132 9.36989 108.122 12.8099C105.172 17.8599 102.002 23.8899 99.8223 28.0299C96.7223 33.8999 94.7624 37.5599 93.3024 39.8999C92.6724 40.9099 92.4424 42.0599 92.6524 43.1299C95.2424 56.0999 101.162 72.2499 108.062 73.2499Z" fill="#FFE8DB"/>
<path d="M112.043 59.7C112.043 59.7 109.133 49.41 111.693 48.66C114.263 47.91 115.633 49 115.633 49C115.633 49 110.523 41.01 112.303 40.19C114.093 39.37 115.623 40.48 115.623 40.48C115.623 40.48 111.243 32.47 112.703 31.88C114.163 31.3 115.063 32.0901 115.063 32.0901C115.063 32.0901 111.483 26.0101 111.623 24.7801C111.773 23.5501 113.973 23.6501 113.973 23.6501C113.973 23.6501 110.273 20.13 110.423 17.04C110.013 21.8 107.853 23.9201 106.283 23.7801C108.343 24.1401 106.893 28.71 103.413 31.61C106.983 30.76 104.843 34.84 101.233 37.5C106.813 37.23 103.163 41.7001 98.9726 45.7801C96.5426 48.1301 101.213 61.78 105.653 64.97C108.893 67.3 112.043 59.7 112.043 59.7Z" fill="#F8D4C2"/>
<path d="M121.333 78.43C115.303 61.82 99.2526 40.2599 85.0626 38.7599C83.0526 38.5499 73.5826 38.4399 64.1126 38.4399C54.6326 38.4399 45.1626 38.5499 43.1526 38.7599C28.9626 40.2599 12.9126 61.82 6.88262 78.43C-15.1874 139.18 39.9826 154.93 64.1126 154.93C88.2326 154.93 143.403 139.18 121.333 78.43Z" fill="#FF8D39"/>
<path d="M64.1127 81.6802C58.5327 81.7302 51.4526 107.97 51.4526 107.97L76.8527 108.83C76.8527 108.83 69.6927 81.7302 64.1127 81.6802Z" fill="#FFA243"/>
<path style="mix-blend-mode:multiply" opacity="0.67" d="M21.0624 95.6999C27.2724 102.41 44.1224 96.8299 64.0224 96.8299C64.0758 96.8299 64.1291 96.8299 64.1825 96.8299C64.2025 89.5199 64.1524 84.0499 64.2224 74.8999C44.2324 75.4599 23.6524 80.7599 19.4524 80.6599C18.1324 85.3199 17.6824 92.0399 21.0624 95.6999ZM19.4524 80.6599C23.6524 80.7599 44.2324 75.4599 64.2224 74.8999C64.2824 67.4799 64.2024 60.4599 64.1524 54.1099C49.2424 54.1099 36.0025 59.3199 27.6725 67.3899C23.6925 71.2399 20.8324 75.7499 19.4524 80.6599ZM64.1825 96.8299C84.0425 96.8599 100.982 102.4 107.222 95.6799C110.622 92.0199 110.172 85.3299 108.852 80.6499C100.532 80.9899 83.0624 74.3599 64.2224 74.8999C64.1524 84.0499 64.2025 89.5199 64.1825 96.8299ZM64.2224 74.8999C83.0624 74.3599 100.532 80.9899 108.852 80.6499C107.472 75.7499 104.612 71.2399 100.622 67.3899C92.3024 59.3199 79.0624 54.1099 64.1524 54.1099C64.2024 60.4599 64.2824 67.4799 64.2224 74.8999Z" fill="url(#paint0_linear_139_124)"/>
<path d="M64.1126 154.93C85.2126 154.93 130.053 142.88 126.203 99.2202C123.123 97.2802 120.083 95.3502 118.753 95.0402C110.513 93.1702 109.243 105.68 95.2927 108.52C81.3327 111.36 81.9026 106.27 64.1126 106.27C46.3126 106.27 46.8927 111.36 32.9227 108.52C18.9727 105.68 17.7127 93.1702 9.46265 95.0402C8.13265 95.3502 5.09264 97.2802 2.01264 99.2202C-1.82736 142.88 43.0026 154.93 64.1126 154.93Z" fill="#FFE8DB"/>
<path d="M46.1426 121.82C46.1426 121.82 48.6126 141.39 63.7526 141.51C80.3826 141.65 81.9625 122.26 81.9625 122.26C76.1925 101.89 52.0126 100.37 46.1426 121.82Z" fill="#F8D4C2"/>
<path d="M64.1126 103.88C50.3226 103.88 41.5026 117.34 45.0526 129.27C47.2926 136.76 56.6426 123.88 64.1126 124.12C71.5726 123.88 80.9226 136.76 83.1626 129.27C86.7126 117.34 77.8926 103.88 64.1126 103.88Z" fill="#FFF9F1"/>
<path d="M74.4724 128.69C72.1524 127.38 69.6724 126.44 67.3624 125.12H60.7524C57.3924 126.59 54.2824 128.61 51.2124 130.63C52.9724 137.82 58.0225 135.99 64.0525 135.99C70.1825 135.99 75.3024 137.65 76.9824 130.27C76.1124 129.69 75.2424 129.13 74.4724 128.69Z" fill="#9A282A"/>
<path d="M64.0526 131.88C59.3426 130.31 56.0926 131.89 54.4326 135.47C56.8726 136.71 60.2726 135.99 64.0526 135.99C67.8226 135.99 71.2126 136.61 73.6526 135.38C72.0326 131.85 69.1526 130.25 64.0526 131.88Z" fill="#FF5C68"/>
<path d="M76.8528 108.83C76.8828 112.83 70.9328 113.65 64.2028 120.64C58.5728 114.71 51.4028 112.96 51.3728 108.96C51.3328 104.96 55.5028 100.69 63.8628 100.65C72.2128 100.61 76.8128 104.83 76.8528 108.83Z" fill="#3B262B"/>
<path d="M75.9132 111.27C73.8032 109.66 70.1032 108.82 68.4132 110.41C66.0632 112.61 67.9731 115.98 70.8931 114.87C71.0998 114.79 71.3065 114.717 71.5131 114.65C73.4431 113.35 74.9932 112.37 75.9132 111.27Z" fill="#22131A"/>
<path d="M52.6831 111.73C53.5131 112.58 54.6731 113.4 56.0131 114.29C56.7397 114.464 57.4531 114.677 58.1531 114.93C61.0931 116.01 62.953 112.63 60.563 110.45C58.743 108.78 54.6631 109.88 52.6831 111.73Z" fill="#22131A"/>
<path d="M64.2927 124.9C63.3727 124.88 62.6327 124.51 62.6427 124.08L62.7927 112.94C62.8027 112.5 63.5526 112.16 64.4726 112.18C65.3926 112.2 66.1427 112.56 66.1327 113L65.9726 124.14C65.9726 124.57 65.2127 124.91 64.2927 124.9Z" fill="#3B262B"/>
<path d="M51.2126 132.04C50.8026 132.04 50.4027 131.87 50.1227 131.53C49.6227 130.93 49.7027 130.04 50.3027 129.54C53.6627 126.75 63.1826 122.96 63.5926 122.8C64.3126 122.52 65.1327 122.87 65.4227 123.6C65.7127 124.32 65.3527 125.14 64.6327 125.43C64.5327 125.47 55.1227 129.21 52.1127 131.71C51.8393 131.93 51.5393 132.04 51.2126 132.04Z" fill="#3B262B"/>
<path d="M76.8528 132.22C76.4528 132.22 76.0628 132.06 75.7828 131.74C73.8228 129.49 66.3428 126.43 63.6228 125.44C62.8928 125.18 62.5128 124.37 62.7828 123.63C63.0528 122.9 63.8628 122.52 64.5928 122.79C65.6628 123.18 75.1228 126.68 77.9128 129.88C78.4228 130.47 78.3628 131.36 77.7828 131.87C77.5028 132.103 77.1928 132.22 76.8528 132.22Z" fill="#3B262B"/>
<g style="mix-blend-mode:multiply" opacity="0.15">
<path d="M123.233 84.2002C131.613 132.77 85.3826 145.94 64.1126 145.94C42.8326 145.94 -3.39745 132.77 4.98255 84.2002C-11.6274 140.18 40.7626 154.93 64.1126 154.93C87.4526 154.93 139.843 140.18 123.233 84.2002Z" fill="#ED8954"/>
</g>
<path d="M36.5524 102.47C31.6324 102.47 26.6923 99.87 25.4823 94.66C25.2423 93.59 25.9023 92.53 26.9723 92.28C28.0423 92.04 29.1023 92.7 29.3423 93.77C30.2323 97.61 34.7024 99.09 38.5324 98.31C41.5624 97.68 44.5224 95.53 43.7724 91.37C43.5724 90.29 44.2923 89.26 45.3623 89.07C46.4323 88.87 47.4724 89.59 47.6724 90.66C48.8524 97.19 44.3323 101.15 39.3223 102.19C38.4156 102.377 37.4924 102.47 36.5524 102.47Z" fill="#3B262B"/>
<path d="M91.6622 102.47C90.7222 102.47 89.7955 102.376 88.8822 102.19C83.8822 101.15 79.3623 97.1898 80.5523 90.6598C80.7423 89.5898 81.7722 88.8798 82.8522 89.0698C83.9322 89.2598 84.6421 90.2898 84.4421 91.3698C83.6921 95.5298 86.6623 97.6798 89.6823 98.3098C93.5023 99.0898 97.9822 97.6098 98.8722 93.7698C99.1222 92.6998 100.202 92.0298 101.252 92.2798C102.312 92.5298 102.982 93.5898 102.732 94.6598C101.522 99.8698 96.5822 102.47 91.6622 102.47Z" fill="#3B262B"/>
<path d="M29.7725 77.8797C30.9425 76.9197 37.1924 76.1798 42.5824 74.4298C48.4424 72.5398 51.0325 67.0397 52.8625 67.9797C56.1025 69.6497 51.8625 77.2898 44.4925 79.6198C37.3925 81.8598 26.6425 80.4597 29.7725 77.8797Z" fill="#FFC286"/>
<path d="M98.4923 78.5299C97.3823 77.5099 91.1723 76.4299 85.8923 74.3899C80.1423 72.1799 77.8522 66.5499 75.9822 67.3899C72.6422 68.8799 76.4722 76.7499 83.7022 79.4699C90.6622 82.0999 101.472 81.2799 98.4923 78.5299Z" fill="#FFC286"/>
<path d="M114.583 46.5798C111.543 41.2298 101.483 33.6998 87.0526 30.4498C73.6526 27.4298 62.0325 29.4298 56.3125 32.3698C54.2825 33.4098 52.4626 34.7198 52.0126 36.7098C51.1426 40.5798 55.0026 44.7498 60.6326 46.0098C61.0659 46.1098 61.4993 46.1865 61.9326 46.2398C62.7026 49.2898 66.0325 52.0998 70.4825 53.1098C72.2925 53.5098 74.0526 53.5698 75.6426 53.3398C77.1326 54.5398 79.0726 55.4998 81.2926 55.9998C83.2926 56.4498 85.2525 56.4698 86.9825 56.1298C88.4125 57.1798 90.1825 57.9998 92.1925 58.4498C96.6425 59.4598 100.863 58.3498 102.873 55.9298C103.279 56.0632 103.703 56.1798 104.143 56.2798C109.773 57.5398 115.043 55.4398 115.913 51.5698C116.293 49.8698 115.493 48.1898 114.583 46.5798Z" fill="#9DD2ED"/>
<path d="M102.733 37.7597L69.7427 30.3197L71.6227 21.9897L104.613 29.4297L102.733 37.7597Z" fill="#91ABCF"/>
<path d="M104.613 29.4298C104.363 30.5098 96.7826 29.7298 87.6726 27.6698C78.5626 25.6198 71.3825 23.0698 71.6225 21.9898C71.8725 20.9098 79.4525 21.6898 88.5625 23.7398C97.6725 25.7998 104.853 28.3398 104.613 29.4298Z" fill="#91ABCF"/>
<path d="M102.733 37.7598C102.493 38.8398 94.9027 38.0498 85.8027 35.9998C76.6927 33.9498 69.5027 31.3998 69.7427 30.3198C69.9927 29.2398 77.5727 30.0198 86.6827 32.0698C95.7927 34.1298 102.983 36.6698 102.733 37.7598Z" fill="#91ABCF"/>
<path d="M89.5524 107.83C72.8124 111.25 55.4224 111.3 38.6624 107.99C26.7824 105.44 24.7024 112.94 24.6724 123.7C24.7024 134.19 26.7824 144.07 38.6624 146.62C55.4224 149.93 72.8124 149.88 89.5524 146.46C101.412 143.82 102.712 134.19 102.742 123.7C102.712 112.94 101.412 105.18 89.5524 107.83Z" fill="#9DD2ED"/>
<path d="M67.3625 8.11002C67.3625 4.03002 64.0625 0.730011 59.9825 0.730011C58.7025 0.730011 57.5125 1.08 56.4625 1.66C55.1925 0.640004 53.6025 0 51.8525 0C47.9125 0 44.7326 3.08001 44.5126 6.95001C43.9459 6.80335 43.3592 6.72667 42.7526 6.72C38.6726 6.72 35.3726 10.03 35.3726 14.11C35.3726 18.18 38.6726 21.49 42.7526 21.49C44.8826 21.49 46.7826 20.58 48.1326 19.13C49.4026 21.36 51.7726 22.88 54.5226 22.88C58.6026 22.88 61.9126 19.58 61.9126 15.5C61.9059 15.4067 61.8959 15.3133 61.8826 15.22C65.0326 14.38 67.3625 11.53 67.3625 8.11002Z" fill="#DEEEFF"/>
<path d="M158.132 68.3502C158.132 64.2702 154.832 60.9702 150.752 60.9702C147.642 60.9702 144.982 62.9002 143.902 65.6302C142.542 64.0702 140.572 63.0602 138.342 63.0602C134.262 63.0602 130.962 66.3702 130.962 70.4502C130.962 73.2002 132.482 75.5702 134.722 76.8402C134.182 77.8702 133.842 79.0202 133.842 80.2602C133.842 84.3402 137.152 87.6502 141.232 87.6502C144.162 87.6502 146.672 85.9202 147.862 83.4502C148.112 83.4702 148.352 83.5202 148.612 83.5202C152.692 83.5202 155.992 80.2202 155.992 76.1402C155.992 75.3402 155.842 74.5902 155.602 73.8802C157.142 72.5202 158.132 70.5602 158.132 68.3502Z" fill="#DEEEFF"/>
<path d="M36.0725 112.61C35.9125 112.61 35.7525 112.59 35.5925 112.55C16.4725 108.12 1.07254 87.9301 0.422536 87.0801C-0.277464 86.1401 -0.0874807 84.8101 0.842519 84.1101C1.78252 83.4001 3.10255 83.5901 3.81255 84.5201C3.96255 84.7201 18.9426 104.34 36.5526 108.42C37.6926 108.69 38.4026 109.83 38.1326 110.97C37.9126 111.94 37.0325 112.61 36.0725 112.61Z" fill="#9DD2ED"/>
<path d="M92.1425 112.61C91.1825 112.61 90.3125 111.94 90.0825 110.97C89.8225 109.83 90.5226 108.69 91.6726 108.42C109.303 104.33 124.253 84.7201 124.403 84.5201C125.113 83.5901 126.433 83.4001 127.373 84.1101C128.303 84.8101 128.493 86.1401 127.793 87.0801C127.143 87.9301 111.753 108.12 92.6225 112.55C92.4625 112.59 92.3025 112.61 92.1425 112.61Z" fill="#9DD2ED"/>
<path d="M18.1923 144.87C17.3223 144.87 16.5023 144.33 16.1923 143.46C15.8023 142.35 16.3824 141.14 17.4824 140.75L30.2624 136.23C31.3724 135.85 32.5824 136.42 32.9724 137.52C33.3624 138.63 32.7825 139.84 31.6825 140.23L18.9024 144.75C18.6624 144.83 18.4257 144.87 18.1923 144.87Z" fill="#9DD2ED"/>
<path d="M110.023 144.87C109.789 144.87 109.552 144.83 109.312 144.75L96.5426 140.23C95.4326 139.84 94.8525 138.63 95.2425 137.52C95.6425 136.42 96.8425 135.84 97.9525 136.23L110.733 140.75C111.833 141.14 112.413 142.35 112.023 143.46C111.713 144.33 110.893 144.87 110.023 144.87Z" fill="#9DD2ED"/>
<path d="M25.7023 114.25C25.5756 114.684 25.4623 115.134 25.3623 115.6C50.8323 119.48 76.7323 119.47 102.202 115.58C102.122 115.107 102.032 114.654 101.932 114.22C76.6624 118.08 50.9723 118.09 25.7023 114.25Z" fill="#91ABCF"/>
<path d="M98.0426 141.91C98.4959 141.41 98.9126 140.88 99.2926 140.32C75.8326 143.65 52.0425 143.67 28.5825 140.38C28.9825 140.947 29.4192 141.484 29.8926 141.99C52.5126 145.02 75.4326 144.99 98.0426 141.91Z" fill="#91ABCF"/>
<path d="M25.2021 131.34C25.2821 131.827 25.3722 132.31 25.4722 132.79C50.8722 136.65 76.7022 136.64 102.112 132.76C102.192 132.287 102.265 131.807 102.332 131.32C76.7722 135.27 50.7621 135.28 25.2021 131.34Z" fill="#91ABCF"/>
<path d="M102.732 122.73C76.8723 126.77 50.5523 126.77 24.6923 122.74C24.6856 123.054 24.679 123.374 24.6724 123.7C24.679 123.847 24.6824 123.994 24.6824 124.14C50.5524 128.15 76.8723 128.15 102.732 124.14C102.739 123.994 102.742 123.847 102.742 123.7C102.736 123.374 102.732 123.05 102.732 122.73Z" fill="#91ABCF"/>
<defs>
<linearGradient id="paint0_linear_139_124" x1="21.7924" y1="93.3249" x2="64.2213" y2="72.8767" gradientUnits="userSpaceOnUse">
<stop stop-color="white"/>
<stop offset="1" stop-color="#FF9D8D"/>
</linearGradient>
</defs>
</svg>
