<svg width="126" height="149" viewBox="0 0 126 149" fill="none" xmlns="http://www.w3.org/2000/svg">
<path d="M44.4062 38.3985C29.1262 23.9585 25.5962 -1.49148 14.0662 0.0685197C6.02624 1.14852 0.366249 27.5385 0.0162488 42.2885C-0.443751 61.9885 8.97623 78.1485 13.9062 80.5685C30.2862 85.6085 44.4062 38.3985 44.4062 38.3985Z" fill="#E66522"/>
<path d="M18.6665 66.4984C17.9998 66.5984 17.3065 66.5351 16.5865 66.3084C12.8165 65.1584 9.53646 60.4784 7.97646 54.9184C4.02646 40.8984 6.48646 20.2784 11.0965 7.54842C13.1265 1.93842 16.5965 2.61842 18.6065 6.05842C21.5565 11.1084 24.7265 17.1384 26.9065 21.2784C30.0065 27.1484 31.9665 30.8084 33.4265 33.1484C34.0565 34.1584 34.2965 35.3084 34.0765 36.3784C31.4865 49.3484 25.5665 65.4984 18.6665 66.4984Z" fill="#FFE8DB"/>
<path d="M14.6862 52.9486C14.6862 52.9486 17.6062 42.6586 15.0362 41.9086C12.4662 41.1586 11.0962 42.2486 11.0962 42.2486C11.0962 42.2486 16.2062 34.2586 14.4262 33.4386C12.6362 32.6186 11.1062 33.7286 11.1062 33.7286C11.1062 33.7286 15.4962 25.7186 14.0262 25.1286C12.5662 24.5486 11.6662 25.3386 11.6662 25.3386C11.6662 25.3386 15.2462 19.2586 15.1062 18.0286C14.9662 16.7986 12.7562 16.8986 12.7562 16.8986C12.7562 16.8986 16.4562 13.3786 16.3062 10.2886C16.7162 15.0486 18.8762 17.1686 20.4462 17.0286C18.3862 17.3886 19.8362 21.9586 23.3162 24.8586C19.7462 24.0086 21.8862 28.0886 25.4962 30.7486C19.9162 30.4786 23.5762 34.9486 27.7562 39.0286C30.1862 41.3786 25.5162 55.0286 21.0762 58.2186C17.8362 60.5486 14.6862 52.9486 14.6862 52.9486Z" fill="#F8D4C2"/>
<path d="M80.8462 38.3985C96.1162 23.9585 99.6462 -1.49148 111.176 0.0685197C119.216 1.14852 124.876 27.5385 125.226 42.2885C125.686 61.9885 116.266 78.1485 111.336 80.5685C94.9562 85.6085 80.8462 38.3985 80.8462 38.3985Z" fill="#E66522"/>
<path d="M106.576 66.4984C107.243 66.5984 107.94 66.5351 108.666 66.3084C112.426 65.1584 115.706 60.4784 117.276 54.9184C121.216 40.8984 118.756 20.2784 114.146 7.54842C112.116 1.93842 108.646 2.61842 106.636 6.05842C103.686 11.1084 100.516 17.1384 98.3363 21.2784C95.2363 27.1484 93.2763 30.8084 91.8163 33.1484C91.1863 34.1584 90.9463 35.3084 91.1663 36.3784C93.7563 49.3484 99.6763 65.4984 106.576 66.4984Z" fill="#FFE8DB"/>
<path d="M110.556 52.9486C110.556 52.9486 107.636 42.6586 110.206 41.9086C112.776 41.1586 114.146 42.2486 114.146 42.2486C114.146 42.2486 109.036 34.2586 110.816 33.4386C112.606 32.6186 114.136 33.7286 114.136 33.7286C114.136 33.7286 109.756 25.7186 111.216 25.1286C112.676 24.5486 113.576 25.3386 113.576 25.3386C113.576 25.3386 109.996 19.2586 110.136 18.0286C110.276 16.7986 112.486 16.8986 112.486 16.8986C112.486 16.8986 108.786 13.3786 108.936 10.2886C108.526 15.0486 106.366 17.1686 104.796 17.0286C106.856 17.3886 105.406 21.9586 101.926 24.8586C105.496 24.0086 103.356 28.0886 99.7463 30.7486C105.326 30.4786 101.666 34.9486 97.4863 39.0286C95.0563 41.3786 99.7263 55.0286 104.166 58.2186C107.406 60.5486 110.556 52.9486 110.556 52.9486Z" fill="#F8D4C2"/>
<path d="M119.846 71.6785C113.816 55.0685 97.7663 33.5085 83.5763 32.0085C81.5663 31.7985 72.0963 31.6885 62.6263 31.6885C53.1463 31.6885 43.6763 31.7985 41.6663 32.0085C27.4763 33.5085 11.4263 55.0685 5.3963 71.6785C-16.6737 132.428 38.4963 148.178 62.6263 148.178C86.7463 148.178 141.916 132.428 119.846 71.6785Z" fill="#FF8D39"/>
<path d="M62.6263 148.179C83.7263 148.179 128.566 136.129 124.716 92.4687C121.636 90.5287 118.596 88.5987 117.266 88.2887C109.016 86.4187 107.756 98.9287 93.8063 101.769C79.8463 104.609 80.4163 99.5187 62.6263 99.5187C44.8263 99.5187 45.3963 104.609 31.4363 101.769C17.4863 98.9287 16.2263 86.4187 7.9763 88.2887C6.6463 88.5987 3.60631 90.5287 0.526314 92.4687C-3.31369 136.129 41.5163 148.179 62.6263 148.179Z" fill="#FFE8DB"/>
<path d="M44.7061 114.299C44.7061 114.299 47.2561 131.079 62.3961 131.219C79.0261 131.379 80.536 114.739 80.536 114.739C74.696 99.9286 50.5061 98.7486 44.7061 114.299Z" fill="#F8D4C2"/>
<path d="M62.6263 97.1289C48.8363 97.1289 40.0163 103.599 43.5663 115.669C45.8063 123.249 55.1563 121.309 62.6263 121.539C70.0863 121.309 79.4363 123.249 81.6763 115.669C85.2263 103.599 76.4063 97.1289 62.6263 97.1289Z" fill="#FFF9F1"/>
<path d="M62.6263 74.9287C57.0463 74.9787 49.9663 101.219 49.9663 101.219L75.3663 102.079C75.3663 102.079 68.1963 74.9787 62.6263 74.9287Z" fill="#FFA243"/>
<path d="M52.5962 122.919C46.9962 122.919 43.4062 118.199 42.3062 113.389C42.1362 112.629 42.6162 111.869 43.3762 111.699C44.1362 111.519 44.8862 111.999 45.0662 112.759C45.8762 116.289 48.4462 120.329 53.0162 120.079C60.9362 119.629 62.2462 119.379 62.2962 119.369C63.0562 119.209 63.7962 119.669 63.9762 120.409C64.1562 121.149 63.7362 121.899 63.0062 122.099C62.3162 122.289 58.6462 122.589 53.1662 122.899C52.9795 122.912 52.7895 122.919 52.5962 122.919Z" fill="#3B262B"/>
<path d="M72.646 122.919C72.4527 122.919 72.2627 122.912 72.076 122.899C66.596 122.589 62.926 122.299 62.236 122.099C61.486 121.889 61.046 121.109 61.256 120.359C61.476 119.609 62.246 119.169 63.006 119.379C63.016 119.379 64.386 119.639 72.226 120.079C76.796 120.349 79.376 116.299 80.176 112.759C80.346 111.999 81.106 111.519 81.866 111.699C82.626 111.869 83.1061 112.629 82.9361 113.389C81.8361 118.199 78.246 122.919 72.646 122.919Z" fill="#3B262B"/>
<path d="M75.3662 102.079C75.3962 106.079 69.4462 106.899 62.7162 113.889C57.0862 107.959 49.9161 106.209 49.8761 102.209C49.8461 98.2087 54.0162 93.9387 62.3662 93.8987C70.7262 93.8587 75.3262 98.0787 75.3662 102.079Z" fill="#3B262B"/>
<path d="M74.4263 104.519C72.3163 102.909 68.6163 102.069 66.9263 103.659C64.5763 105.859 66.4863 109.229 69.4063 108.119C69.613 108.039 69.8197 107.965 70.0263 107.899C71.9563 106.609 73.5063 105.619 74.4263 104.519Z" fill="#22131A"/>
<path d="M51.1963 104.979C52.0163 105.829 53.1863 106.649 54.5263 107.539C55.2463 107.712 55.9596 107.925 56.6663 108.179C59.6063 109.259 61.4663 105.879 59.0763 103.699C57.2563 102.029 53.1763 103.129 51.1963 104.979Z" fill="#22131A"/>
<path d="M51.5261 100.669C51.1661 98.4188 62.3761 95.0888 63.4961 97.6188C64.0361 98.8688 60.9761 99.1188 57.9661 99.8888C54.8361 100.689 51.7361 101.959 51.5261 100.669Z" fill="#FFFAFF"/>
<path d="M66.0761 98.2689C66.2061 96.2589 70.3061 96.5789 70.2361 98.4689C70.1661 100.349 66.0061 99.4989 66.0761 98.2689Z" fill="#FFFAFF"/>
<path d="M62.7561 121.319C61.8361 121.299 61.0961 120.839 61.1061 120.299L61.3061 106.389C61.3161 105.839 62.0661 105.409 62.9861 105.429C63.9061 105.449 64.6461 105.899 64.6461 106.449L64.4361 120.359C64.4261 120.899 63.6761 121.329 62.7561 121.319Z" fill="#3B262B"/>
<path d="M36.1961 70.7486C37.6361 67.6586 50.7461 71.1286 49.3161 76.0086C47.8861 80.8786 35.1561 72.9586 36.1961 70.7486Z" fill="#FFC286"/>
<path d="M91.0464 71.6185C89.8564 68.4185 76.5164 70.8185 77.5464 75.7985C78.5764 80.7685 91.8964 73.8985 91.0464 71.6185Z" fill="#FFC286"/>
<g style="mix-blend-mode:multiply" opacity="0.15">
<path d="M121.746 77.4487C130.126 126.019 83.8962 139.189 62.6262 139.189C41.3462 139.189 -4.88377 126.019 3.49623 77.4487C-13.1138 133.429 39.2762 148.179 62.6262 148.179C85.9662 148.179 138.356 133.429 121.746 77.4487Z" fill="#ED8954"/>
</g>
<path d="M56.396 122.758C45.716 121.038 47.516 107.838 38.666 107.838C29.306 107.838 30.886 122.558 40.456 126.248C50.526 130.118 56.396 122.758 56.396 122.758Z" fill="#FF5C68"/>
<path d="M54.3864 122.249C52.1164 122.659 46.3964 123.149 43.3764 118.419C42.9464 117.759 42.0564 117.559 41.3964 117.989C40.7264 118.409 40.5364 119.299 40.9564 119.969C43.7964 124.399 48.2564 125.369 51.6264 125.369C52.2664 125.362 52.8597 125.332 53.4064 125.279C55.3464 124.059 56.3964 122.759 56.3964 122.759C55.6697 122.639 54.9997 122.469 54.3864 122.249Z" fill="#E53352"/>
<path d="M26.5062 94.9487C25.5362 94.9487 24.7062 94.2387 24.5762 93.2587C24.4362 92.1887 25.1962 91.2186 26.2562 91.0786L38.1062 89.5486L29.2362 82.7086C28.3862 82.0486 28.2262 80.8287 28.8762 79.9787C29.5362 79.1287 30.7562 78.9787 31.6062 79.6287L44.1962 89.3386C44.8262 89.8186 45.0962 90.6287 44.8862 91.3887C44.6862 92.1387 44.0462 92.6986 43.2662 92.8086L26.7562 94.9386C26.6695 94.9453 26.5862 94.9487 26.5062 94.9487Z" fill="#3B262B"/>
<path d="M98.7362 94.9487C98.6562 94.9487 98.5728 94.9453 98.4862 94.9386L81.9762 92.8086C81.2062 92.6986 80.5562 92.1387 80.3562 91.3887C80.1462 90.6287 80.4262 89.8186 81.0462 89.3386L93.6362 79.6287C94.4862 78.9787 95.7062 79.1287 96.3662 79.9787C97.0162 80.8287 96.8562 82.0486 96.0062 82.7086L87.1362 89.5486L98.9862 91.0786C100.046 91.2186 100.806 92.1887 100.666 93.2587C100.536 94.2387 99.7062 94.9487 98.7362 94.9487Z" fill="#3B262B"/>
</svg>
