<svg width="144" height="130" viewBox="0 0 144 130" fill="none" xmlns="http://www.w3.org/2000/svg">
<path d="M48.771 15.0283C27.911 12.3983 10.021 -6.04175 1.64103 2.02825C-4.20896 7.65825 6.82103 32.2883 15.261 44.3883C26.531 60.5583 43.681 68.0282 49.081 67.0682C65.281 61.4582 48.771 15.0283 48.771 15.0283Z" fill="#E66522"/>
<path d="M44.611 52.8985C44.131 53.3785 43.5343 53.7418 42.821 53.9885C39.101 55.2685 33.681 53.4485 29.141 49.8785C17.671 40.8985 7.471 22.8085 3.671 9.81847C1.991 4.08847 5.20099 2.58847 8.85099 4.17847C14.211 6.50847 20.331 9.49847 24.541 11.5485C30.501 14.4585 34.2509 16.2485 36.8109 17.2785C37.9109 17.7285 38.7909 18.5085 39.2409 19.4985C44.8109 31.4885 49.591 48.0285 44.611 52.8985Z" fill="#FFE8DB"/>
<path d="M33.3912 44.3182C33.3912 44.3182 29.6612 34.2983 27.1512 35.2183C24.6312 36.1283 24.1812 37.8182 24.1812 37.8182C24.1812 37.8182 23.5812 28.3483 21.6512 28.7383C19.7312 29.1283 19.1412 30.9383 19.1412 30.9383C19.1412 30.9383 17.9513 21.8782 16.4213 22.2682C14.9013 22.6682 14.6412 23.8282 14.6412 23.8282C14.6412 23.8282 13.9412 16.8083 13.0912 15.8983C12.2512 14.9983 10.5312 16.3783 10.5312 16.3783C10.5312 16.3783 11.4412 11.3582 9.49121 8.94824C12.6312 12.5482 15.6212 12.9782 16.8112 11.9382C15.3612 13.4482 19.2412 16.2782 23.7612 16.5582C20.3812 17.9882 24.5112 20.0082 28.9912 20.0182C24.3312 23.0982 29.9212 24.5583 35.7112 25.3683C39.0612 25.8383 43.3513 39.5982 41.6613 44.7982C40.4313 48.5982 33.3912 44.3182 33.3912 44.3182Z" fill="#F8D4C2"/>
<path d="M94.451 15.0283C115.311 12.3983 133.201 -6.04175 141.581 2.02825C147.431 7.65825 136.401 32.2883 127.961 44.3883C116.691 60.5583 99.541 68.0282 94.141 67.0682C77.941 61.4582 94.451 15.0283 94.451 15.0283Z" fill="#E66522"/>
<path d="M98.611 52.8985C99.0976 53.3785 99.6976 53.7418 100.411 53.9885C104.121 55.2685 109.541 53.4485 114.081 49.8785C125.551 40.8985 135.751 22.8085 139.551 9.81847C141.231 4.08847 138.031 2.58847 134.371 4.17847C129.011 6.50847 122.891 9.49847 118.681 11.5485C112.721 14.4585 108.981 16.2485 106.411 17.2785C105.311 17.7285 104.441 18.5085 103.981 19.4985C98.411 31.4885 93.641 48.0285 98.611 52.8985Z" fill="#FFE8DB"/>
<path d="M109.831 44.3182C109.831 44.3182 113.561 34.2983 116.071 35.2183C118.591 36.1283 119.041 37.8182 119.041 37.8182C119.041 37.8182 119.651 28.3483 121.571 28.7383C123.491 29.1283 124.081 30.9383 124.081 30.9383C124.081 30.9383 125.271 21.8782 126.801 22.2682C128.321 22.6682 128.581 23.8282 128.581 23.8282C128.581 23.8282 129.291 16.8083 130.131 15.8983C130.971 14.9983 132.691 16.3783 132.691 16.3783C132.691 16.3783 131.781 11.3582 133.731 8.94824C130.591 12.5482 127.601 12.9782 126.411 11.9382C127.861 13.4482 123.981 16.2782 119.471 16.5582C122.841 17.9882 118.711 20.0082 114.231 20.0182C118.891 23.0982 113.301 24.5583 107.511 25.3683C104.171 25.8383 99.8712 39.5982 101.561 44.7982C102.791 48.5982 109.831 44.3182 109.831 44.3182Z" fill="#F8D4C2"/>
<path d="M128.831 53.4783C122.801 36.8683 106.761 15.3083 92.5611 13.8083C90.5611 13.5983 81.0812 13.4883 71.6112 13.4883C62.1412 13.4883 52.6611 13.5983 50.6611 13.8083C36.4611 15.3083 20.4211 36.8683 14.3911 53.4783C-7.67887 114.228 47.4812 129.978 71.6112 129.978C95.7412 129.978 150.901 114.228 128.831 53.4783Z" fill="#FF8D39"/>
<path d="M71.6111 129.978C92.7111 129.978 137.551 117.928 133.701 74.268C130.621 72.328 127.581 70.398 126.251 70.088C118.011 68.218 116.751 80.728 102.801 83.568C88.8311 86.408 89.4111 81.318 71.6111 81.318C53.8111 81.318 54.3911 86.408 40.4211 83.568C26.4711 80.728 25.2111 68.218 16.9711 70.088C15.6411 70.398 12.6011 72.328 9.52109 74.268C5.67109 117.928 50.5111 129.978 71.6111 129.978Z" fill="#FFE8DB"/>
<path d="M53.7012 96.0979C53.7012 96.0979 56.2412 112.878 71.3912 113.018C88.0212 113.178 89.5212 96.5379 89.5212 96.5379C83.6812 81.7279 59.5012 80.5479 53.7012 96.0979Z" fill="#F8D4C2"/>
<path d="M71.6111 78.9282C57.8311 78.9282 49.8411 92.5682 53.3911 104.638C55.6211 112.218 64.1511 103.108 71.6111 103.338V78.9282Z" fill="#FFF9F1"/>
<path d="M71.611 56.728C66.031 56.778 58.9609 83.018 58.9609 83.018L84.351 83.878C84.351 83.878 77.191 56.778 71.611 56.728Z" fill="#FFA243"/>
<path d="M58.961 108.138C58.371 108.138 57.821 107.778 57.621 107.188C57.371 106.448 57.761 105.648 58.501 105.398C66.001 102.818 71.141 101.208 71.191 101.188C71.941 100.958 72.721 101.378 72.961 102.118C73.191 102.858 72.781 103.658 72.031 103.888C71.981 103.908 66.881 105.508 59.421 108.068C59.2677 108.121 59.1143 108.145 58.961 108.138Z" fill="#3B262B"/>
<path d="M71.6113 78.9282C85.3913 78.9282 93.3913 92.5682 89.8313 104.638C87.6013 112.218 79.0713 103.108 71.6113 103.338V78.9282Z" fill="#FFF9F1"/>
<path d="M84.2612 108.138C84.1079 108.145 83.9546 108.121 83.8012 108.068C76.3412 105.508 71.2412 103.908 71.1912 103.888C70.4512 103.658 70.0312 102.858 70.2612 102.118C70.5012 101.378 71.2913 100.958 72.0313 101.188C72.0813 101.208 77.2213 102.818 84.7213 105.398C85.4613 105.648 85.8513 106.448 85.6013 107.188C85.4013 107.778 84.8512 108.138 84.2612 108.138Z" fill="#3B262B"/>
<path d="M84.3513 83.878C84.3813 87.878 78.4313 88.6981 71.7013 95.6881C66.0713 89.7581 58.9013 88.008 58.8713 84.008C58.8413 80.008 63.0113 75.738 71.3613 75.698C79.7113 75.658 84.3213 79.878 84.3513 83.878Z" fill="#3B262B"/>
<path d="M83.4214 86.3181C81.3114 84.7081 77.6013 83.8681 75.9113 85.4581C73.5713 87.6581 75.4713 91.0281 78.4013 89.9181C78.6013 89.8381 78.808 89.7647 79.0213 89.6981C80.9513 88.4081 82.5014 87.4181 83.4214 86.3181Z" fill="#22131A"/>
<path d="M60.1914 86.7781C61.0114 87.6281 62.1714 88.4481 63.5114 89.3381C64.2381 89.5114 64.9548 89.7247 65.6614 89.9781C68.6014 91.0581 70.4514 87.6781 68.0714 85.4981C66.2414 83.8281 62.1614 84.9281 60.1914 86.7781Z" fill="#22131A"/>
<path d="M60.5212 82.4682C60.1512 80.2182 71.3712 76.8881 72.4812 79.4181C73.0312 80.6681 69.9612 80.9182 66.9612 81.6882C63.8212 82.4882 60.7312 83.7582 60.5212 82.4682Z" fill="#FFFAFF"/>
<path d="M75.0715 80.0682C75.2015 78.0582 79.3015 78.3782 79.2315 80.2682C79.1515 82.1482 74.9915 81.2982 75.0715 80.0682Z" fill="#FFFAFF"/>
<path d="M71.7409 103.118C70.8209 103.098 70.0809 102.638 70.0909 102.098L70.3009 88.1882C70.3009 87.6382 71.0609 87.2082 71.9809 87.2282C72.9009 87.2482 73.6409 87.6982 73.6309 88.2482L73.4309 102.158C73.4209 102.698 72.6709 103.128 71.7409 103.118Z" fill="#3B262B"/>
<path d="M41.0911 59.5082C39.5911 56.4382 55.6811 46.5382 58.8811 50.6082C62.0811 54.6782 42.1711 61.6982 41.0911 59.5082Z" fill="#FFC286"/>
<path d="M102.131 59.5082C103.631 56.4382 87.5409 46.5382 84.3409 50.6082C81.1409 54.6782 101.051 61.6982 102.131 59.5082Z" fill="#FFC286"/>
<g style="mix-blend-mode:multiply" opacity="0.15">
<path d="M130.741 59.248C139.121 107.818 92.8809 120.988 71.6109 120.988C50.3409 120.988 4.11088 107.818 12.4909 59.248C-4.11913 115.228 48.2709 129.978 71.6109 129.978C94.9509 129.978 147.341 115.228 130.741 59.248Z" fill="#ED8954"/>
</g>
<path d="M34.8511 120.618C40.8211 123.858 47.2211 126.128 53.3311 127.618V72.5083H34.8511V120.618Z" fill="#9DD2ED"/>
<path d="M89.8911 127.618C96.0011 126.128 102.401 123.858 108.371 120.618V72.5083H89.8911V127.618Z" fill="#9DD2ED"/>
<path d="M51.3308 76.3083H36.8408C35.1908 76.3083 33.8408 74.9583 33.8408 73.2983C33.8408 71.6483 35.1908 70.2983 36.8408 70.2983H51.3308C52.9908 70.2983 54.3308 71.6483 54.3308 73.2983C54.3308 74.9583 52.9908 76.3083 51.3308 76.3083Z" fill="#3B262B"/>
<path d="M106.381 76.3083H91.8906C90.2306 76.3083 88.8906 74.9583 88.8906 73.2983C88.8906 71.6483 90.2306 70.2983 91.8906 70.2983H106.381C108.041 70.2983 109.381 71.6483 109.381 73.2983C109.381 74.9583 108.041 76.3083 106.381 76.3083Z" fill="#3B262B"/>
</svg>
