<svg width="126" height="149" viewBox="0 0 126 149" fill="none" xmlns="http://www.w3.org/2000/svg">
<path d="M44.4063 38.3985C29.1263 23.9585 25.5963 -1.49148 14.0663 0.0685197C6.0263 1.14852 0.366249 27.5385 0.0162488 42.2885C-0.443751 61.9885 8.97626 78.1485 13.9063 80.5685C30.2863 85.6085 44.4063 38.3985 44.4063 38.3985Z" fill="#E66522"/>
<path d="M18.6765 66.4984C18.0032 66.5984 17.3064 66.5351 16.5864 66.3084C12.8264 65.1584 9.53648 60.4784 7.97648 54.9184C4.02648 40.8984 6.48641 20.2784 11.0964 7.54842C13.1364 1.93842 16.6064 2.61842 18.6064 6.05842C21.5564 11.1084 24.7265 17.1384 26.9065 21.2784C30.0065 27.1484 31.9665 30.8084 33.4265 33.1484C34.0565 34.1584 34.2964 35.3084 34.0764 36.3784C31.4864 49.3484 25.5665 65.4984 18.6765 66.4984Z" fill="#FFE8DB"/>
<path d="M14.6863 52.9486C14.6863 52.9486 17.6063 42.6586 15.0363 41.9086C12.4663 41.1586 11.0962 42.2486 11.0962 42.2486C11.0962 42.2486 16.2063 34.2586 14.4263 33.4386C12.6463 32.6186 11.1062 33.7286 11.1062 33.7286C11.1062 33.7286 15.4962 25.7186 14.0262 25.1286C12.5662 24.5486 11.6663 25.3386 11.6663 25.3386C11.6663 25.3386 15.2462 19.2586 15.1062 18.0286C14.9662 16.7986 12.7562 16.8986 12.7562 16.8986C12.7562 16.8986 16.4563 13.3786 16.3063 10.2886C16.7163 15.0486 18.8763 17.1686 20.4463 17.0286C18.3863 17.3886 19.8362 21.9586 23.3262 24.8586C19.7462 24.0086 21.8862 28.0886 25.4962 30.7486C19.9162 30.4786 23.5762 34.9486 27.7562 39.0286C30.1862 41.3786 25.5162 55.0286 21.0762 58.2186C17.8362 60.5486 14.6863 52.9486 14.6863 52.9486Z" fill="#F8D4C2"/>
<path d="M80.8462 38.3985C96.1162 23.9585 99.6463 -1.49148 111.176 0.0685197C119.226 1.14852 124.876 27.5385 125.226 42.2885C125.686 61.9885 116.266 78.1485 111.336 80.5685C94.9562 85.6085 80.8462 38.3985 80.8462 38.3985Z" fill="#E66522"/>
<path d="M106.576 66.4984C107.25 66.5984 107.947 66.5351 108.667 66.3084C112.427 65.1584 115.707 60.4784 117.277 54.9184C121.217 40.8984 118.757 20.2784 114.147 7.54842C112.117 1.93842 108.647 2.61842 106.637 6.05842C103.687 11.1084 100.516 17.1384 98.3365 21.2784C95.2365 27.1484 93.2766 30.8084 91.8166 33.1484C91.1866 34.1584 90.9565 35.3084 91.1665 36.3784C93.7565 49.3484 99.6765 65.4984 106.576 66.4984Z" fill="#FFE8DB"/>
<path d="M110.556 52.9486C110.556 52.9486 107.646 42.6586 110.206 41.9086C112.776 41.1586 114.146 42.2486 114.146 42.2486C114.146 42.2486 109.036 34.2586 110.816 33.4386C112.606 32.6186 114.136 33.7286 114.136 33.7286C114.136 33.7286 109.756 25.7186 111.216 25.1286C112.676 24.5486 113.576 25.3386 113.576 25.3386C113.576 25.3386 109.996 19.2586 110.136 18.0286C110.286 16.7986 112.486 16.8986 112.486 16.8986C112.486 16.8986 108.786 13.3786 108.936 10.2886C108.526 15.0486 106.366 17.1686 104.796 17.0286C106.856 17.3886 105.406 21.9586 101.926 24.8586C105.496 24.0086 103.356 28.0886 99.7463 30.7486C105.326 30.4786 101.676 34.9486 97.4863 39.0286C95.0563 41.3786 99.7263 55.0286 104.166 58.2186C107.406 60.5486 110.556 52.9486 110.556 52.9486Z" fill="#F8D4C2"/>
<path d="M119.846 71.6785C113.816 55.0685 97.7662 33.5085 83.5762 32.0085C81.5662 31.7985 72.0963 31.6885 62.6263 31.6885C53.1463 31.6885 43.6763 31.7985 41.6663 32.0085C27.4763 33.5085 11.4263 55.0685 5.3963 71.6785C-16.6737 132.428 38.4963 148.178 62.6263 148.178C86.7463 148.178 141.916 132.428 119.846 71.6785Z" fill="#FF8D39"/>
<path d="M26.5063 95.8385C25.5363 95.8385 24.7062 95.1285 24.5762 94.1485C24.4362 93.0785 25.1963 92.1085 26.2563 91.9685L38.1062 90.4385L29.2362 83.5985C28.3862 82.9485 28.2262 81.7285 28.8762 80.8785C29.5362 80.0285 30.7562 79.8685 31.6062 80.5185L44.1963 90.2285C44.8263 90.7085 45.0963 91.5185 44.8863 92.2785C44.6863 93.0285 44.0463 93.5985 43.2663 93.6985L26.7563 95.8285C26.6696 95.8351 26.5863 95.8385 26.5063 95.8385Z" fill="#3B262B"/>
<path d="M98.7462 95.8385C98.6595 95.8385 98.5762 95.8351 98.4962 95.8285L81.9862 93.6985C81.2062 93.5985 80.5562 93.0285 80.3562 92.2785C80.1462 91.5185 80.4262 90.7085 81.0462 90.2285L93.6362 80.5185C94.4862 79.8685 95.7062 80.0285 96.3662 80.8785C97.0162 81.7285 96.8562 82.9485 96.0062 83.5985L87.1362 90.4385L98.9862 91.9685C100.056 92.1085 100.806 93.0785 100.666 94.1485C100.536 95.1285 99.7062 95.8385 98.7462 95.8385Z" fill="#3B262B"/>
<path d="M62.6263 148.179C83.7263 148.179 128.566 136.129 124.716 92.4687C121.636 90.5287 118.596 88.5987 117.266 88.2887C109.026 86.4187 107.756 98.9287 93.8063 101.769C79.8463 104.599 80.4163 99.5187 62.6263 99.5187C44.8263 99.5187 45.4063 104.599 31.4363 101.769C17.4863 98.9287 16.2263 86.4187 7.97633 88.2887C6.64633 88.5987 3.60631 90.5287 0.526314 92.4687C-3.31369 136.129 41.5163 148.179 62.6263 148.179Z" fill="#FFE8DB"/>
<path d="M44.7158 114.299C44.7158 114.299 47.2559 131.079 62.3959 131.219C79.0259 131.379 80.5359 114.739 80.5359 114.739C74.6959 99.9286 50.5058 98.7486 44.7158 114.299Z" fill="#F8D4C2"/>
<path d="M53.2461 120.969C53.2461 129.349 57.4461 139.749 62.6261 139.749C67.7961 139.749 71.9961 129.349 71.9961 120.969H53.2461Z" fill="#FF5C68"/>
<path d="M62.626 134.189C61.646 134.189 60.856 133.399 60.856 132.419V121.919C60.856 120.939 61.646 120.149 62.626 120.149C63.596 120.149 64.386 120.939 64.386 121.919V132.419C64.386 133.399 63.596 134.189 62.626 134.189Z" fill="#E53352"/>
<path d="M62.6263 97.1289C48.8363 97.1289 40.0163 103.599 43.5663 115.669C45.8063 123.249 55.1563 121.309 62.6263 121.539C70.0863 121.309 79.4363 123.249 81.6763 115.669C85.2263 103.599 76.4063 97.1289 62.6263 97.1289Z" fill="#FFF9F1"/>
<path d="M62.6259 74.9287C57.0459 74.9787 49.9658 101.219 49.9658 101.219L75.3658 102.079C75.3658 102.079 68.2059 74.9787 62.6259 74.9287Z" fill="#FFA243"/>
<path d="M52.6061 122.909C46.9961 122.909 43.4062 118.199 42.3062 113.389C42.1362 112.629 42.6161 111.869 43.3761 111.699C44.1261 111.529 44.8862 111.999 45.0662 112.759C45.8762 116.289 48.3762 120.349 53.0162 120.079C60.9362 119.629 62.2562 119.379 62.3062 119.369C63.0462 119.209 63.7961 119.669 63.9761 120.409C64.1561 121.149 63.7361 121.899 63.0061 122.099C62.3261 122.289 58.6462 122.589 53.1762 122.899C52.9829 122.905 52.7928 122.909 52.6061 122.909Z" fill="#3B262B"/>
<path d="M72.6462 122.909C72.4529 122.909 72.2628 122.905 72.0761 122.899C66.5961 122.589 62.9262 122.289 62.2362 122.099C61.4862 121.889 61.0462 121.109 61.2662 120.359C61.4762 119.609 62.2662 119.169 63.0062 119.379C63.0262 119.379 64.3862 119.639 72.2262 120.079C76.8162 120.339 79.3762 116.299 80.1762 112.759C80.3562 111.999 81.1262 111.529 81.8662 111.699C82.6262 111.869 83.1063 112.629 82.9363 113.389C81.8363 118.199 78.2462 122.909 72.6462 122.909Z" fill="#3B262B"/>
<path d="M75.366 102.079C75.396 106.079 69.446 106.899 62.716 113.889C57.086 107.959 49.916 106.209 49.886 102.209C49.846 98.2087 54.016 93.9387 62.376 93.8987C70.726 93.8587 75.326 98.0787 75.366 102.079Z" fill="#3B262B"/>
<path d="M74.4263 104.519C72.3163 102.909 68.6163 102.069 66.9263 103.659C64.5763 105.859 66.4863 109.229 69.4063 108.119C69.613 108.039 69.8196 107.965 70.0263 107.899C71.9563 106.609 73.5063 105.619 74.4263 104.519Z" fill="#22131A"/>
<path d="M51.1963 104.979C52.0263 105.829 53.1862 106.649 54.5262 107.539C55.2529 107.712 55.9663 107.925 56.6663 108.179C59.6063 109.259 61.4662 105.879 59.0762 103.699C57.2562 102.029 53.1763 103.129 51.1963 104.979Z" fill="#22131A"/>
<path d="M51.5261 100.669C51.1661 98.4188 62.376 95.0888 63.496 97.6188C64.036 98.8688 60.976 99.1188 57.966 99.8888C54.836 100.689 51.7361 101.959 51.5261 100.669Z" fill="#FFFAFF"/>
<path d="M66.0761 98.2689C66.2061 96.2589 70.3061 96.5789 70.2361 98.4689C70.1661 100.349 66.0061 99.4989 66.0761 98.2689Z" fill="#FFFAFF"/>
<path d="M62.7561 121.319C61.8361 121.299 61.0961 120.839 61.1061 120.299L61.3061 106.389C61.3161 105.839 62.0661 105.409 62.9861 105.429C63.9061 105.449 64.6561 105.899 64.6461 106.449L64.4361 120.359C64.4261 120.899 63.6761 121.329 62.7561 121.319Z" fill="#3B262B"/>
<path d="M27.5161 71.5084C27.3561 68.0984 40.586 65.0884 41.576 70.0684C42.576 75.0484 27.6261 73.9484 27.5161 71.5084Z" fill="#FFC286"/>
<path d="M98.5762 71.5084C98.7362 68.0984 85.5163 65.0884 84.5163 70.0684C83.5163 75.0484 98.4662 73.9484 98.5762 71.5084Z" fill="#FFC286"/>
<g style="mix-blend-mode:multiply" opacity="0.15">
<path d="M121.746 77.4487C130.126 126.019 83.8962 139.189 62.6262 139.189C41.3462 139.189 -4.88377 126.019 3.49623 77.4487C-13.1138 133.429 39.2762 148.179 62.6262 148.179C85.9662 148.179 138.356 133.429 121.746 77.4487Z" fill="#ED8954"/>
</g>
</svg>
