<svg width="126" height="149" viewBox="0 0 126 149" fill="none" xmlns="http://www.w3.org/2000/svg">
<path d="M44.3962 38.3985C29.1262 23.9585 25.5962 -1.49148 14.0662 0.0685197C6.01624 1.14852 0.366249 27.5385 0.0162489 42.2885C-0.443751 61.9885 8.9762 78.1485 13.9062 80.5685C30.2862 85.6085 44.3962 38.3985 44.3962 38.3985Z" fill="#E66522"/>
<path d="M18.6663 66.4984C17.993 66.5984 17.2963 66.5351 16.5763 66.3084C12.8163 65.1584 9.5363 60.4784 7.9663 54.9184C4.0263 40.8984 6.4863 20.2784 11.0963 7.54842C13.1263 1.93842 16.5963 2.61842 18.6063 6.05842C21.5563 11.1084 24.7263 17.1384 26.9063 21.2784C29.9963 27.1484 31.9663 30.8084 33.4263 33.1484C34.0463 34.1584 34.2863 35.3084 34.0763 36.3784C31.4863 49.3484 25.5663 65.4984 18.6663 66.4984Z" fill="#FFE8DB"/>
<path d="M14.6862 52.9486C14.6862 52.9486 17.5962 42.6586 15.0262 41.9086C12.4562 41.1586 11.0962 42.2486 11.0962 42.2486C11.0962 42.2486 16.2062 34.2586 14.4262 33.4386C12.6362 32.6186 11.0962 33.7286 11.0962 33.7286C11.0962 33.7286 15.4862 25.7186 14.0262 25.1286C12.5662 24.5486 11.6662 25.3386 11.6662 25.3386C11.6662 25.3386 15.2462 19.2586 15.1062 18.0286C14.9562 16.7986 12.7562 16.8986 12.7562 16.8986C12.7562 16.8986 16.4562 13.3786 16.3062 10.2886C16.7162 15.0486 18.8662 17.1686 20.4462 17.0286C18.3862 17.3886 19.8362 21.9586 23.3162 24.8586C19.7462 24.0086 21.8862 28.0886 25.4962 30.7486C19.9162 30.4786 23.5662 34.9486 27.7562 39.0286C30.1762 41.3786 25.5062 55.0286 21.0762 58.2186C17.8362 60.5486 14.6862 52.9486 14.6862 52.9486Z" fill="#F8D4C2"/>
<path d="M80.8359 38.3985C96.1059 23.9585 99.646 -1.49148 111.176 0.0685197C119.216 1.14852 124.876 27.5385 125.226 42.2885C125.686 61.9885 116.256 78.1485 111.336 80.5685C94.9559 85.6085 80.8359 38.3985 80.8359 38.3985Z" fill="#E66522"/>
<path d="M106.566 66.4984C107.239 66.5984 107.936 66.5351 108.656 66.3084C112.416 65.1584 115.706 60.4784 117.266 54.9184C121.206 40.8984 118.746 20.2784 114.136 7.54842C112.106 1.93842 108.636 2.61842 106.636 6.05842C103.686 11.1084 100.516 17.1384 98.3259 21.2784C95.2359 27.1484 93.2759 30.8084 91.8159 33.1484C91.1859 34.1584 90.9458 35.3084 91.1658 36.3784C93.7558 49.3484 99.6759 65.4984 106.566 66.4984Z" fill="#FFE8DB"/>
<path d="M110.546 52.9486C110.546 52.9486 107.636 42.6586 110.206 41.9086C112.776 41.1586 114.146 42.2486 114.146 42.2486C114.146 42.2486 109.036 34.2586 110.816 33.4386C112.596 32.6186 114.136 33.7286 114.136 33.7286C114.136 33.7286 109.746 25.7186 111.216 25.1286C112.676 24.5486 113.576 25.3386 113.576 25.3386C113.576 25.3386 109.996 19.2586 110.136 18.0286C110.276 16.7986 112.486 16.8986 112.486 16.8986C112.486 16.8986 108.786 13.3786 108.936 10.2886C108.526 15.0486 106.366 17.1686 104.796 17.0286C106.856 17.3886 105.406 21.9586 101.916 24.8586C105.496 24.0086 103.356 28.0886 99.7357 30.7486C105.326 30.4786 101.666 34.9486 97.4757 39.0286C95.0557 41.3786 99.7257 55.0286 104.166 58.2186C107.396 60.5486 110.546 52.9486 110.546 52.9486Z" fill="#F8D4C2"/>
<path d="M119.846 71.6785C113.816 55.0685 97.7664 33.5085 83.5764 32.0085C81.5664 31.7985 72.0964 31.6885 62.6164 31.6885C53.1464 31.6885 43.6764 31.7985 41.6664 32.0085C27.4764 33.5085 11.4263 55.0685 5.39633 71.6785C-16.6737 132.428 38.4964 148.178 62.6164 148.178C86.7464 148.178 141.916 132.428 119.846 71.6785Z" fill="#FF8D39"/>
<path d="M40.906 90.2783C40.556 94.2383 37.1861 97.1683 33.3861 96.8283C29.5961 96.4883 26.806 92.9983 27.166 89.0383C27.516 85.0783 30.886 82.1483 34.676 82.4883C38.476 82.8283 41.266 86.3183 40.906 90.2783Z" fill="#3B262B"/>
<path d="M36.6759 85.4684C36.6059 86.3084 35.3059 86.6084 33.8559 86.4784C32.4059 86.3484 31.3559 85.8384 31.4359 84.9884C31.5059 84.1484 32.7459 83.5584 34.1959 83.6884C35.6459 83.8184 36.7559 84.6184 36.6759 85.4684Z" fill="#FFFAFF"/>
<path d="M84.3162 90.0783C84.5562 94.0483 87.8362 97.0783 91.6462 96.8383C95.4462 96.6083 98.3362 93.2083 98.0962 89.2383C97.8462 85.2683 94.5662 82.2383 90.7662 82.4683C86.9562 82.6983 84.0762 86.1083 84.3162 90.0783Z" fill="#3B262B"/>
<path d="M88.366 85.3884C88.416 86.2384 89.706 86.5684 91.156 86.4784C92.606 86.3884 93.676 85.9184 93.616 85.0684C93.566 84.2184 92.346 83.5984 90.896 83.6884C89.446 83.7784 88.306 84.5384 88.366 85.3884Z" fill="#FFFAFF"/>
<path d="M62.616 148.179C83.716 148.179 128.556 136.129 124.716 92.4687C121.626 90.5287 118.596 88.5987 117.256 88.2887C109.016 86.4187 107.756 98.9287 93.806 101.769C79.836 104.609 80.416 99.5187 62.616 99.5187C44.816 99.5187 45.396 104.609 31.426 101.769C17.486 98.9287 16.216 86.4187 7.97599 88.2887C6.64599 88.5987 3.60597 90.5287 0.525974 92.4687C-3.32403 136.129 41.516 148.179 62.616 148.179Z" fill="#FFE8DB"/>
<path d="M44.7061 114.299C44.7061 114.299 47.2561 131.079 62.3961 131.219C79.0261 131.379 80.5261 114.739 80.5261 114.739C74.6961 99.9286 50.5061 98.7486 44.7061 114.299Z" fill="#F8D4C2"/>
<path d="M62.6163 97.1289C48.8363 97.1289 40.0163 103.599 43.5663 115.669C45.7963 123.249 55.1563 121.309 62.6163 121.539C70.0863 121.309 79.4363 123.249 81.6763 115.669C85.2263 103.599 76.4063 97.1289 62.6163 97.1289Z" fill="#FFF9F1"/>
<path d="M62.6163 74.9287C57.0363 74.9787 49.9663 101.219 49.9663 101.219L75.3563 102.079C75.3563 102.079 68.1963 74.9787 62.6163 74.9287Z" fill="#FFA243"/>
<path d="M52.5962 122.919C46.9962 122.919 43.4062 118.199 42.3062 113.389C42.1362 112.629 42.6062 111.869 43.3662 111.699C44.1162 111.529 44.8862 111.999 45.0662 112.759C45.8662 116.289 48.3662 120.349 53.0162 120.079C60.9362 119.629 62.2462 119.379 62.2962 119.369C63.0462 119.219 63.7962 119.669 63.9762 120.409C64.1562 121.149 63.7362 121.899 63.0062 122.099C62.3162 122.289 58.6462 122.589 53.1662 122.899C52.9729 122.912 52.7829 122.919 52.5962 122.919Z" fill="#3B262B"/>
<path d="M72.636 122.919C72.4494 122.919 72.2594 122.912 72.066 122.899C66.596 122.589 62.916 122.299 62.236 122.099C61.486 121.889 61.046 121.109 61.256 120.359C61.476 119.609 62.266 119.169 63.006 119.379C63.016 119.379 64.376 119.639 72.226 120.079C76.816 120.329 79.366 116.299 80.176 112.759C80.346 111.999 81.116 111.529 81.866 111.699C82.626 111.869 83.106 112.629 82.936 113.389C81.836 118.199 78.246 122.919 72.636 122.919Z" fill="#3B262B"/>
<path d="M75.3561 102.079C75.3961 106.079 69.4361 106.899 62.7161 113.889C57.0761 107.959 49.9061 106.209 49.8761 102.209C49.8461 98.2087 54.0161 93.9387 62.3661 93.8987C70.7261 93.8587 75.3261 98.0787 75.3561 102.079Z" fill="#3B262B"/>
<path d="M74.4263 104.519C72.3163 102.909 68.6163 102.069 66.9263 103.659C64.5763 105.859 66.4863 109.229 69.4063 108.119C69.613 108.039 69.8196 107.965 70.0263 107.899C71.9563 106.609 73.5063 105.619 74.4263 104.519Z" fill="#22131A"/>
<path d="M51.1963 104.979C52.0163 105.829 53.1763 106.649 54.5163 107.539C55.243 107.712 55.9596 107.925 56.6663 108.179C59.6063 109.259 61.4563 105.879 59.0763 103.699C57.2463 102.029 53.1663 103.129 51.1963 104.979Z" fill="#22131A"/>
<path d="M51.526 100.669C51.156 98.4188 62.3761 95.0888 63.4861 97.6188C64.0361 98.8688 60.976 99.1188 57.966 99.8888C54.836 100.689 51.736 101.959 51.526 100.669Z" fill="#FFFAFF"/>
<path d="M66.0763 98.2689C66.2063 96.2589 70.3063 96.5789 70.2363 98.4689C70.1663 100.349 65.9963 99.4989 66.0763 98.2689Z" fill="#FFFAFF"/>
<path d="M62.7562 121.319C61.8362 121.299 61.0962 120.839 61.0962 120.299L61.3062 106.389C61.3162 105.839 62.0662 105.409 62.9862 105.429C63.9062 105.449 64.6462 105.899 64.6362 106.449L64.4362 120.359C64.4262 120.899 63.6762 121.329 62.7562 121.319Z" fill="#3B262B"/>
<path d="M29.4262 67.2284C31.0762 64.2284 50.2861 73.0583 48.9061 78.0983C47.5261 83.1383 28.2562 69.3684 29.4262 67.2284Z" fill="#FFC286"/>
<path d="M95.806 67.2284C94.166 64.2284 74.956 73.0583 76.336 78.0983C77.716 83.1383 96.986 69.3684 95.806 67.2284Z" fill="#FFC286"/>
<g style="mix-blend-mode:multiply" opacity="0.15">
<path d="M121.746 77.4487C130.126 126.019 83.8962 139.189 62.6162 139.189C41.3462 139.189 -4.88375 126.019 3.49625 77.4487C-13.1138 133.429 39.2762 148.179 62.6162 148.179C85.9662 148.179 138.356 133.429 121.746 77.4487Z" fill="#ED8954"/>
</g>
</svg>
