<svg width="126" height="149" viewBox="0 0 126 149" fill="none" xmlns="http://www.w3.org/2000/svg">
<path d="M44.3969 38.3985C29.1269 23.9585 25.5969 -1.49148 14.0569 0.0685197C6.01691 1.14852 0.356933 27.5385 0.0169328 42.2885C-0.453067 61.9885 8.97694 78.1485 13.8969 80.5685C30.2869 85.6085 44.3969 38.3985 44.3969 38.3985Z" fill="#E66522"/>
<path d="M18.6668 66.4984C17.9935 66.5984 17.2968 66.5351 16.5768 66.3084C12.8168 65.1584 9.52679 60.4784 7.96679 54.9184C4.02679 40.8984 6.48679 20.2784 11.0968 7.54841C13.1268 1.93841 16.5968 2.61842 18.6068 6.05842C21.5468 11.1084 24.7268 17.1384 26.9068 21.2784C29.9968 27.1484 31.9568 30.8084 33.4168 33.1484C34.0468 34.1584 34.2868 35.3084 34.0768 36.3784C31.4768 49.3484 25.5568 65.4984 18.6668 66.4984Z" fill="#FFE8DB"/>
<path d="M14.6866 52.9486C14.6866 52.9486 17.5967 42.6586 15.0267 41.9086C12.4567 41.1586 11.0967 42.2486 11.0967 42.2486C11.0967 42.2486 16.2067 34.2586 14.4167 33.4386C12.6367 32.6186 11.0967 33.7286 11.0967 33.7286C11.0967 33.7286 15.4867 25.7186 14.0267 25.1286C12.5567 24.5486 11.6667 25.3386 11.6667 25.3386C11.6667 25.3386 15.2467 19.2586 15.0967 18.0286C14.9567 16.7986 12.7567 16.8986 12.7567 16.8986C12.7567 16.8986 16.4567 13.3786 16.2967 10.2886C16.7067 15.0486 18.8666 17.1686 20.4366 17.0286C18.3866 17.3886 19.8367 21.9586 23.3167 24.8586C19.7467 24.0086 21.8866 28.0886 25.4966 30.7486C19.9166 30.4786 23.5667 34.9486 27.7567 39.0286C30.1767 41.3786 25.5067 55.0286 21.0667 58.2186C17.8367 60.5486 14.6866 52.9486 14.6866 52.9486Z" fill="#F8D4C2"/>
<path d="M80.8369 38.3985C96.1069 23.9585 99.6369 -1.49148 111.177 0.0685197C119.217 1.14852 124.877 27.5385 125.217 42.2885C125.687 61.9885 116.257 78.1485 111.337 80.5685C94.9469 85.6085 80.8369 38.3985 80.8369 38.3985Z" fill="#E66522"/>
<path d="M106.567 66.4984C107.24 66.5984 107.937 66.5351 108.657 66.3084C112.417 65.1584 115.707 60.4784 117.267 54.9184C121.207 40.8984 118.747 20.2784 114.137 7.54841C112.107 1.93841 108.637 2.61842 106.627 6.05842C103.687 11.1084 100.507 17.1384 98.3268 21.2784C95.2368 27.1484 93.2768 30.8084 91.8168 33.1484C91.1868 34.1584 90.9468 35.3084 91.1568 36.3784C93.7568 49.3484 99.6768 65.4984 106.567 66.4984Z" fill="#FFE8DB"/>
<path d="M110.547 52.9486C110.547 52.9486 107.637 42.6586 110.207 41.9086C112.777 41.1586 114.137 42.2486 114.137 42.2486C114.137 42.2486 109.027 34.2586 110.817 33.4386C112.597 32.6186 114.137 33.7286 114.137 33.7286C114.137 33.7286 109.747 25.7186 111.207 25.1286C112.677 24.5486 113.567 25.3386 113.567 25.3386C113.567 25.3386 109.987 19.2586 110.137 18.0286C110.277 16.7986 112.477 16.8986 112.477 16.8986C112.477 16.8986 108.777 13.3786 108.937 10.2886C108.527 15.0486 106.367 17.1686 104.797 17.0286C106.857 17.3886 105.397 21.9586 101.917 24.8586C105.487 24.0086 103.347 28.0886 99.7367 30.7486C105.317 30.4786 101.667 34.9486 97.4767 39.0286C95.0567 41.3786 99.7267 55.0286 104.167 58.2186C107.397 60.5486 110.547 52.9486 110.547 52.9486Z" fill="#F8D4C2"/>
<path d="M119.837 71.6785C113.807 55.0685 97.767 33.5085 83.567 32.0085C81.567 31.7985 72.087 31.6885 62.617 31.6885C53.147 31.6885 43.667 31.7985 41.667 32.0085C27.467 33.5085 11.427 55.0685 5.39699 71.6785C-16.673 132.428 38.487 148.178 62.617 148.178C86.747 148.178 141.907 132.428 119.837 71.6785Z" fill="#FF8D39"/>
<path d="M62.617 148.179C83.717 148.179 128.557 136.129 124.707 92.4687C121.627 90.5287 118.587 88.5987 117.257 88.2887C109.017 86.4187 107.757 98.9287 93.8069 101.769C79.8369 104.609 80.417 99.5187 62.617 99.5187C44.817 99.5187 45.397 104.609 31.427 101.769C17.477 98.9287 16.217 86.4187 7.97696 88.2887C6.64696 88.5987 3.60695 90.5287 0.526951 92.4687C-3.32305 136.129 41.517 148.179 62.617 148.179Z" fill="#FFE8DB"/>
<path d="M44.707 114.299C44.707 114.299 47.247 131.079 62.397 131.219C79.027 131.379 80.527 114.739 80.527 114.739C74.687 99.9286 50.507 98.7486 44.707 114.299Z" fill="#F8D4C2"/>
<path d="M62.6172 97.1289C48.8372 97.1289 40.0072 103.599 43.5672 115.669C45.7972 123.249 55.1572 121.309 62.6172 121.539C70.0772 121.309 79.4372 123.249 81.6672 115.669C85.2272 103.599 76.3972 97.1289 62.6172 97.1289Z" fill="#FFF9F1"/>
<path d="M62.6168 74.9287C57.0368 74.9787 49.9668 101.219 49.9668 101.219L75.3568 102.079C75.3568 102.079 68.1968 74.9787 62.6168 74.9287Z" fill="#FFA243"/>
<path d="M52.5969 122.909C46.9969 122.909 43.4069 118.198 42.3069 113.388C42.1269 112.628 42.6069 111.868 43.3669 111.698C44.1169 111.518 44.8869 111.998 45.0569 112.758C45.8669 116.288 48.3569 120.338 53.0069 120.078C60.9369 119.628 62.2469 119.378 62.2969 119.358C63.0469 119.218 63.7969 119.669 63.9769 120.409C64.1569 121.149 63.7369 121.899 62.9969 122.099C62.3169 122.289 58.6369 122.589 53.1669 122.899C52.9736 122.905 52.7836 122.909 52.5969 122.909Z" fill="#3B262B"/>
<path d="M72.637 122.909C72.4503 122.909 72.2603 122.905 72.067 122.899C66.597 122.589 62.917 122.289 62.237 122.099C61.487 121.889 61.047 121.108 61.257 120.358C61.467 119.608 62.257 119.168 62.997 119.378C63.017 119.378 64.377 119.638 72.227 120.078C76.837 120.358 79.367 116.298 80.177 112.758C80.347 111.998 81.1171 111.518 81.8671 111.698C82.6271 111.868 83.107 112.628 82.927 113.388C81.827 118.198 78.237 122.909 72.637 122.909Z" fill="#3B262B"/>
<path d="M75.3572 102.079C75.3872 106.079 69.4371 106.899 62.7071 113.889C57.0771 107.959 49.9071 106.209 49.8771 102.209C49.8471 98.2087 54.0172 93.9387 62.3672 93.8987C70.7172 93.8587 75.3272 98.0787 75.3572 102.079Z" fill="#3B262B"/>
<path d="M74.4272 104.519C72.3172 102.909 68.6072 102.069 66.9172 103.659C64.5772 105.859 66.4772 109.229 69.4072 108.119C69.6072 108.039 69.8139 107.965 70.0272 107.899C71.9572 106.599 73.5072 105.619 74.4272 104.519Z" fill="#22131A"/>
<path d="M51.1973 104.979C52.0173 105.829 53.1773 106.649 54.5173 107.539C55.2439 107.712 55.9606 107.925 56.6673 108.179C59.6073 109.259 61.4573 105.879 59.0773 103.699C57.2473 102.029 53.1673 103.129 51.1973 104.979Z" fill="#22131A"/>
<path d="M51.527 100.669C51.157 98.4188 62.377 95.0888 63.487 97.6188C64.037 98.8688 60.967 99.1188 57.967 99.8888C54.827 100.689 51.737 101.959 51.527 100.669Z" fill="#FFFAFF"/>
<path d="M66.0773 98.2689C66.2073 96.2589 70.3073 96.5789 70.2373 98.4689C70.1573 100.349 65.9973 99.4989 66.0773 98.2689Z" fill="#FFFAFF"/>
<path d="M62.7467 121.319C61.8267 121.299 61.0868 120.839 61.0968 120.299L61.3067 106.389C61.3067 105.839 62.0668 105.409 62.9868 105.429C63.9068 105.449 64.6468 105.899 64.6368 106.449L64.4367 120.359C64.4267 120.899 63.6767 121.329 62.7467 121.319Z" fill="#3B262B"/>
<path d="M29.4272 67.2287C31.0772 64.2387 50.2771 73.0587 48.8971 78.0987C47.5171 83.1387 28.2572 69.3687 29.4272 67.2287Z" fill="#FFC286"/>
<path d="M95.807 67.2287C94.167 64.2387 74.957 73.0587 76.337 78.0987C77.717 83.1387 96.977 69.3687 95.807 67.2287Z" fill="#FFC286"/>
<g style="mix-blend-mode:multiply" opacity="0.15">
<path d="M121.747 77.4487C130.127 126.019 83.8868 139.189 62.6168 139.189C41.3468 139.189 -4.88327 126.019 3.49673 77.4487C-13.1133 133.429 39.2768 148.179 62.6168 148.179C85.9568 148.179 138.347 133.429 121.747 77.4487Z" fill="#ED8954"/>
</g>
<path d="M54.1068 83.6087C52.7668 90.1287 46.7568 102.199 30.2168 100.239C11.6568 98.0387 11.1168 84.3987 12.3468 77.8587C14.0568 68.7087 56.1168 73.8987 54.1068 83.6087Z" fill="#3B262B"/>
<path d="M71.1267 83.6087C72.4667 90.1287 78.4768 102.199 95.0168 100.239C113.577 98.0387 114.117 84.3987 112.887 77.8587C111.177 68.7087 69.1267 73.8987 71.1267 83.6087Z" fill="#3B262B"/>
<path d="M75.3569 89.3186C74.3269 89.3186 73.4869 88.4786 73.4869 87.4486C73.4869 85.8986 69.1569 83.5686 62.6169 83.5686C56.0869 83.5686 51.7468 85.8986 51.7468 87.4486C51.7468 88.4786 50.9068 89.3186 49.8768 89.3186C48.8468 89.3186 48.0068 88.4786 48.0068 87.4486C48.0068 83.0986 54.2869 79.8286 62.6169 79.8286C70.9469 79.8286 77.2269 83.0986 77.2269 87.4486C77.2269 88.4786 76.3869 89.3186 75.3569 89.3186Z" fill="#3B262B"/>
<path d="M42.4167 78.0787C42.3367 78.9287 37.4267 78.8987 31.8467 78.3887C26.2667 77.8887 22.1267 77.1087 22.1967 76.2587C22.2767 75.4087 26.8667 75.1287 32.4467 75.6387C38.0267 76.1387 42.4867 77.2287 42.4167 78.0787Z" fill="#90838D"/>
<path d="M81.617 78.7688C81.697 79.6188 86.607 79.5889 92.187 79.0889C97.767 78.5889 101.907 77.7988 101.837 76.9588C101.757 76.1088 97.177 75.8288 91.587 76.3288C86.007 76.8288 81.547 77.9288 81.617 78.7688Z" fill="#90838D"/>
</svg>
