<svg width="126" height="149" viewBox="0 0 126 149" fill="none" xmlns="http://www.w3.org/2000/svg">
<path d="M44.3969 38.3985C29.1269 23.9585 25.5969 -1.49148 14.0569 0.0685197C6.01691 1.14852 0.356933 27.5385 0.0169328 42.2885C-0.453067 61.9885 8.97694 78.1485 13.8969 80.5685C30.2869 85.6085 44.3969 38.3985 44.3969 38.3985Z" fill="#E66522"/>
<path d="M18.6668 66.4984C17.9935 66.5984 17.2968 66.5351 16.5768 66.3084C12.8168 65.1584 9.52679 60.4784 7.96679 54.9184C4.02679 40.8984 6.48679 20.2784 11.0968 7.54842C13.1268 1.93842 16.5968 2.61842 18.6068 6.05842C21.5468 11.1084 24.7268 17.1384 26.9068 21.2784C29.9968 27.1484 31.9568 30.8084 33.4168 33.1484C34.0468 34.1584 34.2868 35.3084 34.0768 36.3784C31.4768 49.3484 25.5568 65.4984 18.6668 66.4984Z" fill="#FFE8DB"/>
<path d="M14.6866 52.9486C14.6866 52.9486 17.5967 42.6586 15.0267 41.9086C12.4567 41.1586 11.0967 42.2486 11.0967 42.2486C11.0967 42.2486 16.2067 34.2586 14.4167 33.4386C12.6367 32.6186 11.0967 33.7286 11.0967 33.7286C11.0967 33.7286 15.4867 25.7186 14.0267 25.1286C12.5567 24.5486 11.6667 25.3386 11.6667 25.3386C11.6667 25.3386 15.2467 19.2586 15.0967 18.0286C14.9567 16.7986 12.7567 16.8986 12.7567 16.8986C12.7567 16.8986 16.4567 13.3786 16.2967 10.2886C16.7067 15.0486 18.8666 17.1686 20.4366 17.0286C18.3866 17.3886 19.8367 21.9586 23.3167 24.8586C19.7467 24.0086 21.8866 28.0886 25.4966 30.7486C19.9166 30.4786 23.5667 34.9486 27.7567 39.0286C30.1767 41.3786 25.5067 55.0286 21.0667 58.2186C17.8367 60.5486 14.6866 52.9486 14.6866 52.9486Z" fill="#F8D4C2"/>
<path d="M80.8369 38.3985C96.1069 23.9585 99.6369 -1.49148 111.177 0.0685197C119.217 1.14852 124.877 27.5385 125.217 42.2885C125.687 61.9885 116.257 78.1485 111.337 80.5685C94.9469 85.6085 80.8369 38.3985 80.8369 38.3985Z" fill="#E66522"/>
<path d="M106.567 66.4984C107.24 66.5984 107.937 66.5351 108.657 66.3084C112.417 65.1584 115.707 60.4784 117.267 54.9184C121.207 40.8984 118.747 20.2784 114.137 7.54842C112.107 1.93842 108.637 2.61842 106.627 6.05842C103.687 11.1084 100.507 17.1384 98.3268 21.2784C95.2368 27.1484 93.2768 30.8084 91.8168 33.1484C91.1868 34.1584 90.9468 35.3084 91.1568 36.3784C93.7568 49.3484 99.6768 65.4984 106.567 66.4984Z" fill="#FFE8DB"/>
<path d="M110.547 52.9486C110.547 52.9486 107.637 42.6586 110.207 41.9086C112.777 41.1586 114.137 42.2486 114.137 42.2486C114.137 42.2486 109.027 34.2586 110.817 33.4386C112.597 32.6186 114.137 33.7286 114.137 33.7286C114.137 33.7286 109.747 25.7186 111.207 25.1286C112.677 24.5486 113.567 25.3386 113.567 25.3386C113.567 25.3386 109.987 19.2586 110.137 18.0286C110.277 16.7986 112.477 16.8986 112.477 16.8986C112.477 16.8986 108.777 13.3786 108.937 10.2886C108.527 15.0486 106.367 17.1686 104.797 17.0286C106.857 17.3886 105.397 21.9586 101.917 24.8586C105.487 24.0086 103.347 28.0886 99.7367 30.7486C105.317 30.4786 101.667 34.9486 97.4767 39.0286C95.0567 41.3786 99.7267 55.0286 104.167 58.2186C107.397 60.5486 110.547 52.9486 110.547 52.9486Z" fill="#F8D4C2"/>
<path d="M119.837 71.6785C113.807 55.0685 97.767 33.5085 83.567 32.0085C81.567 31.7985 72.087 31.6885 62.617 31.6885C53.147 31.6885 43.667 31.7985 41.667 32.0085C27.467 33.5085 11.427 55.0685 5.39699 71.6785C-16.673 132.428 38.487 148.178 62.617 148.178C86.747 148.178 141.907 132.428 119.837 71.6785Z" fill="#FF8D39"/>
<path d="M33.087 80.9386C29.327 75.3886 17.647 77.2486 20.857 88.0686C22.727 94.3586 32.067 98.9086 33.087 99.1086C34.117 98.9086 43.457 94.3586 45.327 88.0686C48.537 77.2486 36.857 75.3886 33.087 80.9386Z" fill="#F84257"/>
<path d="M92.1468 80.9386C88.3768 75.3886 76.6968 77.2486 79.9168 88.0686C81.7768 94.3586 91.1168 98.9086 92.1468 99.1086C93.1668 98.9086 102.507 94.3586 104.377 88.0686C107.587 77.2486 95.9068 75.3886 92.1468 80.9386Z" fill="#F84257"/>
<path d="M62.617 148.179C83.717 148.179 128.557 136.129 124.707 92.4687C121.627 90.5287 118.587 88.5987 117.257 88.2887C109.017 86.4187 107.757 98.9287 93.8069 101.769C79.8369 104.599 80.417 99.5187 62.617 99.5187C44.817 99.5187 45.397 104.599 31.427 101.769C17.477 98.9287 16.217 86.4187 7.97696 88.2887C6.64696 88.5987 3.60695 90.5287 0.526951 92.4687C-3.32305 136.129 41.517 148.179 62.617 148.179Z" fill="#FFE8DB"/>
<path d="M44.707 114.299C44.707 114.299 47.247 131.079 62.397 131.219C79.027 131.379 80.527 114.739 80.527 114.739C74.687 99.9286 50.507 98.7486 44.707 114.299Z" fill="#F8D4C2"/>
<path d="M62.6172 97.1289C48.8372 97.1289 40.0072 103.599 43.5672 115.669C45.7972 123.249 55.1572 121.309 62.6172 121.539C70.0772 121.309 79.4372 123.249 81.6672 115.669C85.2272 103.599 76.3972 97.1289 62.6172 97.1289Z" fill="#FFF9F1"/>
<path d="M62.6168 74.9287C57.0368 74.9787 49.9668 101.219 49.9668 101.219L75.3568 102.079C75.3568 102.079 68.1968 74.9787 62.6168 74.9287Z" fill="#FFA243"/>
<path d="M52.5969 122.909C46.9969 122.909 43.4069 118.199 42.3069 113.389C42.1269 112.629 42.6069 111.869 43.3669 111.699C44.1169 111.529 44.8869 111.999 45.0569 112.759C45.8669 116.289 48.3569 120.349 53.0069 120.079C60.9369 119.629 62.2469 119.379 62.2969 119.369C63.0469 119.209 63.7969 119.669 63.9769 120.409C64.1569 121.149 63.7369 121.899 62.9969 122.099C62.3169 122.289 58.6369 122.589 53.1669 122.899C52.9736 122.905 52.7836 122.909 52.5969 122.909Z" fill="#3B262B"/>
<path d="M72.637 122.909C72.4503 122.909 72.2603 122.905 72.067 122.899C66.597 122.589 62.917 122.289 62.237 122.099C61.487 121.889 61.047 121.109 61.257 120.359C61.467 119.609 62.257 119.169 62.997 119.379C63.017 119.379 64.377 119.639 72.227 120.079C76.837 120.339 79.367 116.299 80.177 112.759C80.347 111.999 81.1171 111.529 81.8671 111.699C82.6271 111.869 83.107 112.629 82.927 113.389C81.827 118.199 78.237 122.909 72.637 122.909Z" fill="#3B262B"/>
<path d="M75.3572 102.079C75.3872 106.079 69.4371 106.899 62.7071 113.889C57.0771 107.959 49.9071 106.209 49.8771 102.209C49.8471 98.2087 54.0172 93.9387 62.3672 93.8987C70.7172 93.8587 75.3272 98.0787 75.3572 102.079Z" fill="#3B262B"/>
<path d="M74.4272 104.519C72.3172 102.909 68.6072 102.069 66.9172 103.659C64.5772 105.859 66.4772 109.229 69.4072 108.119C69.6072 108.039 69.8139 107.965 70.0272 107.899C71.9572 106.609 73.5072 105.619 74.4272 104.519Z" fill="#22131A"/>
<path d="M51.1973 104.979C52.0173 105.829 53.1773 106.649 54.5173 107.539C55.2439 107.712 55.9606 107.925 56.6673 108.179C59.6073 109.259 61.4573 105.879 59.0773 103.699C57.2473 102.029 53.1673 103.129 51.1973 104.979Z" fill="#22131A"/>
<path d="M51.527 100.669C51.157 98.4188 62.377 95.0888 63.487 97.6188C64.037 98.8688 60.967 99.1188 57.967 99.8888C54.827 100.689 51.737 101.959 51.527 100.669Z" fill="#FFFAFF"/>
<path d="M66.0773 98.2689C66.2073 96.2589 70.3073 96.5789 70.2373 98.4689C70.1573 100.349 65.9973 99.4989 66.0773 98.2689Z" fill="#FFFAFF"/>
<path d="M62.7467 121.319C61.8267 121.299 61.0868 120.839 61.0968 120.299L61.3067 106.389C61.3067 105.839 62.0668 105.409 62.9868 105.429C63.9068 105.449 64.6468 105.899 64.6368 106.449L64.4367 120.359C64.4267 120.899 63.6767 121.329 62.7467 121.319Z" fill="#3B262B"/>
<path d="M27.5071 71.5084C27.3571 68.0984 40.5771 65.0884 41.5771 70.0684C42.5671 75.0484 27.6271 73.9484 27.5071 71.5084Z" fill="#FFC286"/>
<path d="M98.5768 71.5084C98.7268 68.0984 85.5068 65.0884 84.5168 70.0684C83.5168 75.0484 98.4668 73.9484 98.5768 71.5084Z" fill="#FFC286"/>
<g style="mix-blend-mode:multiply" opacity="0.15">
<path d="M121.747 77.4487C130.127 126.019 83.8868 139.189 62.6168 139.189C41.3468 139.189 -4.88327 126.019 3.49673 77.4487C-13.1133 133.429 39.2768 148.179 62.6168 148.179C85.9568 148.179 138.347 133.429 121.747 77.4487Z" fill="#ED8954"/>
</g>
<path d="M10.1768 110.719C9.80683 110.719 9.42683 110.599 9.10683 110.359C8.33683 109.759 8.18681 108.649 8.77681 107.879L14.7468 100.089C15.3368 99.3186 16.4468 99.1586 17.2268 99.7586C17.9968 100.349 18.1468 101.459 17.5468 102.239L11.5868 110.029C11.2368 110.479 10.7068 110.719 10.1768 110.719Z" fill="#FF8B81"/>
<path d="M17.1368 110.719C16.7568 110.719 16.4001 110.599 16.0667 110.359C15.2967 109.759 15.1468 108.649 15.7368 107.879L21.7068 100.089C22.2968 99.3088 23.4067 99.1688 24.1867 99.7588C24.9567 100.349 25.1068 101.459 24.5168 102.239L18.5468 110.029C18.1968 110.479 17.6668 110.719 17.1368 110.719Z" fill="#FF8B81"/>
<path d="M102.127 110.719C101.747 110.719 101.377 110.599 101.047 110.359C100.277 109.759 100.127 108.649 100.727 107.879L106.687 100.089C107.277 99.3186 108.387 99.1586 109.167 99.7586C109.937 100.349 110.087 101.459 109.497 102.239L103.527 110.029C103.177 110.479 102.657 110.719 102.127 110.719Z" fill="#FF8B81"/>
<path d="M109.087 110.719C108.7 110.719 108.34 110.599 108.007 110.359C107.237 109.759 107.087 108.649 107.687 107.879L113.647 100.089C114.247 99.3088 115.357 99.1688 116.127 99.7588C116.897 100.349 117.047 101.459 116.457 102.239L110.487 110.029C110.137 110.479 109.617 110.719 109.087 110.719Z" fill="#FF8B81"/>
</svg>
