<svg width="143" height="138" viewBox="0 0 143 138" fill="none" xmlns="http://www.w3.org/2000/svg">
<path d="M47.1812 21.5353C27.0012 15.6653 12.2312 -5.36469 2.69119 1.28531C-3.96881 5.92531 3.05123 31.9853 9.48123 45.2653C18.0612 63.0053 33.8312 73.0753 39.3112 72.9753C56.1912 69.9753 47.1812 21.5353 47.1812 21.5353Z" fill="#E66522"/>
<path d="M37.1315 58.2854C36.5781 58.6787 35.9281 58.9387 35.1814 59.0654C31.3114 59.7554 26.2514 57.0954 22.3214 52.8654C12.4114 42.1954 5.18144 22.7254 3.46144 9.29541C2.71144 3.37541 6.11144 2.39541 9.46144 4.54541C14.3914 7.69541 19.9714 11.6054 23.8014 14.2854C29.2314 18.0954 32.6514 20.4554 35.0214 21.8754C36.0414 22.4854 36.7814 23.4054 37.0814 24.4454C40.6914 37.1654 42.8015 54.2454 37.1315 58.2854Z" fill="#FFE8DB"/>
<path d="M27.391 48.0455C27.391 48.0455 25.2909 37.5655 22.6609 38.0655C20.0309 38.5755 19.3209 40.1655 19.3209 40.1655C19.3209 40.1655 20.2109 30.7255 18.2509 30.8155C16.2909 30.8955 15.4309 32.5855 15.4309 32.5855C15.4309 32.5855 15.671 23.4555 14.101 23.6055C12.531 23.7555 12.101 24.8655 12.101 24.8655C12.101 24.8655 12.5009 17.8155 11.8109 16.7855C11.1309 15.7655 9.21094 16.8555 9.21094 16.8555C9.21094 16.8555 10.901 12.0355 9.35095 9.35547C11.891 13.4055 14.771 14.3055 16.111 13.4655C14.441 14.7255 17.821 18.1255 22.241 19.1155C18.681 19.9955 22.441 22.6355 26.871 23.3555C21.781 25.6655 27.0809 27.9755 32.6609 29.6855C35.8909 30.6755 37.971 44.9455 35.491 49.8155C33.671 53.3755 27.391 48.0455 27.391 48.0455Z" fill="#F8D4C2"/>
<path d="M94.9509 21.5353C115.131 15.6653 129.901 -5.36469 139.451 1.28531C146.111 5.92531 139.091 31.9853 132.661 45.2653C124.071 63.0053 108.301 73.0753 102.821 72.9753C85.9409 69.9753 94.9509 21.5353 94.9509 21.5353Z" fill="#E66522"/>
<path d="M105.001 58.2854C105.561 58.6787 106.211 58.9387 106.951 59.0654C110.821 59.7554 115.881 57.0954 119.811 52.8654C129.721 42.1954 136.951 22.7254 138.671 9.29541C139.421 3.37541 136.021 2.39541 132.671 4.54541C127.741 7.69541 122.161 11.6054 118.331 14.2854C112.901 18.0954 109.481 20.4554 107.111 21.8754C106.091 22.4854 105.351 23.4054 105.061 24.4454C101.441 37.1654 99.3311 54.2454 105.001 58.2854Z" fill="#FFE8DB"/>
<path d="M114.741 48.0455C114.741 48.0455 116.841 37.5655 119.471 38.0655C122.101 38.5755 122.811 40.1655 122.811 40.1655C122.811 40.1655 121.921 30.7255 123.881 30.8155C125.841 30.8955 126.701 32.5855 126.701 32.5855C126.701 32.5855 126.461 23.4555 128.031 23.6055C129.601 23.7555 130.041 24.8655 130.041 24.8655C130.041 24.8655 129.631 17.8155 130.321 16.7855C131.011 15.7655 132.921 16.8555 132.921 16.8555C132.921 16.8555 131.241 12.0355 132.781 9.35547C130.251 13.4055 127.361 14.3055 126.021 13.4655C127.691 14.7255 124.311 18.1255 119.891 19.1155C123.451 19.9955 119.691 22.6355 115.261 23.3555C120.351 25.6655 115.051 27.9755 109.471 29.6855C106.241 30.6755 104.161 44.9455 106.651 49.8155C108.461 53.3755 114.741 48.0455 114.741 48.0455Z" fill="#F8D4C2"/>
<path d="M128.291 60.5251C122.261 43.9151 106.211 22.3551 92.021 20.8551C90.011 20.6451 80.5411 20.5352 71.0711 20.5352C61.5911 20.5352 52.1211 20.6451 50.1111 20.8551C35.9211 22.3551 19.8711 43.9151 13.8411 60.5251C-8.22888 121.275 46.9411 137.025 71.0711 137.025C95.1911 137.025 150.361 121.275 128.291 60.5251Z" fill="#FF8D39"/>
<path d="M36.7315 57.6151C37.9015 56.6551 44.1514 55.9151 49.5414 54.1651C55.4014 52.2751 57.9914 46.7751 59.8214 47.7151C63.0614 49.3851 58.8214 57.0251 51.4514 59.3551C44.3514 61.5951 33.6015 60.1951 36.7315 57.6151Z" fill="#FFC286"/>
<path d="M105.451 58.2653C104.341 57.2453 98.1313 56.1652 92.8513 54.1252C87.1013 51.9152 84.8112 46.2852 82.9412 47.1252C79.6012 48.6152 83.4312 56.4852 90.6612 59.2052C97.6212 61.8352 108.431 61.0153 105.451 58.2653Z" fill="#FFC286"/>
<path d="M71.0711 137.025C92.1711 137.025 137.011 124.975 133.161 81.3154C130.081 79.3754 127.041 77.4454 125.711 77.1354C117.471 75.2654 116.201 87.7754 102.251 90.6154C88.2912 93.4554 88.8611 88.3654 71.0711 88.3654C53.2711 88.3654 53.8512 93.4554 39.8812 90.6154C25.9312 87.7754 24.6712 75.2654 16.4212 77.1354C15.0912 77.4454 12.0511 79.3754 8.97114 81.3154C5.13114 124.975 49.9611 137.025 71.0711 137.025Z" fill="#FFE8DB"/>
<path d="M53.1608 103.145C53.1608 103.145 52.1308 122.435 71.1108 122.435C90.9108 122.435 88.9808 103.585 88.9808 103.585C83.1408 88.7753 58.9508 87.5953 53.1608 103.145Z" fill="#F8D4C2"/>
<path d="M57.1509 108.226C57.1509 117.806 60.141 120.096 71.111 120.096C82.081 120.096 85.0709 117.806 85.0709 108.226L71.0709 109.586L57.1509 108.226Z" fill="#9A282A"/>
<path d="M71.0308 114.135C65.4208 112.895 61.2208 113.655 58.5308 115.845C60.3008 119.105 64.0208 120.095 71.1108 120.095C78.1708 120.095 81.9008 119.115 83.6708 115.885C81.1408 113.645 77.1808 112.835 71.0308 114.135Z" fill="#FF5C68"/>
<path d="M71.0711 85.9756C57.2811 85.9756 48.4611 92.4456 52.0111 104.516C54.2511 112.096 63.6011 110.156 71.0711 110.386C78.5311 110.156 87.8811 112.096 90.1211 104.516C93.6711 92.4456 84.8511 85.9756 71.0711 85.9756Z" fill="#FFF9F1"/>
<path d="M71.0712 63.7754C65.4912 63.8254 58.4111 90.0654 58.4111 90.0654L83.8112 90.9254C83.8112 90.9254 76.6512 63.8254 71.0712 63.7754Z" fill="#FFA243"/>
<path d="M61.051 111.765C55.4409 111.765 51.851 107.045 50.751 102.235C50.581 101.475 51.061 100.715 51.821 100.545C52.571 100.375 53.331 100.845 53.511 101.605C54.321 105.135 56.821 109.175 61.461 108.925C69.381 108.475 70.701 108.225 70.751 108.215C71.491 108.055 72.2409 108.515 72.4209 109.255C72.6009 109.995 72.181 110.745 71.451 110.945C70.771 111.135 67.091 111.435 61.621 111.745C61.4277 111.759 61.2376 111.765 61.051 111.765Z" fill="#3B262B"/>
<path d="M81.091 111.765C80.8977 111.765 80.7076 111.759 80.521 111.745C75.041 111.435 71.371 111.145 70.681 110.945C69.931 110.735 69.491 109.955 69.711 109.205C69.921 108.455 70.711 108.015 71.451 108.225C71.471 108.225 72.831 108.485 80.671 108.925C85.261 109.205 87.8211 105.135 88.6211 101.605C88.8011 100.845 89.571 100.375 90.311 100.545C91.071 100.715 91.5511 101.475 91.3811 102.235C90.2811 107.045 86.691 111.765 81.091 111.765Z" fill="#3B262B"/>
<path d="M83.8108 90.9254C83.8408 94.9254 77.8908 95.7454 71.1608 102.735C65.5308 96.8054 58.3609 95.0554 58.3309 91.0554C58.2909 87.0554 62.4608 82.7854 70.8208 82.7454C79.1708 82.7054 83.7708 86.9254 83.8108 90.9254Z" fill="#3B262B"/>
<path d="M82.8707 93.3654C80.7607 91.7554 77.0607 90.9154 75.3707 92.5054C73.0207 94.7054 74.9307 98.0754 77.8507 96.9654C78.0573 96.8854 78.264 96.8121 78.4707 96.7454C80.4007 95.4554 81.9507 94.4654 82.8707 93.3654Z" fill="#22131A"/>
<path d="M59.6406 93.8254C60.4706 94.6754 61.6306 95.4954 62.9706 96.3854C63.6972 96.5588 64.4106 96.7721 65.1106 97.0254C68.0506 98.1054 69.9105 94.7254 67.5205 92.5454C65.7005 90.8754 61.6206 91.9754 59.6406 93.8254Z" fill="#22131A"/>
<path d="M59.9709 89.5155C59.6109 87.2655 70.8209 83.9355 71.9409 86.4655C72.4809 87.7155 69.4208 87.9655 66.4108 88.7355C63.2808 89.5355 60.1809 90.8055 59.9709 89.5155Z" fill="#FFFAFF"/>
<path d="M74.5209 87.1155C74.6509 85.1055 78.7509 85.4256 78.6809 87.3156C78.6109 89.1956 74.4509 88.3455 74.5209 87.1155Z" fill="#FFFAFF"/>
<path d="M71.2009 110.166C70.2809 110.146 69.5409 109.686 69.5509 109.146L69.751 95.2356C69.761 94.6856 70.5109 94.2556 71.4309 94.2756C72.3509 94.2956 73.1009 94.7456 73.0909 95.2956L72.881 109.206C72.871 109.746 72.1209 110.176 71.2009 110.166Z" fill="#3B262B"/>
<g style="mix-blend-mode:multiply" opacity="0.15">
<path d="M130.191 66.2954C138.571 114.865 92.3411 128.035 71.0711 128.035C49.7911 128.035 3.56105 114.865 11.941 66.2954C-4.66895 122.275 47.7211 137.025 71.0711 137.025C94.4111 137.025 146.801 122.275 130.191 66.2954Z" fill="#ED8954"/>
</g>
<path d="M50.7212 85.8651C50.6679 85.8651 50.6145 85.8618 50.5612 85.8551C49.5912 85.7651 48.8712 84.9051 48.9612 83.9351C49.1212 82.0951 48.6012 80.3051 47.4712 78.8951C46.3612 77.5151 44.8012 76.6651 43.0912 76.5051C41.3812 76.3551 39.6812 76.9051 38.3412 78.0751C36.9912 79.2651 36.1512 80.9251 35.9812 82.7751C35.8912 83.7451 35.0712 84.4551 34.0612 84.3751C33.0912 84.2851 32.3712 83.4251 32.4612 82.4551C32.7112 79.6951 33.9711 77.1951 36.0211 75.4151C38.0911 73.6051 40.7112 72.7451 43.4012 72.9951C46.0912 73.2351 48.5112 74.5451 50.2312 76.6951C51.9312 78.8151 52.7312 81.4951 52.4812 84.2551C52.3912 85.1751 51.6212 85.8651 50.7212 85.8651Z" fill="#3B262B"/>
<path d="M91.3811 85.6449C90.4511 85.6449 89.6711 84.925 89.6111 83.985C89.2611 78.255 93.4811 73.325 99.0111 72.985C101.721 72.825 104.291 73.7549 106.311 75.6149C108.311 77.4649 109.501 79.995 109.671 82.755C109.731 83.735 108.991 84.5649 108.021 84.6249C107.051 84.6649 106.211 83.945 106.151 82.975C106.031 81.125 105.241 79.4349 103.921 78.2149C102.621 77.0149 100.961 76.405 99.2211 76.515C95.6411 76.725 92.9111 79.985 93.1411 83.765C93.2011 84.745 92.4611 85.575 91.4811 85.635C91.4478 85.6416 91.4145 85.6449 91.3811 85.6449Z" fill="#3B262B"/>
<path d="M113.931 48.1353C113.931 50.9753 111.621 53.2753 108.781 53.2753C105.951 53.2753 103.641 50.9753 103.641 48.1353C103.641 45.2953 108.781 36.4854 108.781 36.4854C108.781 36.4854 113.931 45.2953 113.931 48.1353Z" fill="#9DD2ED"/>
<path d="M110.741 48.5652C109.931 48.7052 109.451 47.4652 109.171 45.8652C108.901 44.2752 108.931 42.9352 109.741 42.7952C110.551 42.6552 111.371 43.8652 111.641 45.4652C111.921 47.0552 111.551 48.4252 110.741 48.5652Z" fill="white"/>
</svg>
