<svg width="126" height="149" viewBox="0 0 126 149" fill="none" xmlns="http://www.w3.org/2000/svg">
<path d="M44.4062 38.3985C29.1262 23.9585 25.5962 -1.49148 14.0662 0.0685197C6.02624 1.14852 0.366249 27.5385 0.0162488 42.2885C-0.443751 61.9885 8.97623 78.1485 13.9062 80.5685C30.2862 85.6085 44.4062 38.3985 44.4062 38.3985Z" fill="#E66522"/>
<path d="M18.6665 66.4984C17.9998 66.5984 17.3065 66.5351 16.5865 66.3084C12.8165 65.1584 9.53646 60.4784 7.97646 54.9184C4.02646 40.8984 6.48646 20.2784 11.0965 7.54842C13.1265 1.93842 16.5965 2.61842 18.6065 6.05842C21.5565 11.1084 24.7265 17.1384 26.9065 21.2784C30.0065 27.1484 31.9665 30.8084 33.4265 33.1484C34.0565 34.1584 34.2965 35.3084 34.0765 36.3784C31.4865 49.3484 25.5665 65.4984 18.6665 66.4984Z" fill="#FFE8DB"/>
<path d="M14.6862 52.9486C14.6862 52.9486 17.6062 42.6586 15.0362 41.9086C12.4662 41.1586 11.0962 42.2486 11.0962 42.2486C11.0962 42.2486 16.2062 34.2586 14.4262 33.4386C12.6362 32.6186 11.1062 33.7286 11.1062 33.7286C11.1062 33.7286 15.4962 25.7186 14.0262 25.1286C12.5662 24.5486 11.6662 25.3386 11.6662 25.3386C11.6662 25.3386 15.2462 19.2586 15.1062 18.0286C14.9662 16.7986 12.7562 16.8986 12.7562 16.8986C12.7562 16.8986 16.4562 13.3786 16.3062 10.2886C16.7162 15.0486 18.8762 17.1686 20.4462 17.0286C18.3862 17.3886 19.8362 21.9586 23.3162 24.8586C19.7462 24.0086 21.8862 28.0886 25.4962 30.7486C19.9162 30.4786 23.5762 34.9486 27.7562 39.0286C30.1862 41.3786 25.5162 55.0286 21.0762 58.2186C17.8362 60.5486 14.6862 52.9486 14.6862 52.9486Z" fill="#F8D4C2"/>
<path d="M80.8462 38.3985C96.1162 23.9585 99.6462 -1.49148 111.176 0.0685197C119.216 1.14852 124.876 27.5385 125.226 42.2885C125.686 61.9885 116.266 78.1485 111.336 80.5685C94.9562 85.6085 80.8462 38.3985 80.8462 38.3985Z" fill="#E66522"/>
<path d="M106.576 66.4984C107.243 66.5984 107.94 66.5351 108.666 66.3084C112.426 65.1584 115.706 60.4784 117.276 54.9184C121.216 40.8984 118.756 20.2784 114.146 7.54842C112.116 1.93842 108.646 2.61842 106.636 6.05842C103.686 11.1084 100.516 17.1384 98.3363 21.2784C95.2363 27.1484 93.2763 30.8084 91.8163 33.1484C91.1863 34.1584 90.9463 35.3084 91.1663 36.3784C93.7563 49.3484 99.6763 65.4984 106.576 66.4984Z" fill="#FFE8DB"/>
<path d="M110.556 52.9486C110.556 52.9486 107.636 42.6586 110.206 41.9086C112.776 41.1586 114.146 42.2486 114.146 42.2486C114.146 42.2486 109.036 34.2586 110.816 33.4386C112.606 32.6186 114.136 33.7286 114.136 33.7286C114.136 33.7286 109.756 25.7186 111.216 25.1286C112.676 24.5486 113.576 25.3386 113.576 25.3386C113.576 25.3386 109.996 19.2586 110.136 18.0286C110.276 16.7986 112.486 16.8986 112.486 16.8986C112.486 16.8986 108.786 13.3786 108.936 10.2886C108.526 15.0486 106.366 17.1686 104.796 17.0286C106.856 17.3886 105.406 21.9586 101.926 24.8586C105.496 24.0086 103.356 28.0886 99.7463 30.7486C105.326 30.4786 101.666 34.9486 97.4863 39.0286C95.0563 41.3786 99.7263 55.0286 104.166 58.2186C107.406 60.5486 110.556 52.9486 110.556 52.9486Z" fill="#F8D4C2"/>
<path d="M119.846 71.6785C113.816 55.0685 97.7663 33.5085 83.5763 32.0085C81.5663 31.7985 72.0963 31.6885 62.6263 31.6885C53.1463 31.6885 43.6763 31.7985 41.6663 32.0085C27.4763 33.5085 11.4263 55.0685 5.3963 71.6785C-16.6737 132.428 38.4963 148.178 62.6263 148.178C86.7463 148.178 141.916 132.428 119.846 71.6785Z" fill="#FF8D39"/>
<path d="M62.6263 148.179C83.7263 148.179 128.566 136.129 124.716 92.4687C121.636 90.5287 118.596 88.5987 117.266 88.2887C109.016 86.4187 107.756 98.9287 93.8063 101.769C79.8463 104.599 80.4163 99.5187 62.6263 99.5187C44.8263 99.5187 45.3963 104.599 31.4363 101.769C17.4863 98.9287 16.2263 86.4187 7.9763 88.2887C6.6463 88.5987 3.60631 90.5287 0.526314 92.4687C-3.31369 136.129 41.5163 148.179 62.6263 148.179Z" fill="#FFE8DB"/>
<path d="M44.6562 115.069C44.6562 115.069 47.1263 138.169 62.2663 138.299C78.8963 138.439 80.4763 115.509 80.4763 115.509C74.7063 95.1388 50.5262 93.6188 44.6562 115.069Z" fill="#F8D4C2"/>
<path d="M62.6263 97.1289C48.8363 97.1289 40.0163 102.439 43.5663 112.339C45.8063 118.559 55.1563 116.959 62.6263 117.159C70.0863 116.959 79.4363 118.559 81.6763 112.339C85.2263 102.439 76.4063 97.1289 62.6263 97.1289Z" fill="#FFF9F1"/>
<path d="M62.6263 74.9287C57.0463 74.9787 49.9663 101.219 49.9663 101.219L75.3663 102.079C75.3663 102.079 68.1963 74.9787 62.6263 74.9287Z" fill="#FFA243"/>
<path d="M75.3662 102.079C75.3962 106.079 69.4462 106.899 62.7162 113.889C57.0862 107.959 49.9161 106.209 49.8761 102.209C49.8461 98.2087 54.0162 93.9387 62.3662 93.8987C70.7262 93.8587 75.3262 98.0787 75.3662 102.079Z" fill="#3B262B"/>
<path d="M74.4263 104.519C72.3163 102.909 68.6163 102.069 66.9263 103.659C64.5763 105.859 66.4863 109.229 69.4063 108.119C69.613 108.039 69.8197 107.965 70.0263 107.899C71.9563 106.609 73.5063 105.619 74.4263 104.519Z" fill="#22131A"/>
<path d="M51.1963 104.979C52.0163 105.829 53.1863 106.649 54.5263 107.539C55.2463 107.712 55.9596 107.925 56.6663 108.179C59.6063 109.259 61.4663 105.879 59.0763 103.699C57.2563 102.029 53.1763 103.129 51.1963 104.979Z" fill="#22131A"/>
<path d="M51.5261 100.669C51.1661 98.4188 62.3761 95.0888 63.4961 97.6188C64.0361 98.8688 60.9761 99.1188 57.9661 99.8888C54.8361 100.689 51.7361 101.959 51.5261 100.669Z" fill="#FFFAFF"/>
<path d="M66.0761 98.2689C66.2061 96.2589 70.3061 96.5789 70.2361 98.4689C70.1661 100.349 66.0061 99.4989 66.0761 98.2689Z" fill="#FFFAFF"/>
<path d="M62.7561 121.319C61.8361 121.299 61.0961 120.839 61.1061 120.299L61.3061 106.389C61.3161 105.839 62.0661 105.409 62.9861 105.429C63.9061 105.449 64.6461 105.899 64.6461 106.449L64.4361 120.359C64.4261 120.899 63.6761 121.329 62.7561 121.319Z" fill="#3B262B"/>
<path d="M49.0562 117.359C49.0562 126.949 55.1261 134.719 62.6261 134.719C70.1161 134.719 76.1862 126.949 76.1862 117.359H49.0562Z" fill="#9A282A"/>
<path d="M62.6263 117.779C59.6263 117.779 53.7364 116.869 49.7764 117.349C50.6964 119.329 52.5263 122.309 53.8163 122.309C55.2363 122.309 56.4663 120.429 57.1563 119.289C57.8263 119.839 58.5763 120.749 59.5063 120.749C60.6663 120.749 61.6963 120.239 62.4063 119.439C63.1263 120.239 64.1564 120.749 65.3064 120.749C66.2464 120.749 67.1964 119.839 67.8664 119.289C68.5564 120.429 69.7864 122.309 71.2064 122.309C72.4564 122.309 74.3564 119.369 75.3664 117.329C71.4064 116.889 65.5963 117.779 62.6263 117.779Z" fill="white"/>
<path d="M62.6262 134.719C66.5862 134.719 70.1462 132.529 72.6262 129.049C71.1062 124.989 68.1562 123.039 62.6262 124.749C57.5362 123.119 54.1362 124.989 52.6162 129.049C55.0962 132.529 58.6562 134.719 62.6262 134.719Z" fill="#FF5C68"/>
<path d="M52.5962 119.379C46.9962 119.379 43.4062 114.669 42.3062 109.859C42.1362 109.099 42.6162 108.339 43.3762 108.159C44.1362 107.989 44.8862 108.469 45.0662 109.229C45.8762 112.759 48.4462 116.789 53.0162 116.539C60.9362 116.099 62.2462 115.839 62.2962 115.829C63.0562 115.679 63.7962 116.139 63.9762 116.879C64.1562 117.619 63.7362 118.359 63.0062 118.569C62.3162 118.759 58.6462 119.059 53.1662 119.369C52.9795 119.375 52.7895 119.379 52.5962 119.379Z" fill="#3B262B"/>
<path d="M72.646 119.379C72.4527 119.379 72.2627 119.375 72.076 119.369C66.596 119.059 62.926 118.759 62.236 118.569C61.486 118.359 61.046 117.579 61.256 116.829C61.476 116.079 62.246 115.639 63.006 115.849C63.016 115.849 64.386 116.109 72.226 116.539C76.796 116.799 79.376 112.759 80.176 109.229C80.346 108.469 81.106 107.989 81.866 108.159C82.626 108.339 83.1061 109.099 82.9361 109.859C81.8361 114.669 78.246 119.379 72.646 119.379Z" fill="#3B262B"/>
<path d="M27.5161 71.5084C27.3561 68.0984 40.5761 65.0884 41.5761 70.0684C42.5761 75.0484 27.6261 73.9484 27.5161 71.5084Z" fill="#FFC286"/>
<path d="M98.5763 71.5084C98.7363 68.0984 85.5163 65.0884 84.5163 70.0684C83.5163 75.0484 98.4663 73.9484 98.5763 71.5084Z" fill="#FFC286"/>
<g style="mix-blend-mode:multiply" opacity="0.15">
<path d="M121.746 77.4487C130.126 126.019 83.8962 139.189 62.6262 139.189C41.3462 139.189 -4.88377 126.019 3.49623 77.4487C-13.1138 133.429 39.2762 148.179 62.6262 148.179C85.9662 148.179 138.356 133.429 121.746 77.4487Z" fill="#ED8954"/>
</g>
<path d="M42.2764 95.5586C42.2231 95.5586 42.1697 95.5553 42.1164 95.5486C41.1464 95.4586 40.4264 94.5986 40.5164 93.6286C40.8564 89.8586 38.2164 86.5186 34.6364 86.1986C31.0764 85.8786 27.8764 88.6886 27.5364 92.4586C27.4464 93.4386 26.6064 94.1586 25.6164 94.0586C24.6464 93.9786 23.9264 93.1186 24.0164 92.1486C24.5264 86.4286 29.4364 82.1786 34.9564 82.6786C40.4764 83.1786 44.5464 88.2286 44.0364 93.9486C43.9564 94.8686 43.1764 95.5586 42.2764 95.5586Z" fill="#3B262B"/>
<path d="M82.9263 95.3388C82.0063 95.3388 81.2262 94.6088 81.1662 93.6788C80.9962 90.9188 81.8762 88.2588 83.6362 86.1788C85.4062 84.0888 87.8762 82.8388 90.5662 82.6788C93.2462 82.5088 95.8563 83.4488 97.8663 85.3088C99.8663 87.1588 101.056 89.6888 101.226 92.4488C101.286 93.4288 100.546 94.2588 99.5762 94.3188C98.5962 94.3688 97.7663 93.6388 97.7063 92.6688C97.5863 90.8188 96.7962 89.1288 95.4762 87.9088C94.1662 86.6988 92.5063 86.0988 90.7763 86.1988C89.0563 86.3088 87.4762 87.1088 86.3262 88.4688C85.1662 89.8388 84.5862 91.6188 84.6962 93.4588C84.7562 94.4388 84.0162 95.2688 83.0462 95.3288C83.0062 95.3355 82.9663 95.3388 82.9263 95.3388Z" fill="#3B262B"/>
</svg>
