<svg width="126" height="149" viewBox="0 0 126 149" fill="none" xmlns="http://www.w3.org/2000/svg">
<path d="M44.3963 38.3985C29.1263 23.9585 25.5963 -1.49148 14.0663 0.0685197C6.01625 1.14852 0.366249 27.5385 0.0162488 42.2885C-0.443751 61.9885 8.97625 78.1485 13.9062 80.5685C30.2862 85.6085 44.3963 38.3985 44.3963 38.3985Z" fill="#E66522"/>
<path d="M18.6663 66.4984C17.993 66.5984 17.2963 66.5351 16.5763 66.3084C12.8163 65.1584 9.5363 60.4784 7.9663 54.9184C4.0263 40.8984 6.48629 20.2784 11.0963 7.54841C13.1263 1.93841 16.5963 2.61842 18.6063 6.05842C21.5463 11.1084 24.7263 17.1384 26.9063 21.2784C29.9963 27.1484 31.9563 30.8084 33.4163 33.1484C34.0463 34.1584 34.2863 35.3084 34.0763 36.3784C31.4863 49.3484 25.5663 65.4984 18.6663 66.4984Z" fill="#FFE8DB"/>
<path d="M14.6862 52.9486C14.6862 52.9486 17.5962 42.6586 15.0262 41.9086C12.4562 41.1586 11.0962 42.2486 11.0962 42.2486C11.0962 42.2486 16.2062 34.2586 14.4262 33.4386C12.6362 32.6186 11.0962 33.7286 11.0962 33.7286C11.0962 33.7286 15.4862 25.7186 14.0262 25.1286C12.5662 24.5486 11.6662 25.3386 11.6662 25.3386C11.6662 25.3386 15.2462 19.2586 15.1062 18.0286C14.9562 16.7986 12.7562 16.8986 12.7562 16.8986C12.7562 16.8986 16.4562 13.3786 16.3062 10.2886C16.7162 15.0486 18.8662 17.1686 20.4462 17.0286C18.3862 17.3886 19.8362 21.9586 23.3162 24.8586C19.7462 24.0086 21.8862 28.0886 25.4962 30.7486C19.9162 30.4786 23.5662 34.9486 27.7562 39.0286C30.1762 41.3786 25.5062 55.0286 21.0762 58.2186C17.8362 60.5486 14.6862 52.9486 14.6862 52.9486Z" fill="#F8D4C2"/>
<path d="M80.8364 38.3985C96.1064 23.9585 99.6464 -1.49148 111.176 0.0685197C119.216 1.14852 124.876 27.5385 125.226 42.2885C125.686 61.9885 116.256 78.1485 111.336 80.5685C94.9564 85.6085 80.8364 38.3985 80.8364 38.3985Z" fill="#E66522"/>
<path d="M106.566 66.4984C107.24 66.5984 107.936 66.5351 108.656 66.3084C112.416 65.1584 115.706 60.4784 117.266 54.9184C121.206 40.8984 118.746 20.2784 114.136 7.54841C112.106 1.93841 108.636 2.61842 106.636 6.05842C103.686 11.1084 100.516 17.1384 98.3263 21.2784C95.2363 27.1484 93.2763 30.8084 91.8163 33.1484C91.1863 34.1584 90.9463 35.3084 91.1663 36.3784C93.7563 49.3484 99.6763 65.4984 106.566 66.4984Z" fill="#FFE8DB"/>
<path d="M110.546 52.9486C110.546 52.9486 107.636 42.6586 110.206 41.9086C112.776 41.1586 114.136 42.2486 114.136 42.2486C114.136 42.2486 109.036 34.2586 110.816 33.4386C112.596 32.6186 114.136 33.7286 114.136 33.7286C114.136 33.7286 109.746 25.7186 111.216 25.1286C112.676 24.5486 113.576 25.3386 113.576 25.3386C113.576 25.3386 109.996 19.2586 110.136 18.0286C110.276 16.7986 112.486 16.8986 112.486 16.8986C112.486 16.8986 108.786 13.3786 108.936 10.2886C108.526 15.0486 106.366 17.1686 104.796 17.0286C106.856 17.3886 105.406 21.9586 101.916 24.8586C105.486 24.0086 103.346 28.0886 99.7362 30.7486C105.316 30.4786 101.666 34.9486 97.4762 39.0286C95.0562 41.3786 99.7262 55.0286 104.166 58.2186C107.396 60.5486 110.546 52.9486 110.546 52.9486Z" fill="#F8D4C2"/>
<path d="M119.846 71.6785C113.806 55.0685 97.7663 33.5085 83.5763 32.0085C81.5663 31.7985 72.0963 31.6885 62.6163 31.6885C53.1463 31.6885 43.6763 31.7985 41.6663 32.0085C27.4763 33.5085 11.4263 55.0685 5.39634 71.6785C-16.6737 132.428 38.4963 148.178 62.6163 148.178C86.7463 148.178 141.906 132.428 119.846 71.6785Z" fill="#FF8D39"/>
<path style="mix-blend-mode:multiply" opacity="0.67" d="M19.5363 75.4284C25.7363 82.1384 42.5863 76.5684 62.4863 76.5684C62.5397 76.5684 62.593 76.5684 62.6463 76.5684C62.6663 69.2484 62.6163 63.7784 62.6863 54.6284C42.6963 55.1984 22.1163 60.4984 17.9163 60.3884C16.6063 65.0584 16.1563 71.7784 19.5363 75.4284ZM17.9163 60.3884C22.1163 60.4984 42.6963 55.1984 62.6863 54.6284C62.7463 47.2084 62.6763 40.1884 62.6163 33.8384C47.7063 33.8384 34.4663 39.0584 26.1463 47.1184C22.1563 50.9784 19.2963 55.4884 17.9163 60.3884ZM62.6463 76.5684C82.5063 76.5984 99.4563 82.1284 105.696 75.4084C109.086 71.7484 108.636 65.0584 107.316 60.3784C98.9963 60.7184 81.5263 54.0984 62.6863 54.6284C62.6163 63.7784 62.6663 69.2484 62.6463 76.5684ZM62.6863 54.6284C81.5263 54.0984 98.9963 60.7184 107.316 60.3784C105.936 55.4784 103.076 50.9684 99.0963 47.1184C90.7663 39.0584 77.5263 33.8384 62.6163 33.8384C62.6763 40.1884 62.7463 47.2084 62.6863 54.6284Z" fill="url(#paint0_linear_139_420)"/>
<path d="M40.9061 90.2783C40.5561 94.2383 37.1861 97.1683 33.3861 96.8283C29.5961 96.4883 26.8061 92.9983 27.1561 89.0383C27.5161 85.0783 30.8861 82.1483 34.6761 82.4883C38.4761 82.8283 41.2661 86.3183 40.9061 90.2783Z" fill="#3B262B"/>
<path d="M36.6759 85.4684C36.6059 86.3084 35.3059 86.6084 33.8559 86.4784C32.4059 86.3484 31.3559 85.8384 31.4359 84.9884C31.5059 84.1484 32.7459 83.5584 34.1959 83.6884C35.6459 83.8284 36.7559 84.6184 36.6759 85.4684Z" fill="#FFFAFF"/>
<path d="M84.3162 90.0783C84.5562 94.0483 87.8362 97.0784 91.6462 96.8384C95.4462 96.6084 98.3362 93.2083 98.0962 89.2383C97.8462 85.2683 94.5662 82.2383 90.7662 82.4683C86.9562 82.6983 84.0762 86.1083 84.3162 90.0783Z" fill="#3B262B"/>
<path d="M88.3561 85.3884C88.4161 86.2384 89.7061 86.5684 91.1561 86.4784C92.6061 86.3884 93.6661 85.9184 93.6161 85.0684C93.5661 84.2184 92.3461 83.5984 90.8961 83.6884C89.4461 83.7784 88.3061 84.5384 88.3561 85.3884Z" fill="#FFFAFF"/>
<path d="M62.6165 148.179C83.7165 148.179 128.556 136.129 124.716 92.4687C121.626 90.5287 118.596 88.5987 117.256 88.2887C109.016 86.4187 107.756 98.9287 93.8065 101.769C79.8365 104.609 80.4165 99.5187 62.6165 99.5187C44.8165 99.5187 45.3965 104.609 31.4265 101.769C17.4865 98.9287 16.2165 86.4187 7.97646 88.2887C6.64646 88.5987 3.60646 90.5287 0.526462 92.4687C-3.32354 136.129 41.5165 148.179 62.6165 148.179Z" fill="#FFE8DB"/>
<path d="M44.7065 114.299C44.7065 114.299 47.2565 131.079 62.3965 131.219C79.0265 131.379 80.5266 114.739 80.5266 114.739C74.6966 99.9286 50.5065 98.7486 44.7065 114.299Z" fill="#F8D4C2"/>
<path d="M62.6163 97.1289C48.8363 97.1289 40.0163 107.129 43.5663 119.199C45.7963 126.789 55.1563 116.939 62.6163 117.179C70.0763 116.939 79.4363 126.789 81.6663 119.199C85.2263 107.129 76.4063 97.1289 62.6163 97.1289Z" fill="#FFF9F1"/>
<path d="M62.6163 74.9287C57.0363 74.9787 49.9663 101.219 49.9663 101.219L75.3563 102.079C75.3563 102.079 68.1963 74.9787 62.6163 74.9287Z" fill="#FFA243"/>
<path d="M49.2766 126.169C49.1699 126.169 49.0632 126.155 48.9565 126.129C48.1965 125.959 47.7266 125.199 47.8966 124.439C48.9666 119.749 60.0465 116.589 62.2565 115.999C63.0065 115.789 63.7865 116.249 63.9865 117.009C64.1865 117.759 63.7365 118.529 62.9765 118.729C57.4065 120.209 51.1065 123.049 50.6565 125.069C50.5065 125.719 49.9166 126.169 49.2766 126.169Z" fill="#3B262B"/>
<path d="M75.9665 126.169C75.3165 126.169 74.7365 125.719 74.5865 125.069C74.0765 122.839 66.9265 119.969 62.2565 118.729C61.5065 118.529 61.0565 117.759 61.2565 117.009C61.4565 116.249 62.2265 115.789 62.9765 115.999C65.1965 116.589 76.2665 119.749 77.3465 124.439C77.5165 125.199 77.0365 125.959 76.2765 126.129C76.1699 126.155 76.0665 126.169 75.9665 126.169Z" fill="#3B262B"/>
<path d="M75.3561 102.079C75.3961 106.079 69.4361 106.899 62.7161 113.889C57.0761 107.959 49.9061 106.209 49.8761 102.209C49.8461 98.2087 54.0161 93.9387 62.3661 93.8987C70.7161 93.8587 75.3261 98.0787 75.3561 102.079Z" fill="#3B262B"/>
<path d="M74.4263 104.519C72.3163 102.909 68.6063 102.069 66.9263 103.659C64.5763 105.859 66.4863 109.229 69.4063 108.119C69.613 108.039 69.8197 107.965 70.0263 107.899C71.9563 106.599 73.5063 105.619 74.4263 104.519Z" fill="#22131A"/>
<path d="M51.1963 104.979C52.0163 105.829 53.1763 106.649 54.5163 107.539C55.2429 107.712 55.9596 107.925 56.6663 108.179C59.6063 109.259 61.4563 105.879 59.0763 103.699C57.2463 102.029 53.1663 103.129 51.1963 104.979Z" fill="#22131A"/>
<path d="M51.526 100.669C51.156 98.4188 62.376 95.0888 63.486 97.6188C64.036 98.8688 60.966 99.1188 57.966 99.8888C54.836 100.689 51.736 101.959 51.526 100.669Z" fill="#FFFAFF"/>
<path d="M66.0763 98.2689C66.2063 96.2589 70.3063 96.5789 70.2363 98.4689C70.1663 100.349 65.9963 99.4989 66.0763 98.2689Z" fill="#FFFAFF"/>
<path d="M62.8161 117.369C61.8961 117.349 61.1561 117.009 61.1661 116.599L61.3061 106.139C61.3161 105.729 62.0661 105.409 62.9861 105.429C63.9061 105.449 64.6461 105.789 64.6461 106.199L64.4961 116.659C64.4961 117.069 63.7361 117.389 62.8161 117.369Z" fill="#3B262B"/>
<path d="M29.4262 70.7585C31.0762 67.7685 50.2862 76.5885 48.9062 81.6285C47.5262 86.6685 28.2562 72.8985 29.4262 70.7585Z" fill="#FFC286"/>
<path d="M95.806 70.7585C94.166 67.7685 74.956 76.5885 76.336 81.6285C77.716 86.6685 96.986 72.8985 95.806 70.7585Z" fill="#FFC286"/>
<g style="mix-blend-mode:multiply" opacity="0.15">
<path d="M121.746 77.4487C130.126 126.019 83.8862 139.189 62.6162 139.189C41.3462 139.189 -4.88375 126.019 3.49625 77.4487C-13.1138 133.429 39.2762 148.179 62.6162 148.179C85.9662 148.179 138.356 133.429 121.746 77.4487Z" fill="#ED8954"/>
</g>
<defs>
<linearGradient id="paint0_linear_139_420" x1="20.2593" y1="73.0554" x2="62.6882" y2="52.6072" gradientUnits="userSpaceOnUse">
<stop stop-color="white"/>
<stop offset="1" stop-color="#FF9D8D"/>
</linearGradient>
</defs>
</svg>
