<svg width="155" height="149" viewBox="0 0 155 149" fill="none" xmlns="http://www.w3.org/2000/svg">
<path d="M44.3969 38.3985C29.1269 23.9585 25.5969 -1.49148 14.0569 0.0685197C6.01693 1.14852 0.356933 27.5385 0.0169328 42.2885C-0.453067 61.9885 8.97693 78.1485 13.8969 80.5685C30.2869 85.6085 44.3969 38.3985 44.3969 38.3985Z" fill="#E66522"/>
<path d="M18.6668 66.4984C17.9935 66.5984 17.2968 66.5351 16.5768 66.3084C12.8168 65.1584 9.52679 60.4784 7.96679 54.9184C4.02679 40.8984 6.48679 20.2784 11.0968 7.54841C13.1268 1.93841 16.5968 2.61842 18.6068 6.05842C21.5468 11.1084 24.7268 17.1384 26.9068 21.2784C29.9968 27.1484 31.9568 30.8084 33.4168 33.1484C34.0468 34.1584 34.2868 35.3084 34.0768 36.3784C31.4768 49.3484 25.5568 65.4984 18.6668 66.4984Z" fill="#FFE8DB"/>
<path d="M14.6872 52.9486C14.6872 52.9486 17.5972 42.6586 15.0272 41.9086C12.4572 41.1586 11.0972 42.2486 11.0972 42.2486C11.0972 42.2486 16.2072 34.2586 14.4172 33.4386C12.6372 32.6186 11.0972 33.7286 11.0972 33.7286C11.0972 33.7286 15.4872 25.7186 14.0272 25.1286C12.5572 24.5486 11.6672 25.3386 11.6672 25.3386C11.6672 25.3386 15.2472 19.2586 15.0972 18.0286C14.9572 16.7986 12.7572 16.8986 12.7572 16.8986C12.7572 16.8986 16.4572 13.3786 16.2972 10.2886C16.7072 15.0486 18.8672 17.1686 20.4372 17.0286C18.3872 17.3886 19.8372 21.9586 23.3172 24.8586C19.7472 24.0086 21.8872 28.0886 25.4972 30.7486C19.9172 30.4786 23.5672 34.9486 27.7572 39.0286C30.1772 41.3786 25.5072 55.0286 21.0672 58.2186C17.8372 60.5486 14.6872 52.9486 14.6872 52.9486Z" fill="#F8D4C2"/>
<path d="M80.8369 38.3985C96.1069 23.9585 99.6369 -1.49148 111.177 0.0685197C119.217 1.14852 124.877 27.5385 125.217 42.2885C125.687 61.9885 116.257 78.1485 111.337 80.5685C94.9469 85.6085 80.8369 38.3985 80.8369 38.3985Z" fill="#E66522"/>
<path d="M106.567 66.4984C107.24 66.5984 107.937 66.5351 108.657 66.3084C112.417 65.1584 115.707 60.4784 117.267 54.9184C121.207 40.8984 118.747 20.2784 114.137 7.54841C112.107 1.93841 108.637 2.61842 106.627 6.05842C103.687 11.1084 100.507 17.1384 98.3268 21.2784C95.2368 27.1484 93.2768 30.8084 91.8168 33.1484C91.1868 34.1584 90.9468 35.3084 91.1568 36.3784C93.7568 49.3484 99.6768 65.4984 106.567 66.4984Z" fill="#FFE8DB"/>
<path d="M110.547 52.9486C110.547 52.9486 107.637 42.6586 110.207 41.9086C112.777 41.1586 114.137 42.2486 114.137 42.2486C114.137 42.2486 109.027 34.2586 110.817 33.4386C112.597 32.6186 114.137 33.7286 114.137 33.7286C114.137 33.7286 109.747 25.7186 111.207 25.1286C112.677 24.5486 113.567 25.3386 113.567 25.3386C113.567 25.3386 109.987 19.2586 110.137 18.0286C110.277 16.7986 112.477 16.8986 112.477 16.8986C112.477 16.8986 108.777 13.3786 108.937 10.2886C108.527 15.0486 106.367 17.1686 104.797 17.0286C106.847 17.3886 105.397 21.9586 101.917 24.8586C105.487 24.0086 103.347 28.0886 99.7367 30.7486C105.317 30.4786 101.667 34.9486 97.4767 39.0286C95.0567 41.3786 99.7267 55.0286 104.167 58.2186C107.397 60.5486 110.547 52.9486 110.547 52.9486Z" fill="#F8D4C2"/>
<path d="M119.837 71.6785C113.807 55.0685 97.767 33.5085 83.567 32.0085C81.567 31.7985 72.087 31.6885 62.617 31.6885C53.147 31.6885 43.667 31.7985 41.667 32.0085C27.467 33.5085 11.427 55.0685 5.39699 71.6785C-16.673 132.428 38.487 148.178 62.617 148.178C86.747 148.178 141.907 132.428 119.837 71.6785Z" fill="#FF8D39"/>
<path d="M62.617 148.179C83.717 148.179 128.557 136.129 124.707 92.4687C121.627 90.5287 118.587 88.5987 117.257 88.2887C109.017 86.4187 107.757 98.9287 93.8069 101.769C79.8369 104.609 80.417 99.5187 62.617 99.5187C44.817 99.5187 45.397 104.609 31.427 101.769C17.477 98.9287 16.217 86.4187 7.97695 88.2887C6.64695 88.5987 3.60695 90.5287 0.526951 92.4687C-3.32305 136.129 41.517 148.179 62.617 148.179Z" fill="#FFE8DB"/>
<path d="M44.6572 115.069C44.6572 115.069 47.1172 134.639 62.2572 134.759C78.8872 134.899 80.4772 115.509 80.4772 115.509C74.7072 95.1388 50.5272 93.6188 44.6572 115.069Z" fill="#F8D4C2"/>
<path d="M62.6172 97.1289C48.8372 97.1289 40.0072 110.589 43.5672 122.519C45.7972 130.009 55.1572 117.129 62.6172 117.369C70.0772 117.129 79.4372 130.009 81.6672 122.519C85.2272 110.589 76.3972 97.1289 62.6172 97.1289Z" fill="#FFF9F1"/>
<path d="M72.9773 121.939C70.6673 120.629 68.1773 119.689 65.8773 118.369H59.2573C55.9073 119.839 52.7873 121.859 49.7173 123.879C51.4873 131.069 56.5373 129.239 62.5673 129.239C68.6973 129.239 73.8173 130.899 75.4973 123.519C74.6273 122.939 73.7573 122.379 72.9773 121.939Z" fill="#9A282A"/>
<path d="M62.567 125.129C57.847 123.559 54.607 125.139 52.937 128.719C55.387 129.959 58.777 129.239 62.567 129.239C66.337 129.239 69.717 129.859 72.157 128.629C70.537 125.099 67.657 123.499 62.567 125.129Z" fill="#FF5C68"/>
<path d="M62.6173 74.9287C57.0373 74.9787 49.9673 101.219 49.9673 101.219L75.3573 102.079C75.3573 102.079 68.1973 74.9787 62.6173 74.9287Z" fill="#FFA243"/>
<path d="M75.3571 102.079C75.3871 106.079 69.4371 106.899 62.7071 113.889C57.0771 107.959 49.9071 106.209 49.8771 102.209C49.8471 98.2087 54.0171 93.9387 62.3671 93.8987C70.7171 93.8587 75.3271 98.0787 75.3571 102.079Z" fill="#3B262B"/>
<path d="M74.4272 104.519C72.3172 102.909 68.6072 102.069 66.9172 103.659C64.5672 105.859 66.4772 109.229 69.4072 108.119C69.6072 108.039 69.8139 107.965 70.0272 107.899C71.9572 106.599 73.5072 105.619 74.4272 104.519Z" fill="#22131A"/>
<path d="M51.187 104.979C52.017 105.829 53.177 106.649 54.517 107.539C55.2437 107.712 55.9603 107.925 56.667 108.179C59.607 109.259 61.457 105.879 59.077 103.699C57.247 102.029 53.167 103.129 51.187 104.979Z" fill="#22131A"/>
<path d="M51.527 100.669C51.157 98.4188 62.377 95.0888 63.487 97.6188C64.037 98.8688 60.967 99.1188 57.967 99.8888C54.827 100.689 51.737 101.959 51.527 100.669Z" fill="#FFFAFF"/>
<path d="M66.0773 98.2689C66.2073 96.2589 70.3073 96.5789 70.2373 98.4689C70.1573 100.349 65.9973 99.4989 66.0773 98.2689Z" fill="#FFFAFF"/>
<path d="M62.8071 118.149C61.8871 118.129 61.1371 117.759 61.1471 117.329L61.3071 106.189C61.3171 105.749 62.0671 105.409 62.9871 105.429C63.9071 105.449 64.6471 105.809 64.6371 106.249L64.4871 117.389C64.4771 117.819 63.7271 118.159 62.8071 118.149Z" fill="#3B262B"/>
<path d="M49.7174 125.288C49.3174 125.288 48.9074 125.118 48.6274 124.778C48.1274 124.178 48.2174 123.288 48.8174 122.788C52.1674 119.998 61.6974 116.208 62.0974 116.048C62.8174 115.768 63.6474 116.118 63.9274 116.848C64.2174 117.568 63.8674 118.388 63.1374 118.678C63.0474 118.718 53.6274 122.458 50.6174 124.958C50.3441 125.178 50.0441 125.288 49.7174 125.288Z" fill="#3B262B"/>
<path d="M75.3575 125.469C74.9675 125.469 74.5775 125.309 74.2975 124.989C72.3375 122.739 64.8475 119.679 62.1375 118.689C61.3975 118.429 61.0275 117.619 61.2875 116.879C61.5575 116.149 62.3575 115.769 63.0975 116.039C64.1675 116.429 73.6375 119.929 76.4175 123.129C76.9375 123.719 76.8775 124.609 76.2875 125.119C76.0175 125.359 75.6875 125.469 75.3575 125.469Z" fill="#3B262B"/>
<path d="M30.617 67.9787C30.467 64.5687 43.687 61.5587 44.677 66.5387C45.677 71.5187 30.727 70.4087 30.617 67.9787Z" fill="#FFC286"/>
<path d="M94.6168 67.9787C94.7668 64.5687 81.5468 61.5587 80.5568 66.5387C79.5568 71.5187 94.5068 70.4087 94.6168 67.9787Z" fill="#FFC286"/>
<g style="mix-blend-mode:multiply" opacity="0.15">
<path d="M121.747 77.4487C130.127 126.019 83.8869 139.189 62.6169 139.189C41.3469 139.189 -4.89309 126.019 3.48691 77.4487C-13.1131 133.429 39.2769 148.179 62.6169 148.179C85.9569 148.179 138.347 133.429 121.747 77.4487Z" fill="#ED8954"/>
</g>
<path d="M35.247 95.7183C34.307 95.7183 33.3803 95.625 32.467 95.4383C27.467 94.3983 22.947 90.4383 24.127 83.9083C24.327 82.8383 25.357 82.1283 26.437 82.3183C27.507 82.5083 28.227 83.5384 28.027 84.6184C27.277 88.7784 30.237 90.9284 33.267 91.5584C37.087 92.3384 41.567 90.8584 42.447 87.0184C42.697 85.9484 43.767 85.2884 44.827 85.5284C45.897 85.7784 46.557 86.8383 46.317 87.9083C45.107 93.1183 40.167 95.7183 35.247 95.7183Z" fill="#3B262B"/>
<path d="M89.9869 95.7185C85.0669 95.7185 80.1269 93.1185 78.9169 87.9085C78.6769 86.8385 79.3369 85.7786 80.4069 85.5286C81.4769 85.2886 82.5369 85.9485 82.7769 87.0185C83.6669 90.8585 88.1469 92.3386 91.9669 91.5586C94.9969 90.9286 97.9569 88.7786 97.2069 84.6186C97.0069 83.5386 97.7269 82.5085 98.7969 82.3185C99.8769 82.1185 100.907 82.8385 101.107 83.9085C102.287 90.4385 97.7669 94.3985 92.7669 95.4385C91.8536 95.6252 90.9269 95.7185 89.9869 95.7185Z" fill="#3B262B"/>
<path d="M138.657 81.6788H127.027C126.177 81.6788 125.427 81.1388 125.167 80.3288C124.907 79.5288 125.187 78.6488 125.867 78.1488L132.037 73.6288H126.907C125.827 73.6288 124.957 72.7488 124.957 71.6688C124.957 70.5888 125.827 69.7188 126.907 69.7188H138.017C138.857 69.7188 139.607 70.2588 139.867 71.0688C140.137 71.8688 139.847 72.7487 139.167 73.2487L132.997 77.7688H138.657C139.737 77.7688 140.617 78.6488 140.617 79.7288C140.617 80.8088 139.737 81.6788 138.657 81.6788Z" fill="#9DD2ED"/>
<path d="M146.637 67.5787H137.507C136.847 67.5787 136.257 67.1487 136.047 66.5187C135.847 65.8887 136.067 65.1987 136.597 64.8087L141.437 61.2587H137.417C136.567 61.2587 135.877 60.5687 135.877 59.7287C135.877 58.8787 136.567 58.1987 137.417 58.1987H146.127C146.787 58.1987 147.377 58.6187 147.587 59.2487C147.787 59.8787 147.567 60.5687 147.027 60.9587L142.187 64.5087H146.637C147.477 64.5087 148.167 65.1987 148.167 66.0387C148.167 66.8887 147.477 67.5787 146.637 67.5787Z" fill="#9DD2ED"/>
<path d="M153.197 56.0887H145.517C144.957 56.0887 144.467 55.7287 144.297 55.1987C144.117 54.6687 144.307 54.0887 144.757 53.7587L148.827 50.7787H145.447C144.727 50.7787 144.157 50.1987 144.157 49.4887C144.157 48.7787 144.727 48.1987 145.447 48.1987H152.767C153.327 48.1987 153.817 48.5587 153.997 49.0887C154.167 49.6187 153.977 50.1987 153.527 50.5287L149.457 53.5087H153.197C153.907 53.5087 154.487 54.0887 154.487 54.7987C154.487 55.5087 153.907 56.0887 153.197 56.0887Z" fill="#9DD2ED"/>
</svg>
