<svg width="126" height="149" viewBox="0 0 126 149" fill="none" xmlns="http://www.w3.org/2000/svg">
<path d="M44.3969 38.3985C29.1269 23.9585 25.5969 -1.49148 14.0569 0.0685197C6.01693 1.14852 0.356933 27.5385 0.0169328 42.2885C-0.453067 61.9885 8.97693 78.1485 13.8969 80.5685C30.2869 85.6085 44.3969 38.3985 44.3969 38.3985Z" fill="#E66522"/>
<path d="M18.6668 66.4984C17.9935 66.5984 17.2968 66.5351 16.5768 66.3084C12.8168 65.1584 9.52679 60.4784 7.96679 54.9184C4.02679 40.8984 6.48679 20.2784 11.0968 7.54842C13.1268 1.93842 16.5968 2.61842 18.6068 6.05842C21.5468 11.1084 24.7268 17.1384 26.9068 21.2784C29.9968 27.1484 31.9568 30.8084 33.4168 33.1484C34.0468 34.1584 34.2868 35.3084 34.0768 36.3784C31.4768 49.3484 25.5568 65.4984 18.6668 66.4984Z" fill="#FFE8DB"/>
<path d="M14.6872 52.9486C14.6872 52.9486 17.5972 42.6586 15.0272 41.9086C12.4572 41.1586 11.0972 42.2486 11.0972 42.2486C11.0972 42.2486 16.2072 34.2586 14.4172 33.4386C12.6372 32.6186 11.0972 33.7286 11.0972 33.7286C11.0972 33.7286 15.4872 25.7186 14.0272 25.1286C12.5572 24.5486 11.6672 25.3386 11.6672 25.3386C11.6672 25.3386 15.2472 19.2586 15.0972 18.0286C14.9572 16.7986 12.7572 16.8986 12.7572 16.8986C12.7572 16.8986 16.4572 13.3786 16.2972 10.2886C16.7072 15.0486 18.8672 17.1686 20.4372 17.0286C18.3872 17.3886 19.8372 21.9586 23.3172 24.8586C19.7472 24.0086 21.8872 28.0886 25.4972 30.7486C19.9172 30.4786 23.5672 34.9486 27.7572 39.0286C30.1772 41.3786 25.5072 55.0286 21.0672 58.2186C17.8372 60.5486 14.6872 52.9486 14.6872 52.9486Z" fill="#F8D4C2"/>
<path d="M80.8369 38.3985C96.1069 23.9585 99.6369 -1.49148 111.177 0.0685197C119.217 1.14852 124.877 27.5385 125.217 42.2885C125.687 61.9885 116.257 78.1485 111.337 80.5685C94.9469 85.6085 80.8369 38.3985 80.8369 38.3985Z" fill="#E66522"/>
<path d="M106.567 66.4984C107.24 66.5984 107.937 66.5351 108.657 66.3084C112.417 65.1584 115.707 60.4784 117.267 54.9184C121.207 40.8984 118.747 20.2784 114.137 7.54842C112.107 1.93842 108.637 2.61842 106.627 6.05842C103.687 11.1084 100.507 17.1384 98.3268 21.2784C95.2368 27.1484 93.2768 30.8084 91.8168 33.1484C91.1868 34.1584 90.9468 35.3084 91.1568 36.3784C93.7568 49.3484 99.6768 65.4984 106.567 66.4984Z" fill="#FFE8DB"/>
<path d="M110.547 52.9486C110.547 52.9486 107.637 42.6586 110.207 41.9086C112.777 41.1586 114.137 42.2486 114.137 42.2486C114.137 42.2486 109.027 34.2586 110.817 33.4386C112.597 32.6186 114.137 33.7286 114.137 33.7286C114.137 33.7286 109.747 25.7186 111.207 25.1286C112.677 24.5486 113.567 25.3386 113.567 25.3386C113.567 25.3386 109.987 19.2586 110.137 18.0286C110.277 16.7986 112.477 16.8986 112.477 16.8986C112.477 16.8986 108.777 13.3786 108.937 10.2886C108.527 15.0486 106.367 17.1686 104.797 17.0286C106.847 17.3886 105.397 21.9586 101.917 24.8586C105.487 24.0086 103.347 28.0886 99.7367 30.7486C105.317 30.4786 101.667 34.9486 97.4767 39.0286C95.0567 41.3786 99.7267 55.0286 104.167 58.2186C107.397 60.5486 110.547 52.9486 110.547 52.9486Z" fill="#F8D4C2"/>
<path d="M119.837 71.6785C113.807 55.0685 97.767 33.5085 83.567 32.0085C81.567 31.7985 72.087 31.6885 62.617 31.6885C53.147 31.6885 43.667 31.7985 41.667 32.0085C27.467 33.5085 11.427 55.0685 5.39699 71.6785C-16.673 132.428 38.487 148.178 62.617 148.178C86.747 148.178 141.907 132.428 119.837 71.6785Z" fill="#FF8D39"/>
<path d="M25.1067 96.3684C24.1467 96.3684 23.3067 95.6485 23.1867 94.6685C23.0467 93.6085 23.7967 92.6284 24.8667 92.4984L36.7167 90.9684L27.8367 84.1184C26.9867 83.4684 26.8367 82.2484 27.4867 81.3984C28.1467 80.5484 29.3667 80.3884 30.2167 81.0484L42.8067 90.7484C43.4267 91.2384 43.6967 92.0384 43.4967 92.7984C43.2867 93.5584 42.6467 94.1184 41.8667 94.2184L25.3567 96.3485C25.2767 96.3618 25.1934 96.3684 25.1067 96.3684Z" fill="#3B262B"/>
<path d="M84.3168 90.0783C84.5568 94.0483 87.8368 97.0783 91.6368 96.8383C95.4468 96.6083 98.3368 93.2083 98.0868 89.2383C97.8468 85.2683 94.5668 82.2383 90.7668 82.4683C86.9568 82.6983 84.0668 86.1083 84.3168 90.0783Z" fill="#3B262B"/>
<path d="M88.3571 85.3884C88.4071 86.2384 89.7071 86.5684 91.1571 86.4784C92.6071 86.3884 93.6671 85.9184 93.6171 85.0684C93.5671 84.2184 92.3471 83.5984 90.8971 83.6884C89.4371 83.7784 88.3071 84.5384 88.3571 85.3884Z" fill="#FFFAFF"/>
<path d="M62.617 148.179C83.717 148.179 128.557 136.129 124.707 92.4687C121.627 90.5287 118.587 88.5987 117.257 88.2887C109.017 86.4187 107.757 98.9287 93.8069 101.769C79.8369 104.609 80.417 99.5187 62.617 99.5187C44.817 99.5187 45.397 104.609 31.427 101.769C17.477 98.9287 16.217 86.4187 7.97695 88.2887C6.64695 88.5987 3.60695 90.5287 0.526951 92.4687C-3.32305 136.129 41.517 148.179 62.617 148.179Z" fill="#FFE8DB"/>
<path d="M44.707 114.299C44.707 114.299 47.247 131.079 62.387 131.219C79.027 131.379 80.527 114.739 80.527 114.739C74.687 99.9286 50.507 98.7486 44.707 114.299Z" fill="#F8D4C2"/>
<path d="M62.6167 97.1289C48.8367 97.1289 40.0067 103.599 43.5667 115.669C45.7967 123.249 55.1567 121.309 62.6167 121.539C70.0767 121.309 79.4367 123.249 81.6667 115.669C85.2267 103.599 76.3967 97.1289 62.6167 97.1289Z" fill="#FFF9F1"/>
<path d="M62.6168 74.9287C57.0368 74.9787 49.9668 101.219 49.9668 101.219L75.3568 102.079C75.3568 102.079 68.1968 74.9787 62.6168 74.9287Z" fill="#FFA243"/>
<path d="M52.5969 122.919C46.9969 122.919 43.4069 118.199 42.3069 113.389C42.1269 112.629 42.6069 111.869 43.3669 111.699C44.1269 111.519 44.8869 111.999 45.0569 112.759C45.8669 116.289 48.4469 120.329 53.0069 120.079C60.9369 119.629 62.2469 119.379 62.2969 119.369C63.0569 119.209 63.7969 119.669 63.9769 120.409C64.1569 121.149 63.7369 121.899 62.9969 122.099C62.3169 122.289 58.6369 122.589 53.1669 122.899C52.9736 122.912 52.7836 122.919 52.5969 122.919Z" fill="#3B262B"/>
<path d="M72.637 122.919C72.4503 122.919 72.2603 122.912 72.067 122.899C66.597 122.589 62.917 122.299 62.237 122.099C61.487 121.889 61.047 121.109 61.257 120.359C61.467 119.609 62.247 119.169 62.997 119.379C63.017 119.379 64.377 119.639 72.227 120.079C76.797 120.329 79.367 116.289 80.177 112.759C80.347 111.999 81.097 111.519 81.867 111.699C82.627 111.869 83.097 112.629 82.927 113.389C81.827 118.199 78.237 122.919 72.637 122.919Z" fill="#3B262B"/>
<path d="M75.3571 102.079C75.3871 106.079 69.4371 106.899 62.7071 113.889C57.0771 107.959 49.9071 106.209 49.8771 102.209C49.8471 98.2087 54.0171 93.9387 62.3671 93.8987C70.7171 93.8587 75.3271 98.0787 75.3571 102.079Z" fill="#3B262B"/>
<path d="M74.4272 104.519C72.3172 102.909 68.6072 102.069 66.9172 103.659C64.5672 105.859 66.4772 109.229 69.4072 108.119C69.6072 108.039 69.8139 107.965 70.0272 107.899C71.9572 106.609 73.5072 105.619 74.4272 104.519Z" fill="#22131A"/>
<path d="M51.187 104.979C52.017 105.829 53.177 106.649 54.517 107.539C55.2437 107.712 55.9603 107.925 56.667 108.179C59.607 109.259 61.457 105.879 59.077 103.699C57.247 102.029 53.167 103.129 51.187 104.979Z" fill="#22131A"/>
<path d="M51.527 100.669C51.157 98.4188 62.377 95.0888 63.487 97.6188C64.037 98.8688 60.967 99.1188 57.967 99.8888C54.827 100.689 51.737 101.959 51.527 100.669Z" fill="#FFFAFF"/>
<path d="M66.0773 98.2689C66.2073 96.2589 70.3073 96.5789 70.2373 98.4689C70.1573 100.349 65.9973 99.4989 66.0773 98.2689Z" fill="#FFFAFF"/>
<path d="M62.7468 121.319C61.8268 121.299 61.0868 120.839 61.0968 120.299L61.3068 106.389C61.3068 105.839 62.0668 105.409 62.9868 105.429C63.9068 105.449 64.6468 105.899 64.6368 106.449L64.4368 120.359C64.4268 120.899 63.6668 121.329 62.7468 121.319Z" fill="#3B262B"/>
<path d="M35.9967 69.6585C37.3667 66.5285 50.5567 69.6485 49.2567 74.5585C47.9567 79.4685 35.0267 71.8885 35.9967 69.6585Z" fill="#FFC286"/>
<path d="M98.5768 71.5084C98.7268 68.0984 85.5068 65.0884 84.5168 70.0684C83.5168 75.0484 98.4668 73.9484 98.5768 71.5084Z" fill="#FFC286"/>
<g style="mix-blend-mode:multiply" opacity="0.15">
<path d="M121.747 77.4487C130.127 126.019 83.8869 139.189 62.6169 139.189C41.3469 139.189 -4.89309 126.019 3.48691 77.4487C-13.1131 133.429 39.2769 148.179 62.6169 148.179C85.9569 148.179 138.347 133.429 121.747 77.4487Z" fill="#ED8954"/>
</g>
</svg>
