<svg width="134" height="144" viewBox="0 0 134 144" fill="none" xmlns="http://www.w3.org/2000/svg">
<path d="M45.2181 27.8301C26.2381 18.8001 15.0382 -4.32991 4.54817 0.710087C-2.77183 4.22009 -0.0218706 31.0701 4.19813 45.2101C9.82813 64.0901 23.7781 76.5601 29.2081 77.3401C46.3481 77.0901 45.2181 27.8301 45.2181 27.8301Z" fill="#E66522"/>
<path d="M29.4082 62.4899C28.7948 62.7899 28.1115 62.9433 27.3582 62.9499C23.4282 63.0099 18.8582 59.5799 15.6582 54.7699C7.58816 42.6499 3.56816 22.2799 4.02816 8.73994C4.22816 2.77994 7.74815 2.35994 10.7082 5.00994C15.0682 8.90994 19.9482 13.6599 23.2982 16.9299C28.0582 21.5599 31.0482 24.4399 33.1582 26.2199C34.0682 26.9899 34.6482 27.9999 34.7782 29.0899C36.3082 42.2199 35.6582 59.4199 29.4082 62.4899Z" fill="#FFE8DB"/>
<path d="M21.4383 50.82C21.4383 50.82 21.0383 40.14 18.3683 40.22C15.6883 40.29 14.7283 41.76 14.7283 41.76C14.7283 41.76 17.1283 32.58 15.1783 32.35C13.2283 32.12 12.1083 33.65 12.1083 33.65C12.1083 33.65 13.8083 24.67 12.2383 24.57C10.6683 24.47 10.0583 25.49 10.0583 25.49C10.0583 25.49 11.5883 18.6 11.0683 17.48C10.5583 16.35 8.48828 17.13 8.48828 17.13C8.48828 17.13 10.9282 12.64 9.82825 9.75C11.6882 14.14 14.3883 15.5 15.8383 14.88C13.9983 15.85 16.7883 19.76 20.9883 21.44C17.3383 21.74 20.6283 24.95 24.8783 26.37C19.4883 27.84 24.3382 30.97 29.5782 33.55C32.6082 35.04 32.3782 49.46 29.1382 53.87C26.7882 57.09 21.4383 50.82 21.4383 50.82Z" fill="#F8D4C2"/>
<path d="M88.7082 27.8301C107.688 18.8001 118.898 -4.32991 129.388 0.710087C136.708 4.22009 133.948 31.0701 129.738 45.2101C124.098 64.0901 110.148 76.5601 104.718 77.3401C87.5782 77.0901 88.7082 27.8301 88.7082 27.8301Z" fill="#E66522"/>
<path d="M104.528 62.4899C105.135 62.7899 105.815 62.9433 106.568 62.9499C110.508 63.0099 115.068 59.5799 118.278 54.7699C126.348 42.6499 130.358 22.2799 129.908 8.73994C129.698 2.77994 126.188 2.35994 123.218 5.00994C118.858 8.90994 113.978 13.6599 110.628 16.9299C105.878 21.5599 102.888 24.4399 100.768 26.2199C99.8582 26.9899 99.2782 27.9999 99.1582 29.0899C97.6282 42.2199 98.2782 59.4199 104.528 62.4899Z" fill="#FFE8DB"/>
<path d="M112.488 50.82C112.488 50.82 112.888 40.14 115.568 40.22C118.248 40.29 119.198 41.76 119.198 41.76C119.198 41.76 116.808 32.58 118.758 32.35C120.708 32.12 121.828 33.65 121.828 33.65C121.828 33.65 120.128 24.67 121.698 24.57C123.268 24.47 123.878 25.49 123.878 25.49C123.878 25.49 122.348 18.6 122.858 17.48C123.378 16.35 125.438 17.13 125.438 17.13C125.438 17.13 123.008 12.64 124.108 9.75C122.248 14.14 119.538 15.5 118.088 14.88C119.938 15.85 117.148 19.76 112.938 21.44C116.598 21.74 113.308 24.95 109.048 26.37C114.448 27.84 109.588 30.97 104.348 33.55C101.318 35.04 101.558 49.46 104.788 53.87C107.148 57.09 112.488 50.82 112.488 50.82Z" fill="#F8D4C2"/>
<path d="M124.188 67.3298C118.158 50.7198 102.108 29.1598 87.9181 27.6598C85.9181 27.4498 76.4381 27.3398 66.9681 27.3398C57.4881 27.3398 48.0181 27.4498 46.0181 27.6598C31.8181 29.1598 15.7781 50.7198 9.73811 67.3298C-12.3219 128.08 42.8381 143.83 66.9681 143.83C91.0881 143.83 146.258 128.08 124.188 67.3298Z" fill="#FF8D39"/>
<path d="M45.2583 85.9301C44.8983 89.8901 41.5384 92.8201 37.7384 92.4801C33.9384 92.1401 31.1483 88.6501 31.5083 84.6901C31.8683 80.7301 35.2283 77.8001 39.0283 78.1401C42.8283 78.4801 45.6083 81.9701 45.2583 85.9301Z" fill="#3B262B"/>
<path d="M41.0282 81.1202C40.9482 81.9602 39.6482 82.2602 38.1982 82.1302C36.7482 82.0002 35.7082 81.4902 35.7782 80.6402C35.8582 79.8002 37.0982 79.2102 38.5382 79.3402C39.9882 79.4702 41.1082 80.2702 41.0282 81.1202Z" fill="#FFFAFF"/>
<path d="M88.6585 85.7302C88.9085 89.7002 92.1885 92.7302 95.9885 92.4902C99.7985 92.2602 102.678 88.8602 102.438 84.8902C102.198 80.9202 98.9185 77.8902 95.1085 78.1202C91.3085 78.3502 88.4185 81.7602 88.6585 85.7302Z" fill="#3B262B"/>
<path d="M92.7086 81.0402C92.7586 81.8902 94.0486 82.2202 95.5086 82.1302C96.9586 82.0402 98.0186 81.5702 97.9686 80.7202C97.9186 79.8702 96.6987 79.2502 95.2487 79.3402C93.7887 79.4302 92.6586 80.1902 92.7086 81.0402Z" fill="#FFFAFF"/>
<path d="M66.968 143.83C88.068 143.83 132.908 131.78 129.058 88.1201C125.978 86.1801 122.938 84.2501 121.608 83.9401C113.368 82.0701 112.098 94.5801 98.158 97.4201C84.188 100.26 84.768 95.1701 66.968 95.1701C49.168 95.1701 49.748 100.26 35.778 97.4201C21.828 94.5801 20.568 82.0701 12.328 83.9401C10.988 84.2501 7.95806 86.1801 4.86806 88.1201C1.02806 131.78 45.868 143.83 66.968 143.83Z" fill="#FFE8DB"/>
<path d="M49.0581 109.95C49.0581 109.95 51.5981 126.73 66.7381 126.87C83.3681 127.03 84.8781 110.39 84.8781 110.39C79.0381 95.58 54.8581 94.4 49.0581 109.95Z" fill="#F8D4C2"/>
<path d="M66.9681 92.7803C53.1781 92.7803 45.1882 106.42 48.7482 118.49C50.9782 126.07 59.5081 116.96 66.9681 117.19V92.7803Z" fill="#FFF9F1"/>
<path d="M66.9681 70.5801C61.3881 70.6301 54.3081 96.8701 54.3081 96.8701L79.7081 97.7301C79.7081 97.7301 72.5481 70.6301 66.9681 70.5801Z" fill="#FFA243"/>
<path d="M54.3079 121.99C53.7279 121.99 53.1779 121.63 52.9779 121.04C52.7179 120.3 53.1179 119.5 53.8579 119.25C61.3579 116.67 66.4879 115.06 66.5479 115.04C67.2879 114.81 68.0779 115.23 68.3179 115.97C68.5479 116.71 68.1279 117.51 67.3879 117.74C67.3379 117.76 62.2379 119.36 54.7679 121.92C54.6145 121.973 54.4612 121.997 54.3079 121.99Z" fill="#3B262B"/>
<path d="M66.9683 92.7803C80.7483 92.7803 88.7383 106.42 85.1883 118.49C82.9483 126.07 74.4283 116.96 66.9683 117.19V92.7803Z" fill="#FFF9F1"/>
<path d="M79.6181 121.99C79.4647 121.997 79.3114 121.973 79.158 121.92C71.698 119.36 66.598 117.76 66.548 117.74C65.798 117.51 65.3881 116.71 65.6181 115.97C65.8481 115.23 66.648 114.81 67.388 115.04C67.438 115.06 72.578 116.67 80.078 119.25C80.818 119.5 81.208 120.3 80.958 121.04C80.758 121.63 80.2081 121.99 79.6181 121.99Z" fill="#3B262B"/>
<path d="M79.7082 97.7301C79.7382 101.73 73.7882 102.55 67.0582 109.54C61.4282 103.61 54.2582 101.86 54.2282 97.8601C54.1982 93.8601 58.3682 89.5901 66.7182 89.5501C75.0682 89.5101 79.6782 93.7301 79.7082 97.7301Z" fill="#3B262B"/>
<path d="M78.7681 100.17C76.6581 98.5601 72.9581 97.7201 71.2681 99.3101C68.9181 101.51 70.8282 104.88 73.7482 103.77C73.9548 103.69 74.1648 103.617 74.3782 103.55C76.2982 102.26 77.8481 101.27 78.7681 100.17Z" fill="#22131A"/>
<path d="M55.5381 100.63C56.3681 101.48 57.5281 102.3 58.8681 103.19C59.5948 103.363 60.3114 103.577 61.0181 103.83C63.9581 104.91 65.8081 101.53 63.4281 99.3501C61.5981 97.6801 57.5181 98.7801 55.5381 100.63Z" fill="#22131A"/>
<path d="M55.8781 96.3202C55.5081 94.0702 66.7181 90.7402 67.8381 93.2702C68.3781 94.5202 65.3181 94.7702 62.3181 95.5402C59.1781 96.3402 56.0881 97.6102 55.8781 96.3202Z" fill="#FFFAFF"/>
<path d="M70.4284 93.9202C70.5484 91.9102 74.6583 92.2302 74.5783 94.1202C74.5083 96.0002 70.3484 95.1502 70.4284 93.9202Z" fill="#FFFAFF"/>
<path d="M67.0984 116.97C66.1784 116.95 65.4383 116.49 65.4483 115.95L65.6484 102.04C65.6584 101.49 66.4184 101.06 67.3384 101.08C68.2584 101.1 68.9984 101.55 68.9884 102.1L68.7784 116.01C68.7784 116.55 68.0184 116.98 67.0984 116.97Z" fill="#3B262B"/>
<path d="M36.448 73.3603C34.948 70.2903 51.0381 60.3903 54.2381 64.4603C57.4381 68.5303 37.518 75.5503 36.448 73.3603Z" fill="#FFC286"/>
<path d="M97.4883 73.3603C98.9883 70.2903 82.8983 60.3903 79.6983 64.4603C76.4883 68.5303 96.4083 75.5503 97.4883 73.3603Z" fill="#FFC286"/>
<g style="mix-blend-mode:multiply" opacity="0.15">
<path d="M126.088 73.1001C134.468 121.67 88.238 134.84 66.968 134.84C45.698 134.84 -0.541978 121.67 7.83802 73.1001C-8.77198 129.08 43.618 143.83 66.968 143.83C90.308 143.83 142.698 129.08 126.088 73.1001Z" fill="#ED8954"/>
</g>
</svg>
