<svg width="327" height="841" viewBox="0 0 327 841" fill="none" xmlns="http://www.w3.org/2000/svg">
<path d="M228.916 840.212C205.329 840.212 181.484 831.27 163.15 815.533C142.036 833.657 113.603 842.767 86.6857 839.587C47.9977 835.013 13.6856 805.604 3.24462 768.07C-1.78538 749.98 -0.95337 730.354 5.65063 711.312C11.8986 693.298 22.8237 677.001 37.2457 664.183C44.7977 657.469 51.8027 652.75 57.9817 648.586C74.2457 637.629 82.4087 632.129 82.4087 601.139V239.072C82.4087 208.082 74.2457 202.583 57.9827 191.626C51.8017 187.463 44.7966 182.743 37.2446 176.028C22.8236 163.211 11.8986 146.914 5.65063 128.9C-0.95337 109.858 -1.78638 90.2319 3.24462 72.1429C13.6856 34.6089 47.9987 5.19995 86.6847 0.624948C113.61 -2.55605 142.035 6.5559 163.15 24.6789C184.265 6.5559 212.69 -2.55705 239.612 0.624948C278.302 5.19895 312.614 34.6079 323.052 72.1429C328.083 90.2319 327.252 109.858 320.648 128.9C314.401 146.914 303.476 163.211 289.055 176.029C281.502 182.743 274.496 187.462 268.317 191.626C252.051 202.582 243.887 208.082 243.887 239.072V601.139C243.887 632.13 252.052 637.629 268.317 648.586C274.498 652.75 281.503 657.469 289.056 664.184C303.476 677.001 314.401 693.298 320.648 711.312C327.252 730.354 328.084 749.98 323.052 768.069C312.614 805.603 278.302 835.012 239.613 839.587C236.067 840.006 232.493 840.212 228.916 840.212ZM97.5017 20.832C94.6997 20.832 91.9057 20.993 89.1317 21.321C58.6197 24.928 31.5577 48.124 23.3207 77.728C15.5797 105.564 26.7397 138.809 51.0897 160.453C57.5997 166.241 63.7137 170.36 69.6257 174.344C87.6677 186.498 103.249 196.994 103.249 239.073V601.14C103.249 643.218 87.6667 653.715 69.6257 665.869C63.7137 669.852 57.5997 673.972 51.0907 679.759C26.7397 701.404 15.5797 734.649 23.3217 762.486C31.5567 792.09 58.6197 815.285 89.1327 818.892C113.004 821.719 138.46 812.178 155.564 794.007C157.533 791.915 160.278 790.73 163.151 790.729C166.023 790.729 168.769 791.916 170.738 794.007C187.843 812.177 213.294 821.716 237.168 818.892C267.682 815.285 294.744 792.089 302.978 762.486C310.72 734.648 299.562 701.403 275.213 679.76C268.703 673.973 262.589 669.854 256.676 665.87C238.633 653.716 223.05 643.219 223.05 601.14V239.073C223.05 196.994 238.633 186.498 256.676 174.344C262.589 170.361 268.703 166.241 275.212 160.455C299.562 138.811 310.72 105.566 302.978 77.728C294.745 48.124 267.682 24.929 237.167 21.322C213.304 18.497 187.844 28.036 170.738 46.207C168.769 48.299 166.023 49.4849 163.151 49.4849C160.278 49.4839 157.533 48.298 155.564 46.207C140.447 30.147 118.806 20.832 97.5017 20.832Z" fill="#8E7DFF"/>
<path d="M56.3998 95.6095C55.4748 95.6095 54.5358 95.4855 53.6008 95.2255C48.0568 93.6835 44.8128 87.9385 46.3558 82.3945C52.0178 62.0425 70.6248 46.0955 91.6018 43.6145C93.5448 43.3855 95.5268 43.2695 97.4978 43.2695C103.253 43.2695 107.918 47.9345 107.918 53.6895C107.918 59.4445 103.253 64.1095 97.4978 64.1095C96.3388 64.1095 95.1768 64.1764 94.0448 64.3094C81.4488 65.7994 69.8338 75.7545 66.4328 87.9805C65.1498 92.5895 60.9618 95.6095 56.3998 95.6095Z" fill="#8E7DFF"/>
<path d="M56.4057 745.418C56.1117 745.418 55.8158 745.405 55.5168 745.381C49.7828 744.897 45.5267 739.856 46.0107 734.121C47.7487 713.541 59.9777 697.077 83.3937 683.786C88.3977 680.944 94.7577 682.699 97.5987 687.704C100.44 692.709 98.6847 699.068 93.6807 701.909C76.2207 711.819 67.9228 722.294 66.7768 735.875C66.3168 741.311 61.7637 745.418 56.4057 745.418Z" fill="#8E7DFF"/>
</svg>
