<svg width="126" height="149" viewBox="0 0 126 149" fill="none" xmlns="http://www.w3.org/2000/svg">
<path d="M44.3969 38.3985C29.1269 23.9585 25.5869 -1.49148 14.0569 0.0685197C6.01691 1.14852 0.356933 27.5385 0.0169328 42.2885C-0.453067 61.9885 8.97694 78.1485 13.8969 80.5685C30.2769 85.6085 44.3969 38.3985 44.3969 38.3985Z" fill="#E66522"/>
<path d="M18.6668 66.4984C17.9934 66.5984 17.2968 66.5351 16.5768 66.3084C12.8168 65.1584 9.5268 60.4784 7.9668 54.9184C4.0268 40.8984 6.48675 20.2784 11.0967 7.54841C13.1267 1.93841 16.5967 2.61842 18.5967 6.05842C21.5467 11.1084 24.7167 17.1384 26.9067 21.2784C29.9967 27.1484 31.9568 30.8084 33.4168 33.1484C34.0468 34.1584 34.2868 35.3084 34.0668 36.3784C31.4768 49.3484 25.5568 65.4984 18.6668 66.4984Z" fill="#FFE8DB"/>
<path d="M14.6867 52.9486C14.6867 52.9486 17.5967 42.6586 15.0267 41.9086C12.4567 41.1586 11.0967 42.2486 11.0967 42.2486C11.0967 42.2486 16.1967 34.2586 14.4167 33.4386C12.6367 32.6186 11.0967 33.7286 11.0967 33.7286C11.0967 33.7286 15.4867 25.7186 14.0167 25.1286C12.5567 24.5486 11.6567 25.3386 11.6567 25.3386C11.6567 25.3386 15.2367 19.2586 15.0967 18.0286C14.9567 16.7986 12.7467 16.8986 12.7467 16.8986C12.7467 16.8986 16.4467 13.3786 16.2967 10.2886C16.7067 15.0486 18.8667 17.1686 20.4367 17.0286C18.3767 17.3886 19.8367 21.9586 23.3167 24.8586C19.7467 24.0086 21.8867 28.0886 25.4967 30.7486C19.9167 30.4786 23.5667 34.9486 27.7567 39.0286C30.1767 41.3786 25.5067 55.0286 21.0667 58.2186C17.8367 60.5486 14.6867 52.9486 14.6867 52.9486Z" fill="#F8D4C2"/>
<path d="M80.8369 38.3985C96.1069 23.9585 99.6369 -1.49148 111.167 0.0685197C119.217 1.14852 124.867 27.5385 125.217 42.2885C125.677 61.9885 116.257 78.1485 111.327 80.5685C94.9469 85.6085 80.8369 38.3985 80.8369 38.3985Z" fill="#E66522"/>
<path d="M106.567 66.4984C107.24 66.5984 107.937 66.5351 108.657 66.3084C112.417 65.1584 115.697 60.4784 117.267 54.9184C121.207 40.8984 118.747 20.2784 114.137 7.54841C112.107 1.93841 108.637 2.61842 106.627 6.05842C103.687 11.1084 100.507 17.1384 98.3268 21.2784C95.2368 27.1484 93.2768 30.8084 91.8168 33.1484C91.1868 34.1584 90.9468 35.3084 91.1568 36.3784C93.7468 49.3484 99.6668 65.4984 106.567 66.4984Z" fill="#FFE8DB"/>
<path d="M110.547 52.9486C110.547 52.9486 107.637 42.6586 110.207 41.9086C112.777 41.1586 114.137 42.2486 114.137 42.2486C114.137 42.2486 109.027 34.2586 110.817 33.4386C112.597 32.6186 114.137 33.7286 114.137 33.7286C114.137 33.7286 109.747 25.7186 111.207 25.1286C112.677 24.5486 113.567 25.3386 113.567 25.3386C113.567 25.3386 109.987 19.2586 110.127 18.0286C110.277 16.7986 112.477 16.8986 112.477 16.8986C112.477 16.8986 108.777 13.3786 108.927 10.2886C108.517 15.0486 106.367 17.1686 104.787 17.0286C106.847 17.3886 105.397 21.9586 101.917 24.8586C105.487 24.0086 103.347 28.0886 99.7368 30.7486C105.317 30.4786 101.667 34.9486 97.4768 39.0286C95.0568 41.3786 99.7268 55.0286 104.157 58.2186C107.397 60.5486 110.547 52.9486 110.547 52.9486Z" fill="#F8D4C2"/>
<path d="M119.837 71.6785C113.807 55.0685 97.757 33.5085 83.567 32.0085C81.567 31.7985 72.087 31.6885 62.617 31.6885C53.137 31.6885 43.667 31.7985 41.667 32.0085C27.467 33.5085 11.427 55.0685 5.38704 71.6785C-16.673 132.428 38.487 148.178 62.617 148.178C86.737 148.178 141.907 132.428 119.837 71.6785Z" fill="#FF8D39"/>
<path d="M28.287 63.1988C29.447 62.2388 35.697 61.4987 41.087 59.7487C46.947 57.8487 49.537 52.3588 51.367 53.2988C54.617 54.9588 50.367 62.6087 42.997 64.9387C35.897 67.1787 25.147 65.7788 28.287 63.1988Z" fill="#FFC286"/>
<path d="M96.9971 63.8487C95.8871 62.8287 89.6871 61.7487 84.3971 59.7087C78.6471 57.4987 76.3671 51.8687 74.4871 52.7087C71.1471 54.1987 74.9771 62.0587 82.2071 64.7887C89.1671 67.4087 99.9871 66.5987 96.9971 63.8487Z" fill="#FFC286"/>
<path d="M62.617 148.179C83.717 148.179 128.557 136.129 124.707 92.4687C121.627 90.5287 118.587 88.5987 117.257 88.2887C109.017 86.4187 107.747 98.9287 93.807 101.769C79.837 104.609 80.417 99.5187 62.617 99.5187C44.817 99.5187 45.397 104.609 31.427 101.769C17.477 98.9287 16.2169 86.4187 7.97695 88.2887C6.63695 88.5987 3.60699 90.5287 0.516989 92.4687C-3.32301 136.129 41.517 148.179 62.617 148.179Z" fill="#FFE8DB"/>
<path d="M44.647 115.069C44.647 115.069 47.117 138.169 62.257 138.299C78.887 138.439 80.4769 115.509 80.4769 115.509C74.7069 95.1388 50.527 93.6188 44.647 115.069Z" fill="#F8D4C2"/>
<path d="M62.6167 97.1289C48.8267 97.1289 40.0068 102.439 43.5668 112.339C45.7968 118.559 55.1567 116.969 62.6167 117.159C70.0767 116.969 79.4367 118.559 81.6667 112.339C85.2267 102.439 76.3967 97.1289 62.6167 97.1289Z" fill="#FFF9F1"/>
<path d="M62.6165 74.9287C57.0365 74.9787 49.9565 101.219 49.9565 101.219L75.3565 102.079C75.3565 102.079 68.1965 74.9787 62.6165 74.9287Z" fill="#FFA243"/>
<path d="M75.3566 102.079C75.3866 106.079 69.4366 106.899 62.7066 113.889C57.0766 107.959 49.9066 106.209 49.8766 102.209C49.8466 98.2087 54.0166 93.9387 62.3666 93.8987C70.7166 93.8587 75.3266 98.0787 75.3566 102.079Z" fill="#3B262B"/>
<path d="M74.4166 104.519C72.3066 102.909 68.6066 102.069 66.9166 103.659C64.5666 105.859 66.4766 109.229 69.3966 108.119C69.6033 108.039 69.8133 107.965 70.0266 107.899C71.9466 106.599 73.4966 105.619 74.4166 104.519Z" fill="#22131A"/>
<path d="M51.1865 104.979C52.0165 105.829 53.1765 106.649 54.5165 107.539C55.2432 107.712 55.9598 107.925 56.6665 108.179C59.6065 109.259 61.4565 105.879 59.0765 103.699C57.2465 102.029 53.1665 103.129 51.1865 104.979Z" fill="#22131A"/>
<path d="M51.5265 100.669C51.1565 98.4188 62.3665 95.0888 63.4865 97.6188C64.0265 98.8688 60.9665 99.1188 57.9665 99.8888C54.8265 100.689 51.7365 101.959 51.5265 100.669Z" fill="#FFFAFF"/>
<path d="M66.0768 98.2689C66.1968 96.2589 70.3068 96.5789 70.2268 98.4689C70.1568 100.349 65.9968 99.4989 66.0768 98.2689Z" fill="#FFFAFF"/>
<path d="M62.7468 121.319C61.8268 121.299 61.0868 120.839 61.0968 120.299L61.2968 106.389C61.3068 105.839 62.0668 105.409 62.9868 105.429C63.9068 105.449 64.6468 105.899 64.6368 106.449L64.4268 120.359C64.4268 120.899 63.6668 121.329 62.7468 121.319Z" fill="#3B262B"/>
<path d="M53.0869 122.839C53.0869 132.429 55.1269 134.719 62.6169 134.719C70.1069 134.719 72.1469 132.429 72.1469 122.839L62.8669 117.359L53.0869 122.839Z" fill="#9A282A"/>
<path d="M62.5568 128.749C58.7368 127.519 55.8569 128.279 54.0269 130.469C55.2369 133.729 57.7768 134.719 62.6168 134.719C67.4368 134.719 69.9768 133.739 71.1968 130.509C69.4668 128.269 66.7568 127.449 62.5568 128.749Z" fill="#FF5C68"/>
<path d="M53.0866 124.259C52.5966 124.259 52.1065 123.999 51.8565 123.529C51.4665 122.849 51.7166 121.989 52.3966 121.609C57.6566 118.659 61.8165 116.039 61.8565 116.009C62.5165 115.599 63.3966 115.799 63.8066 116.459C64.2266 117.119 64.0266 117.989 63.3666 118.409C63.3266 118.429 59.1066 121.089 53.7766 124.079C53.5566 124.199 53.3266 124.259 53.0866 124.259Z" fill="#3B262B"/>
<path d="M72.1467 124.259C71.8934 124.259 71.6534 124.192 71.4267 124.059L61.8967 118.428C61.2267 118.028 60.9967 117.158 61.3967 116.488C61.7967 115.818 62.6567 115.598 63.3367 115.988L72.8667 121.629C73.5367 122.019 73.7567 122.888 73.3567 123.558C73.0967 124.008 72.6267 124.259 72.1467 124.259Z" fill="#3B262B"/>
<g style="mix-blend-mode:multiply" opacity="0.15">
<path d="M121.737 77.4487C130.117 126.019 83.887 139.189 62.617 139.189C41.347 139.189 -4.89305 126.019 3.48695 77.4487C-13.1231 133.429 39.267 148.179 62.617 148.179C85.957 148.179 138.347 133.429 121.737 77.4487Z" fill="#ED8954"/>
</g>
<path d="M33.9866 96.5389C33.7533 96.5389 33.5167 96.5289 33.2767 96.5089C31.0967 96.3089 29.1366 95.2489 27.7466 93.5089C26.3766 91.7889 25.7266 89.6089 25.9266 87.3789C26.3166 83.0589 29.8966 79.6689 34.0766 79.6689C34.31 79.6689 34.5466 79.6789 34.7866 79.6989C36.9566 79.8989 38.9266 80.9589 40.3166 82.6989C41.6866 84.4189 42.3366 86.5989 42.1366 88.8289C41.7466 93.1489 38.1666 96.5389 33.9866 96.5389Z" fill="white"/>
<path fill-rule="evenodd" clip-rule="evenodd" d="M34.8967 78.4687C37.4067 78.6987 39.6767 79.9187 41.2767 81.9287C42.8567 83.8987 43.5967 86.3887 43.3667 88.9387C42.9167 93.9787 38.8866 97.7787 33.9866 97.7787C33.7133 97.7787 33.44 97.7654 33.1666 97.7387C28.0166 97.2787 24.2167 92.5787 24.6967 87.2687C25.1467 82.2287 29.1767 78.4287 34.0767 78.4287C34.35 78.4287 34.6233 78.442 34.8967 78.4687ZM27.1566 87.4887C26.7966 91.4487 29.5867 94.9287 33.3867 95.2787C33.5867 95.2921 33.7866 95.2987 33.9866 95.2987C37.5266 95.2987 40.5666 92.4687 40.9066 88.7187C41.2566 84.7587 38.4766 81.2787 34.6766 80.9287C34.4766 80.9154 34.2767 80.9087 34.0767 80.9087C30.5267 80.9087 27.4966 83.7387 27.1566 87.4887Z" fill="#3B262B"/>
<path d="M91.2264 96.5389C86.9264 96.5389 83.3464 93.0489 83.0764 88.5989C82.9364 86.3589 83.6464 84.199 85.0764 82.519C86.5164 80.819 88.5064 79.809 90.6864 79.679C90.8464 79.6723 91.0064 79.6689 91.1664 79.6689C95.4664 79.6689 99.0565 83.1489 99.3265 87.5989C99.6065 92.2489 96.1965 96.249 91.7165 96.519C91.5498 96.5323 91.3864 96.5389 91.2264 96.5389Z" fill="white"/>
<path fill-rule="evenodd" clip-rule="evenodd" d="M100.557 87.5287C100.717 90.0887 99.8966 92.5587 98.2666 94.4787C96.6066 96.4387 94.3065 97.5987 91.7865 97.7587C91.5999 97.7654 91.4132 97.7687 91.2265 97.7687C86.2765 97.7687 82.1565 93.7787 81.8465 88.6687C81.6865 86.1187 82.4966 83.6487 84.1366 81.7187C85.7866 79.7587 88.0865 78.5987 90.6065 78.4487C90.7999 78.4354 90.9865 78.4287 91.1665 78.4287C96.1265 78.4287 100.247 82.4287 100.557 87.5287ZM90.7566 80.9187C86.9566 81.1487 84.0666 84.5487 84.3066 88.5187C84.5466 92.3487 87.6065 95.2987 91.2265 95.2987C91.3665 95.2987 91.5032 95.2954 91.6366 95.2887C95.4466 95.0587 98.3266 91.6487 98.0866 87.6787C97.8566 83.8587 94.7965 80.8987 91.1665 80.8987C91.0332 80.8987 90.8966 80.9054 90.7566 80.9187Z" fill="#3B262B"/>
</svg>
