<svg width="126" height="149" viewBox="0 0 126 149" fill="none" xmlns="http://www.w3.org/2000/svg">
<path d="M44.3969 38.3985C29.1269 23.9585 25.5869 -1.49148 14.0569 0.0685197C6.01691 1.14852 0.356933 27.5385 0.0169328 42.2885C-0.453067 61.9885 8.97694 78.1485 13.8969 80.5685C30.2769 85.6085 44.3969 38.3985 44.3969 38.3985Z" fill="#E66522"/>
<path d="M18.6668 66.4984C17.9934 66.5984 17.2968 66.5351 16.5768 66.3084C12.8168 65.1584 9.5268 60.4784 7.9668 54.9184C4.0268 40.8984 6.48675 20.2784 11.0967 7.54842C13.1267 1.93842 16.5967 2.61842 18.5967 6.05842C21.5467 11.1084 24.7167 17.1384 26.9067 21.2784C29.9967 27.1484 31.9568 30.8084 33.4168 33.1484C34.0468 34.1584 34.2868 35.3084 34.0668 36.3784C31.4768 49.3484 25.5568 65.4984 18.6668 66.4984Z" fill="#FFE8DB"/>
<path d="M14.6867 52.9486C14.6867 52.9486 17.5967 42.6586 15.0267 41.9086C12.4567 41.1586 11.0967 42.2486 11.0967 42.2486C11.0967 42.2486 16.1967 34.2586 14.4167 33.4386C12.6367 32.6186 11.0967 33.7286 11.0967 33.7286C11.0967 33.7286 15.4867 25.7186 14.0167 25.1286C12.5567 24.5486 11.6567 25.3386 11.6567 25.3386C11.6567 25.3386 15.2367 19.2586 15.0967 18.0286C14.9567 16.7986 12.7467 16.8986 12.7467 16.8986C12.7467 16.8986 16.4467 13.3786 16.2967 10.2886C16.7067 15.0486 18.8667 17.1686 20.4367 17.0286C18.3767 17.3886 19.8367 21.9586 23.3167 24.8586C19.7467 24.0086 21.8867 28.0886 25.4967 30.7486C19.9167 30.4786 23.5667 34.9486 27.7567 39.0286C30.1767 41.3786 25.5067 55.0286 21.0667 58.2186C17.8367 60.5486 14.6867 52.9486 14.6867 52.9486Z" fill="#F8D4C2"/>
<path d="M80.8369 38.3985C96.1069 23.9585 99.6369 -1.49148 111.167 0.0685197C119.217 1.14852 124.867 27.5385 125.217 42.2885C125.677 61.9885 116.257 78.1485 111.327 80.5685C94.9469 85.6085 80.8369 38.3985 80.8369 38.3985Z" fill="#E66522"/>
<path d="M106.567 66.4984C107.24 66.5984 107.937 66.5351 108.657 66.3084C112.417 65.1584 115.697 60.4784 117.267 54.9184C121.207 40.8984 118.747 20.2784 114.137 7.54842C112.107 1.93842 108.637 2.61842 106.627 6.05842C103.687 11.1084 100.507 17.1384 98.3268 21.2784C95.2368 27.1484 93.2768 30.8084 91.8168 33.1484C91.1868 34.1584 90.9468 35.3084 91.1568 36.3784C93.7468 49.3484 99.6668 65.4984 106.567 66.4984Z" fill="#FFE8DB"/>
<path d="M110.547 52.9486C110.547 52.9486 107.637 42.6586 110.207 41.9086C112.777 41.1586 114.137 42.2486 114.137 42.2486C114.137 42.2486 109.027 34.2586 110.817 33.4386C112.597 32.6186 114.137 33.7286 114.137 33.7286C114.137 33.7286 109.747 25.7186 111.207 25.1286C112.677 24.5486 113.567 25.3386 113.567 25.3386C113.567 25.3386 109.987 19.2586 110.127 18.0286C110.277 16.7986 112.477 16.8986 112.477 16.8986C112.477 16.8986 108.777 13.3786 108.927 10.2886C108.517 15.0486 106.367 17.1686 104.787 17.0286C106.847 17.3886 105.397 21.9586 101.917 24.8586C105.487 24.0086 103.347 28.0886 99.7368 30.7486C105.317 30.4786 101.667 34.9486 97.4768 39.0286C95.0568 41.3786 99.7268 55.0286 104.157 58.2186C107.397 60.5486 110.547 52.9486 110.547 52.9486Z" fill="#F8D4C2"/>
<path d="M119.837 71.6785C113.807 55.0685 97.757 33.5085 83.567 32.0085C81.567 31.7985 72.087 31.6885 62.617 31.6885C53.137 31.6885 43.667 31.7985 41.667 32.0085C27.467 33.5085 11.427 55.0685 5.38704 71.6785C-16.673 132.428 38.487 148.178 62.617 148.178C86.737 148.178 141.907 132.428 119.837 71.6785Z" fill="#FF8D39"/>
<path d="M62.617 148.179C83.717 148.179 128.557 136.129 124.707 92.4687C121.627 90.5287 118.587 88.5987 117.257 88.2887C109.017 86.4187 107.747 98.9287 93.807 101.769C79.837 104.599 80.417 99.5187 62.617 99.5187C44.817 99.5187 45.397 104.599 31.427 101.769C17.477 98.9287 16.2169 86.4187 7.97695 88.2887C6.63695 88.5987 3.60699 90.5287 0.516989 92.4687C-3.32301 136.129 41.517 148.179 62.617 148.179Z" fill="#FFE8DB"/>
<path d="M44.647 115.069C44.647 115.069 47.117 138.169 62.257 138.299C78.887 138.439 80.4769 115.509 80.4769 115.509C74.7069 95.1388 50.527 93.6188 44.647 115.069Z" fill="#F8D4C2"/>
<path d="M62.6167 97.1289C48.8267 97.1289 40.0068 102.439 43.5668 112.339C45.7968 118.559 55.1567 116.959 62.6167 117.159C70.0767 116.959 79.4367 118.559 81.6667 112.339C85.2267 102.439 76.3967 97.1289 62.6167 97.1289Z" fill="#FFF9F1"/>
<path d="M62.617 74.9287C57.037 74.9787 49.957 101.219 49.957 101.219L75.357 102.079C75.357 102.079 68.197 74.9787 62.617 74.9287Z" fill="#FFA243"/>
<path d="M75.3571 102.079C75.3871 106.079 69.4371 106.899 62.7071 113.889C57.0771 107.959 49.9071 106.209 49.8771 102.209C49.8471 98.2087 54.0171 93.9387 62.3671 93.8987C70.7171 93.8587 75.3271 98.0787 75.3571 102.079Z" fill="#3B262B"/>
<path d="M74.417 104.519C72.307 102.909 68.607 102.069 66.917 103.659C64.567 105.859 66.4771 109.229 69.3971 108.119C69.6038 108.039 69.8138 107.965 70.0271 107.899C71.9471 106.609 73.497 105.619 74.417 104.519Z" fill="#22131A"/>
<path d="M51.187 104.979C52.017 105.829 53.177 106.649 54.517 107.539C55.2437 107.712 55.9603 107.925 56.667 108.179C59.607 109.259 61.457 105.879 59.077 103.699C57.247 102.029 53.167 103.129 51.187 104.979Z" fill="#22131A"/>
<path d="M51.527 100.669C51.157 98.4188 62.367 95.0888 63.487 97.6188C64.027 98.8688 60.967 99.1188 57.967 99.8888C54.827 100.689 51.737 101.959 51.527 100.669Z" fill="#FFFAFF"/>
<path d="M66.0773 98.2689C66.1973 96.2589 70.3073 96.5789 70.2273 98.4689C70.1573 100.349 65.9973 99.4989 66.0773 98.2689Z" fill="#FFFAFF"/>
<path d="M62.7468 121.319C61.8268 121.299 61.0868 120.839 61.0968 120.299L61.2968 106.389C61.3068 105.839 62.0668 105.409 62.9868 105.429C63.9068 105.449 64.6468 105.899 64.6368 106.449L64.4268 120.359C64.4268 120.899 63.6668 121.329 62.7468 121.319Z" fill="#3B262B"/>
<path d="M49.0469 117.359C49.0469 126.949 55.1269 134.719 62.6169 134.719C70.1069 134.719 76.1769 126.949 76.1769 117.359H49.0469Z" fill="#9A282A"/>
<path d="M62.6169 134.719C66.5869 134.719 70.1369 132.529 72.6169 129.049C71.0969 124.989 68.1569 123.039 62.6169 124.749C57.5269 123.119 54.1369 124.989 52.6069 129.049C55.0869 132.529 58.6469 134.719 62.6169 134.719Z" fill="#FF5C68"/>
<path d="M52.5969 119.379C46.9869 119.379 43.3969 114.669 42.3069 109.859C42.1269 109.099 42.6069 108.339 43.3669 108.159C44.1269 107.989 44.8869 108.469 45.0569 109.229C45.8669 112.759 48.4569 116.789 53.0069 116.539C60.9369 116.099 62.2469 115.839 62.2969 115.829C63.0469 115.679 63.7869 116.139 63.9669 116.879C64.1469 117.619 63.7269 118.359 62.9969 118.569C62.3169 118.759 58.6369 119.059 53.1669 119.369C52.9735 119.375 52.7835 119.379 52.5969 119.379Z" fill="#3B262B"/>
<path d="M72.6368 119.379C72.4501 119.379 72.2601 119.375 72.0668 119.369C66.5868 119.059 62.9168 118.759 62.2268 118.569C61.4768 118.359 61.0468 117.579 61.2568 116.829C61.4668 116.079 62.2468 115.639 62.9968 115.849C63.0168 115.849 64.3768 116.109 72.2268 116.539C76.8768 116.809 79.3668 112.759 80.1668 109.229C80.3468 108.469 81.1068 107.999 81.8668 108.159C82.6268 108.339 83.0968 109.089 82.9268 109.859C81.8268 114.669 78.2368 119.379 72.6368 119.379Z" fill="#3B262B"/>
<path d="M28.3071 70.7487C29.6571 70.0587 35.9171 70.7087 41.5571 70.1887C47.6871 69.6087 51.4171 64.8187 52.9971 66.1287C55.7971 68.4687 49.9871 75.0087 42.2871 75.6687C34.8671 76.2987 24.6871 72.5787 28.3071 70.7487Z" fill="#FFC286"/>
<path d="M96.9271 70.7487C95.5771 70.0587 89.3171 70.7087 83.6771 70.1887C77.5471 69.6087 73.8171 64.8187 72.2371 66.1287C69.4271 68.4687 75.2471 75.0087 82.9471 75.6687C90.3571 76.2987 100.547 72.5787 96.9271 70.7487Z" fill="#FFC286"/>
<g style="mix-blend-mode:multiply" opacity="0.15">
<path d="M121.737 77.4487C130.117 126.019 83.887 139.189 62.617 139.189C41.347 139.189 -4.89305 126.019 3.48695 77.4487C-13.1231 133.429 39.267 148.179 62.617 148.179C85.957 148.179 138.347 133.429 121.737 77.4487Z" fill="#ED8954"/>
</g>
<path d="M27.1067 93.8987C26.1467 93.8987 25.3167 93.1787 25.1867 92.1987C25.0467 91.1387 25.7967 90.1587 26.8667 90.0287L38.7168 88.4987L29.8467 81.6587C28.9967 80.9987 28.8367 79.7787 29.4867 78.9287C30.1467 78.0787 31.3668 77.9187 32.2168 78.5787L44.8067 88.2787C45.4367 88.7687 45.7067 89.5687 45.4967 90.3287C45.2967 91.0887 44.6467 91.6487 43.8767 91.7487L27.3667 93.8787C27.2801 93.892 27.1934 93.8987 27.1067 93.8987Z" fill="#3B262B"/>
<path d="M98.0069 93.8987C97.9269 93.8987 97.8435 93.892 97.7569 93.8787L81.2469 91.7487C80.4769 91.6487 79.8269 91.0887 79.6269 90.3287C79.4169 89.5687 79.6869 88.7687 80.3169 88.2787L92.9068 78.5787C93.7568 77.9187 94.9769 78.0787 95.6369 78.9287C96.2869 79.7787 96.1269 80.9987 95.2769 81.6587L86.3969 88.4987L98.2569 90.0287C99.3169 90.1587 100.077 91.1387 99.9369 92.1987C99.8069 93.1787 98.9769 93.8987 98.0069 93.8987Z" fill="#3B262B"/>
<path d="M30.707 93.4786C30.707 95.3586 28.6169 96.8786 26.0369 96.8786C23.4469 96.8786 21.3569 95.3586 21.3569 93.4786C21.3569 91.5986 23.4469 90.0786 26.0369 90.0786C28.6169 90.0786 30.707 91.5986 30.707 93.4786Z" fill="#9DD2ED"/>
<path d="M103.767 93.4786C103.767 95.3586 101.667 96.8786 99.087 96.8786C96.507 96.8786 94.417 95.3586 94.417 93.4786C94.417 91.5986 96.507 90.0786 99.087 90.0786C101.667 90.0786 103.767 91.5986 103.767 93.4786Z" fill="#9DD2ED"/>
</svg>
