<svg width="126" height="149" viewBox="0 0 126 149" fill="none" xmlns="http://www.w3.org/2000/svg">
<path d="M44.3962 38.3985C29.1262 23.9585 25.5962 -1.49148 14.0662 0.0685197C6.01624 1.14852 0.366249 27.5385 0.0162489 42.2885C-0.443751 61.9885 8.9762 78.1485 13.9062 80.5685C30.2862 85.6085 44.3962 38.3985 44.3962 38.3985Z" fill="#E66522"/>
<path d="M18.6663 66.4984C17.993 66.5984 17.2963 66.5351 16.5763 66.3084C12.8163 65.1584 9.5363 60.4784 7.9663 54.9184C4.0263 40.8984 6.4863 20.2784 11.0963 7.54841C13.1263 1.93841 16.5963 2.61842 18.6063 6.05842C21.5563 11.1084 24.7263 17.1384 26.9063 21.2784C29.9963 27.1484 31.9663 30.8084 33.4263 33.1484C34.0463 34.1584 34.2863 35.3084 34.0763 36.3784C31.4863 49.3484 25.5663 65.4984 18.6663 66.4984Z" fill="#FFE8DB"/>
<path d="M14.6862 52.9486C14.6862 52.9486 17.5962 42.6586 15.0262 41.9086C12.4562 41.1586 11.0962 42.2486 11.0962 42.2486C11.0962 42.2486 16.2062 34.2586 14.4262 33.4386C12.6362 32.6186 11.0962 33.7286 11.0962 33.7286C11.0962 33.7286 15.4862 25.7186 14.0262 25.1286C12.5662 24.5486 11.6662 25.3386 11.6662 25.3386C11.6662 25.3386 15.2462 19.2586 15.1062 18.0286C14.9562 16.7986 12.7562 16.8986 12.7562 16.8986C12.7562 16.8986 16.4562 13.3786 16.3062 10.2886C16.7162 15.0486 18.8662 17.1686 20.4462 17.0286C18.3862 17.3886 19.8362 21.9586 23.3162 24.8586C19.7462 24.0086 21.8862 28.0886 25.4962 30.7486C19.9162 30.4786 23.5662 34.9486 27.7562 39.0286C30.1762 41.3786 25.5062 55.0286 21.0762 58.2186C17.8362 60.5486 14.6862 52.9486 14.6862 52.9486Z" fill="#F8D4C2"/>
<path d="M80.8359 38.3985C96.1059 23.9585 99.646 -1.49148 111.176 0.0685197C119.216 1.14852 124.876 27.5385 125.226 42.2885C125.686 61.9885 116.256 78.1485 111.336 80.5685C94.9559 85.6085 80.8359 38.3985 80.8359 38.3985Z" fill="#E66522"/>
<path d="M106.566 66.4984C107.239 66.5984 107.936 66.5351 108.656 66.3084C112.416 65.1584 115.706 60.4784 117.266 54.9184C121.206 40.8984 118.746 20.2784 114.136 7.54841C112.106 1.93841 108.636 2.61842 106.636 6.05842C103.686 11.1084 100.516 17.1384 98.3259 21.2784C95.2359 27.1484 93.2759 30.8084 91.8159 33.1484C91.1859 34.1584 90.9458 35.3084 91.1658 36.3784C93.7558 49.3484 99.6759 65.4984 106.566 66.4984Z" fill="#FFE8DB"/>
<path d="M110.546 52.9486C110.546 52.9486 107.636 42.6586 110.206 41.9086C112.776 41.1586 114.146 42.2486 114.146 42.2486C114.146 42.2486 109.036 34.2586 110.816 33.4386C112.596 32.6186 114.136 33.7286 114.136 33.7286C114.136 33.7286 109.746 25.7186 111.216 25.1286C112.676 24.5486 113.576 25.3386 113.576 25.3386C113.576 25.3386 109.996 19.2586 110.136 18.0286C110.276 16.7986 112.486 16.8986 112.486 16.8986C112.486 16.8986 108.786 13.3786 108.936 10.2886C108.526 15.0486 106.366 17.1686 104.796 17.0286C106.856 17.3886 105.406 21.9586 101.916 24.8586C105.496 24.0086 103.356 28.0886 99.7357 30.7486C105.326 30.4786 101.666 34.9486 97.4757 39.0286C95.0557 41.3786 99.7257 55.0286 104.166 58.2186C107.396 60.5486 110.546 52.9486 110.546 52.9486Z" fill="#F8D4C2"/>
<path d="M119.846 71.6785C113.816 55.0685 97.7664 33.5085 83.5764 32.0085C81.5664 31.7985 72.0964 31.6885 62.6164 31.6885C53.1464 31.6885 43.6764 31.7985 41.6664 32.0085C27.4764 33.5085 11.4263 55.0685 5.39633 71.6785C-16.6737 132.428 38.4964 148.178 62.6164 148.178C86.7464 148.178 141.916 132.428 119.846 71.6785Z" fill="#FF8D39"/>
<path d="M32.4063 96.0286C32.2063 96.0286 32.0163 95.972 31.8363 95.8586C25.7063 91.8186 23.8563 84.9386 27.4363 79.4986C29.1563 76.8886 31.6463 75.0286 34.4663 74.2786C37.4063 73.4986 40.4363 73.9886 42.9963 75.6686C47.6463 78.7286 48.9363 84.9986 45.8863 89.6486C43.2063 93.7186 37.7263 94.8486 33.6563 92.1786C30.0963 89.8386 29.0963 85.0286 31.4363 81.4586C32.4363 79.9386 33.9663 78.8986 35.7463 78.5386C37.5363 78.1686 39.3463 78.5186 40.8563 79.5186C43.6463 81.3486 44.3763 84.8086 42.5663 87.5686C41.0263 89.9086 38.7263 90.5486 36.5663 89.2486C35.3363 88.5186 34.5763 87.2486 34.5663 85.9486C34.5663 84.7986 35.1463 83.7786 36.1563 83.1586C36.6563 82.8586 37.2963 83.0186 37.5963 83.5086C37.8963 83.9986 37.7463 84.6486 37.2463 84.9486C36.7663 85.2486 36.6663 85.6486 36.6763 85.9386C36.6763 86.5086 37.0463 87.0886 37.6463 87.4486C38.0863 87.7086 39.4263 88.5186 40.8063 86.4186C41.3763 85.5486 41.5763 84.5586 41.3763 83.6186C41.1763 82.6786 40.5863 81.8486 39.7063 81.2686C38.6563 80.5786 37.4063 80.3386 36.1763 80.5886C34.9463 80.8486 33.8863 81.5686 33.1963 82.6086C31.4863 85.2086 32.2163 88.7186 34.8063 90.4186C37.9063 92.4586 42.0863 91.5986 44.1263 88.4986C46.5463 84.8186 45.5163 79.8486 41.8363 77.4286C37.6463 74.6686 32.2163 76.0586 29.1963 80.6486C26.2263 85.1486 27.7863 90.6786 32.9863 94.0986C33.4763 94.4186 33.6063 95.0686 33.2863 95.5486C33.0863 95.8586 32.7463 96.0286 32.4063 96.0286Z" fill="#3B262B"/>
<path d="M84.4864 96.0286C84.2864 96.0286 84.0963 95.972 83.9163 95.8586C77.7863 91.8186 75.9364 84.9386 79.5164 79.4986C81.2364 76.8886 83.7264 75.0286 86.5464 74.2786C89.4864 73.4986 92.5164 73.9886 95.0764 75.6686C99.7264 78.7286 101.016 84.9986 97.9663 89.6486C95.2863 93.7186 89.8064 94.8586 85.7364 92.1786C84.0064 91.0386 82.8263 89.2986 82.4063 87.2786C81.9863 85.2586 82.3864 83.1886 83.5164 81.4586C84.5164 79.9386 86.0464 78.8986 87.8264 78.5386C89.6164 78.1686 91.4264 78.5186 92.9364 79.5186C95.7264 81.3486 96.4563 84.8086 94.6463 87.5686C93.1063 89.9086 90.8063 90.5386 88.6463 89.2486C87.4263 88.5186 86.6563 87.2486 86.6563 85.9486C86.6463 84.7986 87.2264 83.7786 88.2364 83.1586C88.7264 82.8586 89.3764 83.0186 89.6764 83.5086C89.9764 83.9986 89.8264 84.6486 89.3264 84.9486C88.8464 85.2486 88.7464 85.6486 88.7564 85.9386C88.7564 86.5086 89.1263 87.0886 89.7263 87.4486C90.1663 87.7086 91.5064 88.5186 92.8864 86.4186C93.4564 85.5486 93.6563 84.5586 93.4563 83.6186C93.2563 82.6786 92.6663 81.8486 91.7863 81.2686C90.7363 80.5786 89.4864 80.3386 88.2564 80.5886C87.0264 80.8486 85.9663 81.5686 85.2763 82.6086C83.5663 85.2086 84.2964 88.7186 86.8864 90.4186C89.9964 92.4586 94.1663 91.5986 96.2063 88.4986C98.6263 84.8186 97.6063 79.8486 93.9163 77.4286C89.7263 74.6686 84.2863 76.0586 81.2763 80.6486C78.3163 85.1486 79.8764 90.6786 85.0664 94.0986C85.5564 94.4186 85.6864 95.0686 85.3664 95.5486C85.1664 95.8586 84.8264 96.0286 84.4864 96.0286Z" fill="#3B262B"/>
<path d="M62.616 148.179C83.716 148.179 128.556 136.129 124.716 92.4687C121.626 90.5287 118.596 88.5987 117.256 88.2887C109.016 86.4187 107.756 98.9287 93.806 101.769C79.836 104.609 80.416 99.5187 62.616 99.5187C44.816 99.5187 45.396 104.609 31.426 101.769C17.486 98.9287 16.216 86.4187 7.97599 88.2887C6.64599 88.5987 3.60597 90.5287 0.525974 92.4687C-3.32403 136.129 41.516 148.179 62.616 148.179Z" fill="#FFE8DB"/>
<path d="M44.7061 114.299C44.7061 114.299 47.2561 131.079 62.3961 131.219C79.0261 131.379 80.5261 114.739 80.5261 114.739C74.6961 99.9286 50.5061 98.7486 44.7061 114.299Z" fill="#F8D4C2"/>
<path d="M62.6163 97.1289C48.8363 97.1289 40.0163 103.599 43.5663 115.669C44.5863 119.129 47.0963 120.599 50.2163 121.199C51.8063 120.039 53.8264 119.319 56.3264 119.319C58.3764 119.319 60.1063 119.809 61.5363 120.629C62.9963 119.759 64.7564 119.199 66.8864 119.199C69.6164 119.199 71.7863 120.079 73.4163 121.439C77.2763 121.029 80.4863 119.699 81.6763 115.669C85.2263 103.599 76.4063 97.1289 62.6163 97.1289Z" fill="#FFF9F1"/>
<path d="M62.6163 74.9287C57.0363 74.9787 49.9663 101.219 49.9663 101.219L75.3563 102.079C75.3563 102.079 68.1963 74.9787 62.6163 74.9287Z" fill="#FFA243"/>
<path d="M50.0965 122.919C47.0165 122.919 44.4465 120.839 43.4765 118.729C43.1565 118.019 43.4666 117.179 44.1766 116.859C44.8866 116.539 45.7266 116.849 46.0466 117.549C46.5466 118.649 48.2166 120.189 50.2366 120.099C51.0466 120.069 51.5266 119.719 52.2366 119.199C53.1866 118.519 54.3566 117.659 56.4266 117.629C58.1466 117.629 59.3165 118.139 60.3465 118.599C61.1465 118.949 61.8366 119.259 62.7466 119.329C63.5166 119.399 64.0965 120.089 64.0265 120.859C63.9565 121.639 63.2666 122.219 62.4966 122.149C61.1266 122.029 60.1065 121.579 59.2065 121.179C58.2665 120.769 57.4565 120.439 56.4565 120.459C55.2965 120.469 54.7065 120.899 53.8965 121.489C53.0565 122.099 52.0065 122.859 50.3365 122.919C50.2565 122.919 50.1765 122.919 50.0965 122.919Z" fill="#3B262B"/>
<path d="M75.1365 122.919C75.0632 122.919 74.9865 122.919 74.9065 122.919C73.2265 122.859 72.1865 122.099 71.3365 121.489C70.5265 120.899 69.9465 120.469 68.7765 120.459C67.7265 120.429 66.9765 120.769 66.0365 121.179C65.1365 121.579 64.1165 122.029 62.7465 122.149C61.9665 122.219 61.2765 121.639 61.2065 120.859C61.1465 120.089 61.7165 119.399 62.4965 119.329C63.3965 119.259 64.0965 118.949 64.8965 118.599C65.9265 118.139 67.0865 117.629 68.7165 117.629C70.8765 117.659 72.0565 118.519 72.9965 119.199C73.7165 119.719 74.1965 120.069 75.0065 120.099C77.0365 120.179 78.6865 118.649 79.1965 117.559C79.5165 116.849 80.3565 116.539 81.0665 116.859C81.7765 117.179 82.0865 118.019 81.7665 118.729C80.7965 120.839 78.2265 122.919 75.1365 122.919Z" fill="#3B262B"/>
<path d="M75.3561 102.079C75.3961 106.079 69.4361 106.899 62.7161 113.889C57.0761 107.959 49.9061 106.209 49.8761 102.209C49.8461 98.2087 54.0161 93.9387 62.3661 93.8987C70.7261 93.8587 75.3261 98.0787 75.3561 102.079Z" fill="#3B262B"/>
<path d="M74.4263 104.519C72.3163 102.909 68.6163 102.069 66.9263 103.659C64.5763 105.859 66.4863 109.229 69.4063 108.119C69.613 108.039 69.8196 107.965 70.0263 107.899C71.9563 106.599 73.5063 105.619 74.4263 104.519Z" fill="#22131A"/>
<path d="M51.1963 104.979C52.0163 105.829 53.1763 106.649 54.5163 107.539C55.243 107.712 55.9596 107.925 56.6663 108.179C59.6063 109.259 61.4563 105.879 59.0763 103.699C57.2463 102.029 53.1663 103.129 51.1963 104.979Z" fill="#22131A"/>
<path d="M51.526 100.669C51.156 98.4188 62.3761 95.0888 63.4861 97.6188C64.0361 98.8688 60.976 99.1188 57.966 99.8888C54.836 100.689 51.736 101.959 51.526 100.669Z" fill="#FFFAFF"/>
<path d="M66.0763 98.2689C66.2063 96.2589 70.3063 96.5789 70.2363 98.4689C70.1663 100.349 65.9963 99.4989 66.0763 98.2689Z" fill="#FFFAFF"/>
<path d="M62.7562 121.319C61.8362 121.299 61.0962 120.839 61.0962 120.299L61.3062 106.389C61.3162 105.839 62.0662 105.409 62.9862 105.429C63.9062 105.449 64.6462 105.899 64.6362 106.449L64.4362 120.359C64.4262 120.899 63.6762 121.329 62.7562 121.319Z" fill="#3B262B"/>
<path d="M27.5161 64.4484C27.3561 61.0384 40.5761 58.0184 41.5761 63.0084C42.5761 67.9884 27.6261 66.8784 27.5161 64.4484Z" fill="#FFC286"/>
<path d="M98.5763 64.4484C98.7363 61.0384 85.5163 58.0184 84.5163 63.0084C83.5163 67.9884 98.4663 66.8784 98.5763 64.4484Z" fill="#FFC286"/>
<g style="mix-blend-mode:multiply" opacity="0.15">
<path d="M121.746 77.4487C130.126 126.019 83.8962 139.189 62.6162 139.189C41.3462 139.189 -4.88375 126.019 3.49625 77.4487C-13.1138 133.429 39.2762 148.179 62.6162 148.179C85.9662 148.179 138.356 133.429 121.746 77.4487Z" fill="#ED8954"/>
</g>
</svg>
