<svg width="126" height="149" viewBox="0 0 126 149" fill="none" xmlns="http://www.w3.org/2000/svg">
<path d="M44.4062 38.3985C29.1262 23.9585 25.5962 -1.49148 14.0662 0.0685197C6.02624 1.14852 0.366249 27.5385 0.0162488 42.2885C-0.443751 61.9885 8.97623 78.1485 13.9062 80.5685C30.2862 85.6085 44.4062 38.3985 44.4062 38.3985Z" fill="#E66522"/>
<path d="M18.666 66.4984C17.9993 66.5984 17.306 66.5351 16.586 66.3084C12.816 65.1584 9.53597 60.4784 7.97597 54.9184C4.02597 40.8984 6.48597 20.2784 11.096 7.54841C13.126 1.93841 16.596 2.61842 18.606 6.05842C21.556 11.1084 24.726 17.1384 26.906 21.2784C30.006 27.1484 31.966 30.8084 33.426 33.1484C34.056 34.1584 34.296 35.3084 34.076 36.3784C31.486 49.3484 25.566 65.4984 18.666 66.4984Z" fill="#FFE8DB"/>
<path d="M14.6862 52.9486C14.6862 52.9486 17.6062 42.6586 15.0362 41.9086C12.4662 41.1586 11.0962 42.2486 11.0962 42.2486C11.0962 42.2486 16.2062 34.2586 14.4262 33.4386C12.6362 32.6186 11.1062 33.7286 11.1062 33.7286C11.1062 33.7286 15.4962 25.7186 14.0262 25.1286C12.5662 24.5486 11.6662 25.3386 11.6662 25.3386C11.6662 25.3386 15.2462 19.2586 15.1062 18.0286C14.9662 16.7986 12.7562 16.8986 12.7562 16.8986C12.7562 16.8986 16.4562 13.3786 16.3062 10.2886C16.7162 15.0486 18.8762 17.1686 20.4462 17.0286C18.3862 17.3886 19.8362 21.9586 23.3162 24.8586C19.7462 24.0086 21.8862 28.0886 25.4962 30.7486C19.9162 30.4786 23.5762 34.9486 27.7562 39.0286C30.1862 41.3786 25.5162 55.0286 21.0762 58.2186C17.8362 60.5486 14.6862 52.9486 14.6862 52.9486Z" fill="#F8D4C2"/>
<path d="M80.8462 38.3985C96.1162 23.9585 99.6462 -1.49148 111.176 0.0685197C119.216 1.14852 124.876 27.5385 125.226 42.2885C125.686 61.9885 116.266 78.1485 111.336 80.5685C94.9562 85.6085 80.8462 38.3985 80.8462 38.3985Z" fill="#E66522"/>
<path d="M106.576 66.4984C107.243 66.5984 107.94 66.5351 108.666 66.3084C112.426 65.1584 115.706 60.4784 117.276 54.9184C121.216 40.8984 118.756 20.2784 114.146 7.54841C112.116 1.93841 108.646 2.61842 106.636 6.05842C103.686 11.1084 100.516 17.1384 98.3363 21.2784C95.2363 27.1484 93.2763 30.8084 91.8163 33.1484C91.1863 34.1584 90.9463 35.3084 91.1663 36.3784C93.7563 49.3484 99.6763 65.4984 106.576 66.4984Z" fill="#FFE8DB"/>
<path d="M110.556 52.9486C110.556 52.9486 107.636 42.6586 110.206 41.9086C112.776 41.1586 114.146 42.2486 114.146 42.2486C114.146 42.2486 109.036 34.2586 110.816 33.4386C112.606 32.6186 114.136 33.7286 114.136 33.7286C114.136 33.7286 109.756 25.7186 111.216 25.1286C112.676 24.5486 113.576 25.3386 113.576 25.3386C113.576 25.3386 109.996 19.2586 110.136 18.0286C110.276 16.7986 112.486 16.8986 112.486 16.8986C112.486 16.8986 108.786 13.3786 108.936 10.2886C108.526 15.0486 106.366 17.1686 104.796 17.0286C106.856 17.3886 105.406 21.9586 101.926 24.8586C105.496 24.0086 103.356 28.0886 99.7463 30.7486C105.326 30.4786 101.666 34.9486 97.4863 39.0286C95.0563 41.3786 99.7263 55.0286 104.166 58.2186C107.406 60.5486 110.556 52.9486 110.556 52.9486Z" fill="#F8D4C2"/>
<path d="M119.846 71.6785C113.816 55.0685 97.7663 33.5085 83.5763 32.0085C81.5663 31.7985 72.0963 31.6885 62.6263 31.6885C53.1463 31.6885 43.6763 31.7985 41.6663 32.0085C27.4763 33.5085 11.4263 55.0685 5.3963 71.6785C-16.6737 132.428 38.4963 148.178 62.6263 148.178C86.7463 148.178 141.916 132.428 119.846 71.6785Z" fill="#FF8D39"/>
<path style="mix-blend-mode:multiply" opacity="0.67" d="M19.5363 75.6884C25.7463 82.3984 42.5864 76.8284 62.4964 76.8284C62.5497 76.8284 62.603 76.8284 62.6563 76.8284C62.6763 69.5184 62.6163 64.0384 62.6963 54.8884C42.6963 55.4584 22.1163 60.7584 17.9163 60.6484C16.6063 65.3184 16.1563 72.0384 19.5363 75.6884ZM17.9163 60.6484C22.1163 60.7584 42.6963 55.4584 62.6963 54.8884C62.7563 47.4684 62.6763 40.4584 62.6163 34.1084C47.7163 34.1084 34.4763 39.3184 26.1463 47.3784C22.1663 51.2384 19.3063 55.7484 17.9163 60.6484ZM62.6563 76.8284C82.5063 76.8584 99.4563 82.3984 105.696 75.6684C109.086 72.0184 108.636 65.3184 107.316 60.6484C98.9963 60.9884 81.5263 54.3584 62.6963 54.8884C62.6163 64.0384 62.6763 69.5184 62.6563 76.8284ZM62.6963 54.8884C81.5263 54.3584 98.9963 60.9884 107.316 60.6484C105.936 55.7484 103.076 51.2384 99.0963 47.3784C90.7663 39.3184 77.5263 34.1084 62.6163 34.1084C62.6763 40.4584 62.7563 47.4684 62.6963 54.8884Z" fill="url(#paint0_linear_139_992)"/>
<path d="M62.6263 148.179C83.7263 148.179 128.566 136.129 124.716 92.4687C121.636 90.5287 118.596 88.5987 117.266 88.2887C109.016 86.4187 107.756 98.9287 93.8063 101.769C79.8463 104.609 80.4163 99.5187 62.6263 99.5187C44.8263 99.5187 45.3963 104.609 31.4363 101.769C17.4863 98.9287 16.2263 86.4187 7.9763 88.2887C6.6463 88.5987 3.60631 90.5287 0.526314 92.4687C-3.31369 136.129 41.5163 148.179 62.6263 148.179Z" fill="#FFE8DB"/>
<path d="M44.7061 114.299C44.7061 114.299 47.2561 131.079 62.3961 131.219C79.0261 131.379 80.536 114.739 80.536 114.739C74.696 99.9286 50.5061 98.7486 44.7061 114.299Z" fill="#F8D4C2"/>
<path d="M42.1963 123.409C42.1963 132.989 50.7963 135.298 62.2663 135.298C73.7363 135.298 83.0263 133.688 83.0263 124.108L62.6963 117.938L42.1963 123.409Z" fill="#9A282A"/>
<path d="M62.6164 128.759C55.4564 127.129 50.6664 128.999 48.5264 133.059C48.633 133.159 48.7397 133.255 48.8463 133.349C52.3463 134.799 56.9964 135.299 62.2664 135.299C67.5764 135.299 72.4064 134.949 76.0764 133.619C76.2897 133.439 76.4997 133.252 76.7064 133.059C74.5564 128.999 70.4064 127.049 62.6164 128.759Z" fill="#FF5C68"/>
<path d="M62.6662 117.169C59.6662 117.169 54.0762 119.189 50.1162 119.669C51.0362 121.649 52.8562 124.629 54.1562 124.629C55.5762 124.629 56.8062 122.749 57.4862 121.609C58.1662 122.159 58.9062 123.069 59.8462 123.069C61.0062 123.069 62.0262 122.549 62.7462 121.749C63.4662 122.549 64.4862 123.069 65.6462 123.069C66.5862 123.069 67.5362 122.159 68.2062 121.609C68.8862 122.749 70.1262 124.629 71.5462 124.629C72.7962 124.629 74.6962 121.689 75.6962 119.649C71.7362 119.209 65.6362 117.169 62.6662 117.169Z" fill="white"/>
<path d="M62.6262 97.1289C48.8362 97.1289 36.4862 107.129 40.0362 119.199C42.2662 126.789 55.1562 116.939 62.6262 117.179C70.0862 116.939 82.9762 126.789 85.2062 119.199C88.7562 107.129 76.4062 97.1289 62.6262 97.1289Z" fill="#FFF9F1"/>
<path d="M62.6263 74.9287C57.0463 74.9787 49.9663 101.219 49.9663 101.219L75.3663 102.079C75.3663 102.079 68.1963 74.9787 62.6263 74.9287Z" fill="#FFA243"/>
<path d="M42.216 126.169C42.1093 126.169 42.0027 126.155 41.896 126.129C41.136 125.959 40.666 125.199 40.836 124.439C41.866 119.909 56.246 117.009 62.386 115.969C63.146 115.839 63.886 116.359 64.016 117.129C64.146 117.899 63.626 118.629 62.856 118.759C52.976 120.429 43.976 123.379 43.586 125.069C43.436 125.719 42.856 126.169 42.216 126.169Z" fill="#3B262B"/>
<path d="M83.026 126.169C82.386 126.169 81.806 125.719 81.656 125.069C81.266 123.379 72.266 120.429 62.386 118.759C61.616 118.629 61.096 117.899 61.226 117.129C61.356 116.359 62.086 115.849 62.856 115.969C68.996 117.009 83.376 119.909 84.406 124.439C84.586 125.199 84.106 125.959 83.346 126.129C83.2393 126.155 83.1327 126.169 83.026 126.169Z" fill="#3B262B"/>
<path d="M75.3662 102.079C75.3962 106.079 69.4462 106.899 62.7162 113.889C57.0862 107.959 49.9161 106.209 49.8761 102.209C49.8461 98.2087 54.0162 93.9387 62.3662 93.8987C70.7262 93.8587 75.3262 98.0787 75.3662 102.079Z" fill="#3B262B"/>
<path d="M74.4263 104.519C72.3163 102.909 68.6163 102.069 66.9263 103.659C64.5763 105.859 66.4863 109.229 69.4063 108.119C69.613 108.039 69.8197 107.965 70.0263 107.899C71.9563 106.599 73.5063 105.619 74.4263 104.519Z" fill="#22131A"/>
<path d="M51.1963 104.979C52.0163 105.829 53.1863 106.649 54.5263 107.539C55.2463 107.712 55.9596 107.925 56.6663 108.179C59.6063 109.259 61.4663 105.879 59.0763 103.699C57.2563 102.029 53.1763 103.129 51.1963 104.979Z" fill="#22131A"/>
<path d="M51.5261 100.669C51.1661 98.4188 62.3761 95.0888 63.4961 97.6188C64.0361 98.8688 60.9761 99.1188 57.9661 99.8888C54.8361 100.689 51.7361 101.959 51.5261 100.669Z" fill="#FFFAFF"/>
<path d="M66.0761 98.2689C66.2061 96.2589 70.3061 96.5789 70.2361 98.4689C70.1661 100.349 66.0061 99.4989 66.0761 98.2689Z" fill="#FFFAFF"/>
<path d="M62.8261 117.369C61.9061 117.349 61.1561 117.009 61.1661 116.599L61.3161 106.139C61.3161 105.729 62.0661 105.409 62.9861 105.429C63.9061 105.449 64.6561 105.789 64.6461 106.199L64.4961 116.659C64.4961 117.069 63.7461 117.389 62.8261 117.369Z" fill="#3B262B"/>
<path d="M31.656 73.5588C33.296 70.5688 52.506 79.3887 51.126 84.4287C49.746 89.4687 30.476 75.7088 31.656 73.5588Z" fill="#FFC286"/>
<path d="M93.766 73.5588C92.126 70.5688 72.916 79.3887 74.296 84.4287C75.676 89.4687 94.946 75.7088 93.766 73.5588Z" fill="#FFC286"/>
<g style="mix-blend-mode:multiply" opacity="0.15">
<path d="M121.746 77.4487C130.126 126.019 83.8962 139.189 62.6262 139.189C41.3462 139.189 -4.88377 126.019 3.49623 77.4487C-13.1138 133.429 39.2762 148.179 62.6262 148.179C85.9662 148.179 138.356 133.429 121.746 77.4487Z" fill="#ED8954"/>
</g>
<path d="M78.8965 52.4585C78.7765 52.4585 78.7065 52.4585 78.6865 52.4585L78.8165 50.1785L78.7465 51.3185L78.8065 50.1785C78.8265 50.1685 81.2065 50.2585 82.4265 48.7085C83.3865 47.4885 83.4765 45.5351 82.6965 42.8485L84.8865 42.2085C85.8865 45.6385 85.6565 48.3085 84.2065 50.1385C82.4965 52.2985 79.6865 52.4585 78.8965 52.4585Z" fill="#E64022"/>
<path d="M93.9967 50.1583C93.1567 50.1583 92.2167 49.9983 91.2967 49.5083C89.2067 48.3983 87.8867 45.9983 87.3667 42.3683L89.6267 42.0483C90.0267 44.8583 90.9767 46.7383 92.3567 47.4783C93.9967 48.3683 95.9267 47.4783 95.9467 47.4683L96.9367 49.5183C96.8567 49.5583 95.6067 50.1583 93.9967 50.1583Z" fill="#E64022"/>
<path d="M86.5865 62.8286C86.3932 60.2152 85.5998 58.4452 84.2065 57.5186C82.1065 56.1186 79.1465 57.0686 79.1165 57.0786L78.3765 54.9186C78.5465 54.8686 82.4065 53.5786 85.4665 55.6086C87.4765 56.9386 88.6165 59.3086 88.8665 62.6586L86.5865 62.8286Z" fill="#E64022"/>
<path d="M91.1366 61.6386C90.3866 58.2086 90.8066 55.5986 92.3766 53.8886C94.5966 51.4786 98.1866 51.9286 98.3466 51.9486L98.0466 54.2086C98.0266 54.2086 95.4566 53.9085 94.0466 55.4385C93.0133 56.5852 92.7866 58.4886 93.3666 61.1486L91.1366 61.6386Z" fill="#E64022"/>
<path d="M26.4962 96.2785C25.5362 96.2785 24.7062 95.5685 24.5762 94.5885C24.4362 93.5185 25.1962 92.5485 26.2562 92.4085L38.1062 90.8785L29.2362 84.0385C28.3862 83.3785 28.2262 82.1685 28.8762 81.3185C29.5362 80.4585 30.7562 80.3085 31.6062 80.9585L44.1962 90.6685C44.8262 91.1485 45.0962 91.9585 44.8862 92.7185C44.6862 93.4785 44.0462 94.0385 43.2562 94.1385L26.7562 96.2685C26.6695 96.2752 26.5829 96.2785 26.4962 96.2785Z" fill="#3B262B"/>
<path d="M98.7462 96.2785C98.6595 96.2785 98.5728 96.2752 98.4862 96.2685L81.9862 94.1385C81.2062 94.0385 80.5562 93.4785 80.3562 92.7185C80.1462 91.9585 80.4262 91.1485 81.0462 90.6685L93.6362 80.9585C94.4862 80.3085 95.7062 80.4585 96.3662 81.3185C97.0162 82.1685 96.8562 83.3785 96.0062 84.0385L87.1362 90.8785L98.9862 92.4085C100.046 92.5485 100.806 93.5185 100.666 94.5885C100.536 95.5685 99.7062 96.2785 98.7462 96.2785Z" fill="#3B262B"/>
<defs>
<linearGradient id="paint0_linear_139_992" x1="20.2623" y1="73.3194" x2="62.6912" y2="52.8712" gradientUnits="userSpaceOnUse">
<stop stop-color="white"/>
<stop offset="1" stop-color="#FF9D8D"/>
</linearGradient>
</defs>
</svg>
